%TF.GenerationSoftware,KiCad,Pcbnew,8.0.6*%
%TF.CreationDate,2024-11-21T01:25:50-08:00*%
%TF.ProjectId,LED20,4c454432-302e-46b6-9963-61645f706362,2*%
%TF.SameCoordinates,Original*%
%TF.FileFunction,Legend,Top*%
%TF.FilePolarity,Positive*%
%FSLAX46Y46*%
G04 Gerber Fmt 4.6, Leading zero omitted, Abs format (unit mm)*
G04 Created by KiCad (PCBNEW 8.0.6) date 2024-11-21 01:25:50*
%MOMM*%
%LPD*%
G01*
G04 APERTURE LIST*
%ADD10C,0.200000*%
%ADD11C,0.100000*%
%ADD12C,0.125000*%
%ADD13C,0.106680*%
%ADD14C,0.150000*%
%ADD15C,0.120000*%
%ADD16C,0.152400*%
%ADD17C,0.127000*%
%ADD18C,0.504000*%
%ADD19C,0.508000*%
G04 APERTURE END LIST*
D10*
X147710070Y-96652585D02*
X147710070Y-95135484D01*
X146046446Y-96679452D02*
X146046393Y-96677525D01*
X146046441Y-96677503D01*
X146046446Y-96679452D01*
G36*
X146046446Y-96679452D02*
G01*
X146046393Y-96677525D01*
X146046441Y-96677503D01*
X146046446Y-96679452D01*
G37*
X147690511Y-95945468D02*
X146046441Y-96677503D01*
X146043205Y-95118912D01*
X147690511Y-95945468D01*
G36*
X147690511Y-95945468D02*
G01*
X146046441Y-96677503D01*
X146043205Y-95118912D01*
X147690511Y-95945468D01*
G37*
D11*
X157967098Y-93712947D02*
X157729003Y-93712947D01*
X157729003Y-93712947D02*
X157729003Y-93212947D01*
X158133765Y-93451042D02*
X158300432Y-93451042D01*
X158371860Y-93712947D02*
X158133765Y-93712947D01*
X158133765Y-93712947D02*
X158133765Y-93212947D01*
X158133765Y-93212947D02*
X158371860Y-93212947D01*
X158586146Y-93712947D02*
X158586146Y-93212947D01*
X158586146Y-93212947D02*
X158705194Y-93212947D01*
X158705194Y-93212947D02*
X158776622Y-93236757D01*
X158776622Y-93236757D02*
X158824241Y-93284376D01*
X158824241Y-93284376D02*
X158848051Y-93331995D01*
X158848051Y-93331995D02*
X158871860Y-93427233D01*
X158871860Y-93427233D02*
X158871860Y-93498661D01*
X158871860Y-93498661D02*
X158848051Y-93593899D01*
X158848051Y-93593899D02*
X158824241Y-93641518D01*
X158824241Y-93641518D02*
X158776622Y-93689138D01*
X158776622Y-93689138D02*
X158705194Y-93712947D01*
X158705194Y-93712947D02*
X158586146Y-93712947D01*
X145519626Y-93451042D02*
X145591054Y-93474852D01*
X145591054Y-93474852D02*
X145614864Y-93498661D01*
X145614864Y-93498661D02*
X145638673Y-93546280D01*
X145638673Y-93546280D02*
X145638673Y-93617709D01*
X145638673Y-93617709D02*
X145614864Y-93665328D01*
X145614864Y-93665328D02*
X145591054Y-93689138D01*
X145591054Y-93689138D02*
X145543435Y-93712947D01*
X145543435Y-93712947D02*
X145352959Y-93712947D01*
X145352959Y-93712947D02*
X145352959Y-93212947D01*
X145352959Y-93212947D02*
X145519626Y-93212947D01*
X145519626Y-93212947D02*
X145567245Y-93236757D01*
X145567245Y-93236757D02*
X145591054Y-93260566D01*
X145591054Y-93260566D02*
X145614864Y-93308185D01*
X145614864Y-93308185D02*
X145614864Y-93355804D01*
X145614864Y-93355804D02*
X145591054Y-93403423D01*
X145591054Y-93403423D02*
X145567245Y-93427233D01*
X145567245Y-93427233D02*
X145519626Y-93451042D01*
X145519626Y-93451042D02*
X145352959Y-93451042D01*
X146067245Y-93712947D02*
X146067245Y-93451042D01*
X146067245Y-93451042D02*
X146043435Y-93403423D01*
X146043435Y-93403423D02*
X145995816Y-93379614D01*
X145995816Y-93379614D02*
X145900578Y-93379614D01*
X145900578Y-93379614D02*
X145852959Y-93403423D01*
X146067245Y-93689138D02*
X146019626Y-93712947D01*
X146019626Y-93712947D02*
X145900578Y-93712947D01*
X145900578Y-93712947D02*
X145852959Y-93689138D01*
X145852959Y-93689138D02*
X145829150Y-93641518D01*
X145829150Y-93641518D02*
X145829150Y-93593899D01*
X145829150Y-93593899D02*
X145852959Y-93546280D01*
X145852959Y-93546280D02*
X145900578Y-93522471D01*
X145900578Y-93522471D02*
X146019626Y-93522471D01*
X146019626Y-93522471D02*
X146067245Y-93498661D01*
X146233912Y-93379614D02*
X146424388Y-93379614D01*
X146305340Y-93212947D02*
X146305340Y-93641518D01*
X146305340Y-93641518D02*
X146329150Y-93689138D01*
X146329150Y-93689138D02*
X146376769Y-93712947D01*
X146376769Y-93712947D02*
X146424388Y-93712947D01*
X146519626Y-93379614D02*
X146710102Y-93379614D01*
X146591054Y-93212947D02*
X146591054Y-93641518D01*
X146591054Y-93641518D02*
X146614864Y-93689138D01*
X146614864Y-93689138D02*
X146662483Y-93712947D01*
X146662483Y-93712947D02*
X146710102Y-93712947D01*
X147067244Y-93689138D02*
X147019625Y-93712947D01*
X147019625Y-93712947D02*
X146924387Y-93712947D01*
X146924387Y-93712947D02*
X146876768Y-93689138D01*
X146876768Y-93689138D02*
X146852959Y-93641518D01*
X146852959Y-93641518D02*
X146852959Y-93451042D01*
X146852959Y-93451042D02*
X146876768Y-93403423D01*
X146876768Y-93403423D02*
X146924387Y-93379614D01*
X146924387Y-93379614D02*
X147019625Y-93379614D01*
X147019625Y-93379614D02*
X147067244Y-93403423D01*
X147067244Y-93403423D02*
X147091054Y-93451042D01*
X147091054Y-93451042D02*
X147091054Y-93498661D01*
X147091054Y-93498661D02*
X146852959Y-93546280D01*
X147305339Y-93712947D02*
X147305339Y-93379614D01*
X147305339Y-93474852D02*
X147329149Y-93427233D01*
X147329149Y-93427233D02*
X147352958Y-93403423D01*
X147352958Y-93403423D02*
X147400577Y-93379614D01*
X147400577Y-93379614D02*
X147448196Y-93379614D01*
X147567244Y-93379614D02*
X147686292Y-93712947D01*
X147805339Y-93379614D02*
X147686292Y-93712947D01*
X147686292Y-93712947D02*
X147638673Y-93831995D01*
X147638673Y-93831995D02*
X147614863Y-93855804D01*
X147614863Y-93855804D02*
X147567244Y-93879614D01*
X150513819Y-93674080D02*
X150490010Y-93697890D01*
X150490010Y-93697890D02*
X150418581Y-93721699D01*
X150418581Y-93721699D02*
X150370962Y-93721699D01*
X150370962Y-93721699D02*
X150299534Y-93697890D01*
X150299534Y-93697890D02*
X150251915Y-93650270D01*
X150251915Y-93650270D02*
X150228105Y-93602651D01*
X150228105Y-93602651D02*
X150204296Y-93507413D01*
X150204296Y-93507413D02*
X150204296Y-93435985D01*
X150204296Y-93435985D02*
X150228105Y-93340747D01*
X150228105Y-93340747D02*
X150251915Y-93293128D01*
X150251915Y-93293128D02*
X150299534Y-93245509D01*
X150299534Y-93245509D02*
X150370962Y-93221699D01*
X150370962Y-93221699D02*
X150418581Y-93221699D01*
X150418581Y-93221699D02*
X150490010Y-93245509D01*
X150490010Y-93245509D02*
X150513819Y-93269318D01*
X150728105Y-93721699D02*
X150728105Y-93221699D01*
X150942391Y-93721699D02*
X150942391Y-93459794D01*
X150942391Y-93459794D02*
X150918581Y-93412175D01*
X150918581Y-93412175D02*
X150870962Y-93388366D01*
X150870962Y-93388366D02*
X150799534Y-93388366D01*
X150799534Y-93388366D02*
X150751915Y-93412175D01*
X150751915Y-93412175D02*
X150728105Y-93435985D01*
X151394772Y-93721699D02*
X151394772Y-93459794D01*
X151394772Y-93459794D02*
X151370962Y-93412175D01*
X151370962Y-93412175D02*
X151323343Y-93388366D01*
X151323343Y-93388366D02*
X151228105Y-93388366D01*
X151228105Y-93388366D02*
X151180486Y-93412175D01*
X151394772Y-93697890D02*
X151347153Y-93721699D01*
X151347153Y-93721699D02*
X151228105Y-93721699D01*
X151228105Y-93721699D02*
X151180486Y-93697890D01*
X151180486Y-93697890D02*
X151156677Y-93650270D01*
X151156677Y-93650270D02*
X151156677Y-93602651D01*
X151156677Y-93602651D02*
X151180486Y-93555032D01*
X151180486Y-93555032D02*
X151228105Y-93531223D01*
X151228105Y-93531223D02*
X151347153Y-93531223D01*
X151347153Y-93531223D02*
X151394772Y-93507413D01*
X151632867Y-93721699D02*
X151632867Y-93388366D01*
X151632867Y-93483604D02*
X151656677Y-93435985D01*
X151656677Y-93435985D02*
X151680486Y-93412175D01*
X151680486Y-93412175D02*
X151728105Y-93388366D01*
X151728105Y-93388366D02*
X151775724Y-93388366D01*
X152156677Y-93388366D02*
X152156677Y-93793128D01*
X152156677Y-93793128D02*
X152132867Y-93840747D01*
X152132867Y-93840747D02*
X152109058Y-93864556D01*
X152109058Y-93864556D02*
X152061439Y-93888366D01*
X152061439Y-93888366D02*
X151990010Y-93888366D01*
X151990010Y-93888366D02*
X151942391Y-93864556D01*
X152156677Y-93697890D02*
X152109058Y-93721699D01*
X152109058Y-93721699D02*
X152013820Y-93721699D01*
X152013820Y-93721699D02*
X151966201Y-93697890D01*
X151966201Y-93697890D02*
X151942391Y-93674080D01*
X151942391Y-93674080D02*
X151918582Y-93626461D01*
X151918582Y-93626461D02*
X151918582Y-93483604D01*
X151918582Y-93483604D02*
X151942391Y-93435985D01*
X151942391Y-93435985D02*
X151966201Y-93412175D01*
X151966201Y-93412175D02*
X152013820Y-93388366D01*
X152013820Y-93388366D02*
X152109058Y-93388366D01*
X152109058Y-93388366D02*
X152156677Y-93412175D01*
X152394772Y-93721699D02*
X152394772Y-93388366D01*
X152394772Y-93221699D02*
X152370963Y-93245509D01*
X152370963Y-93245509D02*
X152394772Y-93269318D01*
X152394772Y-93269318D02*
X152418582Y-93245509D01*
X152418582Y-93245509D02*
X152394772Y-93221699D01*
X152394772Y-93221699D02*
X152394772Y-93269318D01*
X152632867Y-93388366D02*
X152632867Y-93721699D01*
X152632867Y-93435985D02*
X152656677Y-93412175D01*
X152656677Y-93412175D02*
X152704296Y-93388366D01*
X152704296Y-93388366D02*
X152775724Y-93388366D01*
X152775724Y-93388366D02*
X152823343Y-93412175D01*
X152823343Y-93412175D02*
X152847153Y-93459794D01*
X152847153Y-93459794D02*
X152847153Y-93721699D01*
X153299534Y-93388366D02*
X153299534Y-93793128D01*
X153299534Y-93793128D02*
X153275724Y-93840747D01*
X153275724Y-93840747D02*
X153251915Y-93864556D01*
X153251915Y-93864556D02*
X153204296Y-93888366D01*
X153204296Y-93888366D02*
X153132867Y-93888366D01*
X153132867Y-93888366D02*
X153085248Y-93864556D01*
X153299534Y-93697890D02*
X153251915Y-93721699D01*
X153251915Y-93721699D02*
X153156677Y-93721699D01*
X153156677Y-93721699D02*
X153109058Y-93697890D01*
X153109058Y-93697890D02*
X153085248Y-93674080D01*
X153085248Y-93674080D02*
X153061439Y-93626461D01*
X153061439Y-93626461D02*
X153061439Y-93483604D01*
X153061439Y-93483604D02*
X153085248Y-93435985D01*
X153085248Y-93435985D02*
X153109058Y-93412175D01*
X153109058Y-93412175D02*
X153156677Y-93388366D01*
X153156677Y-93388366D02*
X153251915Y-93388366D01*
X153251915Y-93388366D02*
X153299534Y-93412175D01*
D12*
X160006548Y-94674809D02*
X160292262Y-94674809D01*
X160149405Y-95174809D02*
X160149405Y-94674809D01*
X160458928Y-95174809D02*
X160458928Y-94674809D01*
X160458928Y-94674809D02*
X160649404Y-94674809D01*
X160649404Y-94674809D02*
X160697023Y-94698619D01*
X160697023Y-94698619D02*
X160720833Y-94722428D01*
X160720833Y-94722428D02*
X160744642Y-94770047D01*
X160744642Y-94770047D02*
X160744642Y-94841476D01*
X160744642Y-94841476D02*
X160720833Y-94889095D01*
X160720833Y-94889095D02*
X160697023Y-94912904D01*
X160697023Y-94912904D02*
X160649404Y-94936714D01*
X160649404Y-94936714D02*
X160458928Y-94936714D01*
X160935119Y-94722428D02*
X160958928Y-94698619D01*
X160958928Y-94698619D02*
X161006547Y-94674809D01*
X161006547Y-94674809D02*
X161125595Y-94674809D01*
X161125595Y-94674809D02*
X161173214Y-94698619D01*
X161173214Y-94698619D02*
X161197023Y-94722428D01*
X161197023Y-94722428D02*
X161220833Y-94770047D01*
X161220833Y-94770047D02*
X161220833Y-94817666D01*
X161220833Y-94817666D02*
X161197023Y-94889095D01*
X161197023Y-94889095D02*
X160911309Y-95174809D01*
X160911309Y-95174809D02*
X161220833Y-95174809D01*
X155673146Y-81471794D02*
X155673146Y-81876556D01*
X155673146Y-81876556D02*
X155696956Y-81924175D01*
X155696956Y-81924175D02*
X155720765Y-81947985D01*
X155720765Y-81947985D02*
X155768384Y-81971794D01*
X155768384Y-81971794D02*
X155863622Y-81971794D01*
X155863622Y-81971794D02*
X155911241Y-81947985D01*
X155911241Y-81947985D02*
X155935051Y-81924175D01*
X155935051Y-81924175D02*
X155958860Y-81876556D01*
X155958860Y-81876556D02*
X155958860Y-81471794D01*
X156173147Y-81519413D02*
X156196956Y-81495604D01*
X156196956Y-81495604D02*
X156244575Y-81471794D01*
X156244575Y-81471794D02*
X156363623Y-81471794D01*
X156363623Y-81471794D02*
X156411242Y-81495604D01*
X156411242Y-81495604D02*
X156435051Y-81519413D01*
X156435051Y-81519413D02*
X156458861Y-81567032D01*
X156458861Y-81567032D02*
X156458861Y-81614651D01*
X156458861Y-81614651D02*
X156435051Y-81686080D01*
X156435051Y-81686080D02*
X156149337Y-81971794D01*
X156149337Y-81971794D02*
X156458861Y-81971794D01*
X149128413Y-93224067D02*
X149128413Y-93628829D01*
X149128413Y-93628829D02*
X149152223Y-93676448D01*
X149152223Y-93676448D02*
X149176032Y-93700258D01*
X149176032Y-93700258D02*
X149223651Y-93724067D01*
X149223651Y-93724067D02*
X149318889Y-93724067D01*
X149318889Y-93724067D02*
X149366508Y-93700258D01*
X149366508Y-93700258D02*
X149390318Y-93676448D01*
X149390318Y-93676448D02*
X149414127Y-93628829D01*
X149414127Y-93628829D02*
X149414127Y-93224067D01*
X149866509Y-93224067D02*
X149771271Y-93224067D01*
X149771271Y-93224067D02*
X149723652Y-93247877D01*
X149723652Y-93247877D02*
X149699842Y-93271686D01*
X149699842Y-93271686D02*
X149652223Y-93343115D01*
X149652223Y-93343115D02*
X149628414Y-93438353D01*
X149628414Y-93438353D02*
X149628414Y-93628829D01*
X149628414Y-93628829D02*
X149652223Y-93676448D01*
X149652223Y-93676448D02*
X149676033Y-93700258D01*
X149676033Y-93700258D02*
X149723652Y-93724067D01*
X149723652Y-93724067D02*
X149818890Y-93724067D01*
X149818890Y-93724067D02*
X149866509Y-93700258D01*
X149866509Y-93700258D02*
X149890318Y-93676448D01*
X149890318Y-93676448D02*
X149914128Y-93628829D01*
X149914128Y-93628829D02*
X149914128Y-93509781D01*
X149914128Y-93509781D02*
X149890318Y-93462162D01*
X149890318Y-93462162D02*
X149866509Y-93438353D01*
X149866509Y-93438353D02*
X149818890Y-93414543D01*
X149818890Y-93414543D02*
X149723652Y-93414543D01*
X149723652Y-93414543D02*
X149676033Y-93438353D01*
X149676033Y-93438353D02*
X149652223Y-93462162D01*
X149652223Y-93462162D02*
X149628414Y-93509781D01*
X156693731Y-93706562D02*
X156693731Y-93206562D01*
X156693731Y-93206562D02*
X156812779Y-93206562D01*
X156812779Y-93206562D02*
X156884207Y-93230372D01*
X156884207Y-93230372D02*
X156931826Y-93277991D01*
X156931826Y-93277991D02*
X156955636Y-93325610D01*
X156955636Y-93325610D02*
X156979445Y-93420848D01*
X156979445Y-93420848D02*
X156979445Y-93492276D01*
X156979445Y-93492276D02*
X156955636Y-93587514D01*
X156955636Y-93587514D02*
X156931826Y-93635133D01*
X156931826Y-93635133D02*
X156884207Y-93682753D01*
X156884207Y-93682753D02*
X156812779Y-93706562D01*
X156812779Y-93706562D02*
X156693731Y-93706562D01*
X157455636Y-93706562D02*
X157169922Y-93706562D01*
X157312779Y-93706562D02*
X157312779Y-93206562D01*
X157312779Y-93206562D02*
X157265160Y-93277991D01*
X157265160Y-93277991D02*
X157217541Y-93325610D01*
X157217541Y-93325610D02*
X157169922Y-93349419D01*
X160554161Y-77752146D02*
X160530352Y-77775956D01*
X160530352Y-77775956D02*
X160458923Y-77799765D01*
X160458923Y-77799765D02*
X160411304Y-77799765D01*
X160411304Y-77799765D02*
X160339876Y-77775956D01*
X160339876Y-77775956D02*
X160292257Y-77728336D01*
X160292257Y-77728336D02*
X160268447Y-77680717D01*
X160268447Y-77680717D02*
X160244638Y-77585479D01*
X160244638Y-77585479D02*
X160244638Y-77514051D01*
X160244638Y-77514051D02*
X160268447Y-77418813D01*
X160268447Y-77418813D02*
X160292257Y-77371194D01*
X160292257Y-77371194D02*
X160339876Y-77323575D01*
X160339876Y-77323575D02*
X160411304Y-77299765D01*
X160411304Y-77299765D02*
X160458923Y-77299765D01*
X160458923Y-77299765D02*
X160530352Y-77323575D01*
X160530352Y-77323575D02*
X160554161Y-77347384D01*
X160720828Y-77299765D02*
X161030352Y-77299765D01*
X161030352Y-77299765D02*
X160863685Y-77490241D01*
X160863685Y-77490241D02*
X160935114Y-77490241D01*
X160935114Y-77490241D02*
X160982733Y-77514051D01*
X160982733Y-77514051D02*
X161006542Y-77537860D01*
X161006542Y-77537860D02*
X161030352Y-77585479D01*
X161030352Y-77585479D02*
X161030352Y-77704527D01*
X161030352Y-77704527D02*
X161006542Y-77752146D01*
X161006542Y-77752146D02*
X160982733Y-77775956D01*
X160982733Y-77775956D02*
X160935114Y-77799765D01*
X160935114Y-77799765D02*
X160792257Y-77799765D01*
X160792257Y-77799765D02*
X160744638Y-77775956D01*
X160744638Y-77775956D02*
X160720828Y-77752146D01*
X150793541Y-96888904D02*
X150769732Y-96912714D01*
X150769732Y-96912714D02*
X150698303Y-96936523D01*
X150698303Y-96936523D02*
X150650684Y-96936523D01*
X150650684Y-96936523D02*
X150579256Y-96912714D01*
X150579256Y-96912714D02*
X150531637Y-96865094D01*
X150531637Y-96865094D02*
X150507827Y-96817475D01*
X150507827Y-96817475D02*
X150484018Y-96722237D01*
X150484018Y-96722237D02*
X150484018Y-96650809D01*
X150484018Y-96650809D02*
X150507827Y-96555571D01*
X150507827Y-96555571D02*
X150531637Y-96507952D01*
X150531637Y-96507952D02*
X150579256Y-96460333D01*
X150579256Y-96460333D02*
X150650684Y-96436523D01*
X150650684Y-96436523D02*
X150698303Y-96436523D01*
X150698303Y-96436523D02*
X150769732Y-96460333D01*
X150769732Y-96460333D02*
X150793541Y-96484142D01*
X151293541Y-96936523D02*
X151126875Y-96698428D01*
X151007827Y-96936523D02*
X151007827Y-96436523D01*
X151007827Y-96436523D02*
X151198303Y-96436523D01*
X151198303Y-96436523D02*
X151245922Y-96460333D01*
X151245922Y-96460333D02*
X151269732Y-96484142D01*
X151269732Y-96484142D02*
X151293541Y-96531761D01*
X151293541Y-96531761D02*
X151293541Y-96603190D01*
X151293541Y-96603190D02*
X151269732Y-96650809D01*
X151269732Y-96650809D02*
X151245922Y-96674618D01*
X151245922Y-96674618D02*
X151198303Y-96698428D01*
X151198303Y-96698428D02*
X151007827Y-96698428D01*
X151769732Y-96936523D02*
X151484018Y-96936523D01*
X151626875Y-96936523D02*
X151626875Y-96436523D01*
X151626875Y-96436523D02*
X151579256Y-96507952D01*
X151579256Y-96507952D02*
X151531637Y-96555571D01*
X151531637Y-96555571D02*
X151484018Y-96579380D01*
D13*
X135884771Y-86224880D02*
X135884771Y-86629642D01*
X135884771Y-86629642D02*
X135908581Y-86677261D01*
X135908581Y-86677261D02*
X135932390Y-86701071D01*
X135932390Y-86701071D02*
X135980009Y-86724880D01*
X135980009Y-86724880D02*
X136075247Y-86724880D01*
X136075247Y-86724880D02*
X136122866Y-86701071D01*
X136122866Y-86701071D02*
X136146676Y-86677261D01*
X136146676Y-86677261D02*
X136170485Y-86629642D01*
X136170485Y-86629642D02*
X136170485Y-86224880D01*
X136622867Y-86391547D02*
X136622867Y-86724880D01*
X136503819Y-86201071D02*
X136384772Y-86558213D01*
X136384772Y-86558213D02*
X136694295Y-86558213D01*
D12*
X152971756Y-79725603D02*
X152947947Y-79749413D01*
X152947947Y-79749413D02*
X152876518Y-79773222D01*
X152876518Y-79773222D02*
X152828899Y-79773222D01*
X152828899Y-79773222D02*
X152757471Y-79749413D01*
X152757471Y-79749413D02*
X152709852Y-79701793D01*
X152709852Y-79701793D02*
X152686042Y-79654174D01*
X152686042Y-79654174D02*
X152662233Y-79558936D01*
X152662233Y-79558936D02*
X152662233Y-79487508D01*
X152662233Y-79487508D02*
X152686042Y-79392270D01*
X152686042Y-79392270D02*
X152709852Y-79344651D01*
X152709852Y-79344651D02*
X152757471Y-79297032D01*
X152757471Y-79297032D02*
X152828899Y-79273222D01*
X152828899Y-79273222D02*
X152876518Y-79273222D01*
X152876518Y-79273222D02*
X152947947Y-79297032D01*
X152947947Y-79297032D02*
X152971756Y-79320841D01*
X153447947Y-79773222D02*
X153162233Y-79773222D01*
X153305090Y-79773222D02*
X153305090Y-79273222D01*
X153305090Y-79273222D02*
X153257471Y-79344651D01*
X153257471Y-79344651D02*
X153209852Y-79392270D01*
X153209852Y-79392270D02*
X153162233Y-79416079D01*
X138654604Y-87092655D02*
X138940318Y-87092655D01*
X138797461Y-87592655D02*
X138797461Y-87092655D01*
X139106984Y-87592655D02*
X139106984Y-87092655D01*
X139106984Y-87092655D02*
X139297460Y-87092655D01*
X139297460Y-87092655D02*
X139345079Y-87116465D01*
X139345079Y-87116465D02*
X139368889Y-87140274D01*
X139368889Y-87140274D02*
X139392698Y-87187893D01*
X139392698Y-87187893D02*
X139392698Y-87259322D01*
X139392698Y-87259322D02*
X139368889Y-87306941D01*
X139368889Y-87306941D02*
X139345079Y-87330750D01*
X139345079Y-87330750D02*
X139297460Y-87354560D01*
X139297460Y-87354560D02*
X139106984Y-87354560D01*
X139868889Y-87592655D02*
X139583175Y-87592655D01*
X139726032Y-87592655D02*
X139726032Y-87092655D01*
X139726032Y-87092655D02*
X139678413Y-87164084D01*
X139678413Y-87164084D02*
X139630794Y-87211703D01*
X139630794Y-87211703D02*
X139583175Y-87235512D01*
X158080119Y-75849935D02*
X158056310Y-75873745D01*
X158056310Y-75873745D02*
X157984881Y-75897554D01*
X157984881Y-75897554D02*
X157937262Y-75897554D01*
X157937262Y-75897554D02*
X157865834Y-75873745D01*
X157865834Y-75873745D02*
X157818215Y-75826125D01*
X157818215Y-75826125D02*
X157794405Y-75778506D01*
X157794405Y-75778506D02*
X157770596Y-75683268D01*
X157770596Y-75683268D02*
X157770596Y-75611840D01*
X157770596Y-75611840D02*
X157794405Y-75516602D01*
X157794405Y-75516602D02*
X157818215Y-75468983D01*
X157818215Y-75468983D02*
X157865834Y-75421364D01*
X157865834Y-75421364D02*
X157937262Y-75397554D01*
X157937262Y-75397554D02*
X157984881Y-75397554D01*
X157984881Y-75397554D02*
X158056310Y-75421364D01*
X158056310Y-75421364D02*
X158080119Y-75445173D01*
X158270596Y-75445173D02*
X158294405Y-75421364D01*
X158294405Y-75421364D02*
X158342024Y-75397554D01*
X158342024Y-75397554D02*
X158461072Y-75397554D01*
X158461072Y-75397554D02*
X158508691Y-75421364D01*
X158508691Y-75421364D02*
X158532500Y-75445173D01*
X158532500Y-75445173D02*
X158556310Y-75492792D01*
X158556310Y-75492792D02*
X158556310Y-75540411D01*
X158556310Y-75540411D02*
X158532500Y-75611840D01*
X158532500Y-75611840D02*
X158246786Y-75897554D01*
X158246786Y-75897554D02*
X158556310Y-75897554D01*
X153468918Y-83353989D02*
X153754632Y-83353989D01*
X153611775Y-83853989D02*
X153611775Y-83353989D01*
X153921298Y-83853989D02*
X153921298Y-83353989D01*
X153921298Y-83353989D02*
X154111774Y-83353989D01*
X154111774Y-83353989D02*
X154159393Y-83377799D01*
X154159393Y-83377799D02*
X154183203Y-83401608D01*
X154183203Y-83401608D02*
X154207012Y-83449227D01*
X154207012Y-83449227D02*
X154207012Y-83520656D01*
X154207012Y-83520656D02*
X154183203Y-83568275D01*
X154183203Y-83568275D02*
X154159393Y-83592084D01*
X154159393Y-83592084D02*
X154111774Y-83615894D01*
X154111774Y-83615894D02*
X153921298Y-83615894D01*
X154683203Y-83853989D02*
X154397489Y-83853989D01*
X154540346Y-83853989D02*
X154540346Y-83353989D01*
X154540346Y-83353989D02*
X154492727Y-83425418D01*
X154492727Y-83425418D02*
X154445108Y-83473037D01*
X154445108Y-83473037D02*
X154397489Y-83496846D01*
X154849869Y-83353989D02*
X155183202Y-83353989D01*
X155183202Y-83353989D02*
X154968917Y-83853989D01*
X159762299Y-83420600D02*
X160048013Y-83420600D01*
X159905156Y-83920600D02*
X159905156Y-83420600D01*
X160214679Y-83920600D02*
X160214679Y-83420600D01*
X160214679Y-83420600D02*
X160405155Y-83420600D01*
X160405155Y-83420600D02*
X160452774Y-83444410D01*
X160452774Y-83444410D02*
X160476584Y-83468219D01*
X160476584Y-83468219D02*
X160500393Y-83515838D01*
X160500393Y-83515838D02*
X160500393Y-83587267D01*
X160500393Y-83587267D02*
X160476584Y-83634886D01*
X160476584Y-83634886D02*
X160452774Y-83658695D01*
X160452774Y-83658695D02*
X160405155Y-83682505D01*
X160405155Y-83682505D02*
X160214679Y-83682505D01*
X160976584Y-83920600D02*
X160690870Y-83920600D01*
X160833727Y-83920600D02*
X160833727Y-83420600D01*
X160833727Y-83420600D02*
X160786108Y-83492029D01*
X160786108Y-83492029D02*
X160738489Y-83539648D01*
X160738489Y-83539648D02*
X160690870Y-83563457D01*
X161262298Y-83634886D02*
X161214679Y-83611076D01*
X161214679Y-83611076D02*
X161190869Y-83587267D01*
X161190869Y-83587267D02*
X161167060Y-83539648D01*
X161167060Y-83539648D02*
X161167060Y-83515838D01*
X161167060Y-83515838D02*
X161190869Y-83468219D01*
X161190869Y-83468219D02*
X161214679Y-83444410D01*
X161214679Y-83444410D02*
X161262298Y-83420600D01*
X161262298Y-83420600D02*
X161357536Y-83420600D01*
X161357536Y-83420600D02*
X161405155Y-83444410D01*
X161405155Y-83444410D02*
X161428964Y-83468219D01*
X161428964Y-83468219D02*
X161452774Y-83515838D01*
X161452774Y-83515838D02*
X161452774Y-83539648D01*
X161452774Y-83539648D02*
X161428964Y-83587267D01*
X161428964Y-83587267D02*
X161405155Y-83611076D01*
X161405155Y-83611076D02*
X161357536Y-83634886D01*
X161357536Y-83634886D02*
X161262298Y-83634886D01*
X161262298Y-83634886D02*
X161214679Y-83658695D01*
X161214679Y-83658695D02*
X161190869Y-83682505D01*
X161190869Y-83682505D02*
X161167060Y-83730124D01*
X161167060Y-83730124D02*
X161167060Y-83825362D01*
X161167060Y-83825362D02*
X161190869Y-83872981D01*
X161190869Y-83872981D02*
X161214679Y-83896791D01*
X161214679Y-83896791D02*
X161262298Y-83920600D01*
X161262298Y-83920600D02*
X161357536Y-83920600D01*
X161357536Y-83920600D02*
X161405155Y-83896791D01*
X161405155Y-83896791D02*
X161428964Y-83872981D01*
X161428964Y-83872981D02*
X161452774Y-83825362D01*
X161452774Y-83825362D02*
X161452774Y-83730124D01*
X161452774Y-83730124D02*
X161428964Y-83682505D01*
X161428964Y-83682505D02*
X161405155Y-83658695D01*
X161405155Y-83658695D02*
X161357536Y-83634886D01*
D14*
X137231197Y-93473648D02*
X136755007Y-93473648D01*
X136755007Y-93473648D02*
X136755007Y-92473648D01*
X137516912Y-93426029D02*
X137659769Y-93473648D01*
X137659769Y-93473648D02*
X137897864Y-93473648D01*
X137897864Y-93473648D02*
X137993102Y-93426029D01*
X137993102Y-93426029D02*
X138040721Y-93378409D01*
X138040721Y-93378409D02*
X138088340Y-93283171D01*
X138088340Y-93283171D02*
X138088340Y-93187933D01*
X138088340Y-93187933D02*
X138040721Y-93092695D01*
X138040721Y-93092695D02*
X137993102Y-93045076D01*
X137993102Y-93045076D02*
X137897864Y-92997457D01*
X137897864Y-92997457D02*
X137707388Y-92949838D01*
X137707388Y-92949838D02*
X137612150Y-92902219D01*
X137612150Y-92902219D02*
X137564531Y-92854600D01*
X137564531Y-92854600D02*
X137516912Y-92759362D01*
X137516912Y-92759362D02*
X137516912Y-92664124D01*
X137516912Y-92664124D02*
X137564531Y-92568886D01*
X137564531Y-92568886D02*
X137612150Y-92521267D01*
X137612150Y-92521267D02*
X137707388Y-92473648D01*
X137707388Y-92473648D02*
X137945483Y-92473648D01*
X137945483Y-92473648D02*
X138088340Y-92521267D01*
X139040721Y-93473648D02*
X138469293Y-93473648D01*
X138755007Y-93473648D02*
X138755007Y-92473648D01*
X138755007Y-92473648D02*
X138659769Y-92616505D01*
X138659769Y-92616505D02*
X138564531Y-92711743D01*
X138564531Y-92711743D02*
X138469293Y-92759362D01*
D12*
X144151155Y-93224067D02*
X144151155Y-93628829D01*
X144151155Y-93628829D02*
X144174965Y-93676448D01*
X144174965Y-93676448D02*
X144198774Y-93700258D01*
X144198774Y-93700258D02*
X144246393Y-93724067D01*
X144246393Y-93724067D02*
X144341631Y-93724067D01*
X144341631Y-93724067D02*
X144389250Y-93700258D01*
X144389250Y-93700258D02*
X144413060Y-93676448D01*
X144413060Y-93676448D02*
X144436869Y-93628829D01*
X144436869Y-93628829D02*
X144436869Y-93224067D01*
X144627346Y-93224067D02*
X144960679Y-93224067D01*
X144960679Y-93224067D02*
X144746394Y-93724067D01*
X152402965Y-96403125D02*
X152236299Y-96165030D01*
X152117251Y-96403125D02*
X152117251Y-95903125D01*
X152117251Y-95903125D02*
X152307727Y-95903125D01*
X152307727Y-95903125D02*
X152355346Y-95926935D01*
X152355346Y-95926935D02*
X152379156Y-95950744D01*
X152379156Y-95950744D02*
X152402965Y-95998363D01*
X152402965Y-95998363D02*
X152402965Y-96069792D01*
X152402965Y-96069792D02*
X152379156Y-96117411D01*
X152379156Y-96117411D02*
X152355346Y-96141220D01*
X152355346Y-96141220D02*
X152307727Y-96165030D01*
X152307727Y-96165030D02*
X152117251Y-96165030D01*
X152879156Y-96403125D02*
X152593442Y-96403125D01*
X152736299Y-96403125D02*
X152736299Y-95903125D01*
X152736299Y-95903125D02*
X152688680Y-95974554D01*
X152688680Y-95974554D02*
X152641061Y-96022173D01*
X152641061Y-96022173D02*
X152593442Y-96045982D01*
X159228805Y-95701026D02*
X159228805Y-96105788D01*
X159228805Y-96105788D02*
X159252615Y-96153407D01*
X159252615Y-96153407D02*
X159276424Y-96177217D01*
X159276424Y-96177217D02*
X159324043Y-96201026D01*
X159324043Y-96201026D02*
X159419281Y-96201026D01*
X159419281Y-96201026D02*
X159466900Y-96177217D01*
X159466900Y-96177217D02*
X159490710Y-96153407D01*
X159490710Y-96153407D02*
X159514519Y-96105788D01*
X159514519Y-96105788D02*
X159514519Y-95701026D01*
X159704996Y-95701026D02*
X160014520Y-95701026D01*
X160014520Y-95701026D02*
X159847853Y-95891502D01*
X159847853Y-95891502D02*
X159919282Y-95891502D01*
X159919282Y-95891502D02*
X159966901Y-95915312D01*
X159966901Y-95915312D02*
X159990710Y-95939121D01*
X159990710Y-95939121D02*
X160014520Y-95986740D01*
X160014520Y-95986740D02*
X160014520Y-96105788D01*
X160014520Y-96105788D02*
X159990710Y-96153407D01*
X159990710Y-96153407D02*
X159966901Y-96177217D01*
X159966901Y-96177217D02*
X159919282Y-96201026D01*
X159919282Y-96201026D02*
X159776425Y-96201026D01*
X159776425Y-96201026D02*
X159728806Y-96177217D01*
X159728806Y-96177217D02*
X159704996Y-96153407D01*
D15*
%TO.C,TP2*%
X161337500Y-93450000D02*
G75*
G02*
X159937500Y-93450000I-700000J0D01*
G01*
X159937500Y-93450000D02*
G75*
G02*
X161337500Y-93450000I700000J0D01*
G01*
%TO.C,U2*%
X157268761Y-78004160D02*
X156468761Y-78004160D01*
X157268761Y-78004160D02*
X158068761Y-78004160D01*
X157268761Y-81124160D02*
X156468761Y-81124160D01*
X157268761Y-81124160D02*
X158068761Y-81124160D01*
X158808761Y-81404160D02*
X158328761Y-81404160D01*
X158568761Y-81074160D01*
X158808761Y-81404160D01*
G36*
X158808761Y-81404160D02*
G01*
X158328761Y-81404160D01*
X158568761Y-81074160D01*
X158808761Y-81404160D01*
G37*
%TO.C,U6*%
X148245921Y-86548331D02*
X148245921Y-92668331D01*
X148245921Y-92668331D02*
X152965921Y-92668331D01*
X148855921Y-87158331D02*
X148855921Y-92058331D01*
X148855921Y-89508331D02*
X149355921Y-89508331D01*
X148855921Y-89608331D02*
X149355921Y-89608331D01*
X148855921Y-92058331D02*
X152355921Y-92058331D01*
X149355921Y-89508331D02*
X149355921Y-89708331D01*
X149355921Y-89708331D02*
X148855921Y-89708331D01*
X150355921Y-86548331D02*
X150355921Y-87158331D01*
X150355921Y-92668331D02*
X150355921Y-92058331D01*
X151655921Y-86548331D02*
X151655921Y-87158331D01*
X151655921Y-92668331D02*
X151655921Y-92058331D01*
X152355921Y-87158331D02*
X148855921Y-87158331D01*
X152355921Y-89108331D02*
X152355921Y-87158331D01*
X152355921Y-90108331D02*
X152965921Y-90108331D01*
X152355921Y-92058331D02*
X152355921Y-90108331D01*
X152965921Y-86548331D02*
X148245921Y-86548331D01*
X152965921Y-88308331D02*
X153165921Y-88308331D01*
X152965921Y-89108331D02*
X152355921Y-89108331D01*
X152965921Y-92668331D02*
X152965921Y-86548331D01*
X153065921Y-88308331D02*
X153065921Y-88008331D01*
X153165921Y-88008331D02*
X152965921Y-88008331D01*
X153165921Y-88308331D02*
X153165921Y-88008331D01*
X153265921Y-86248331D02*
X152015921Y-86248331D01*
X153265921Y-87498331D02*
X153265921Y-86248331D01*
%TO.C,D1*%
X153823847Y-84551446D02*
X153823847Y-92671446D01*
X153823847Y-92671446D02*
X158543847Y-92671446D01*
X154433847Y-85161446D02*
X154433847Y-92061446D01*
X154433847Y-87511446D02*
X154933847Y-87511446D01*
X154433847Y-87611446D02*
X154933847Y-87611446D01*
X154433847Y-89511446D02*
X154933847Y-89511446D01*
X154433847Y-89611446D02*
X154933847Y-89611446D01*
X154433847Y-92061446D02*
X157933847Y-92061446D01*
X154933847Y-87511446D02*
X154933847Y-87711446D01*
X154933847Y-87711446D02*
X154433847Y-87711446D01*
X154933847Y-89511446D02*
X154933847Y-89711446D01*
X154933847Y-89711446D02*
X154433847Y-89711446D01*
X155933847Y-84551446D02*
X155933847Y-85161446D01*
X155933847Y-92671446D02*
X155933847Y-92061446D01*
X157233847Y-84551446D02*
X157233847Y-85161446D01*
X157233847Y-92671446D02*
X157233847Y-92061446D01*
X157933847Y-85161446D02*
X154433847Y-85161446D01*
X157933847Y-87111446D02*
X157933847Y-85161446D01*
X157933847Y-90111446D02*
X158543847Y-90111446D01*
X157933847Y-92061446D02*
X157933847Y-90111446D01*
X158543847Y-84551446D02*
X153823847Y-84551446D01*
X158543847Y-86311446D02*
X158743847Y-86311446D01*
X158543847Y-87111446D02*
X157933847Y-87111446D01*
X158543847Y-92671446D02*
X158543847Y-84551446D01*
X158643847Y-86311446D02*
X158643847Y-86011446D01*
X158743847Y-86011446D02*
X158543847Y-86011446D01*
X158743847Y-86311446D02*
X158743847Y-86011446D01*
X158843847Y-84251446D02*
X157593847Y-84251446D01*
X158843847Y-85501446D02*
X158843847Y-84251446D01*
%TO.C,C3*%
X160127500Y-79309420D02*
X160127500Y-79590580D01*
X161147500Y-79309420D02*
X161147500Y-79590580D01*
D16*
%TO.C,CR1*%
X144345400Y-94349800D02*
X144345400Y-94766360D01*
X144345400Y-97133640D02*
X144345400Y-97550200D01*
X144345400Y-97550200D02*
X149349200Y-97550200D01*
X149349200Y-94349800D02*
X144345400Y-94349800D01*
X149349200Y-94766360D02*
X149349200Y-94349800D01*
X149349200Y-97550200D02*
X149349200Y-97133640D01*
X150962100Y-95950000D02*
G75*
G02*
X150809700Y-95950000I-76200J0D01*
G01*
X150809700Y-95950000D02*
G75*
G02*
X150962100Y-95950000I76200J0D01*
G01*
D11*
%TO.C,U4*%
X133020900Y-84064500D02*
X133020900Y-66919500D01*
X134925900Y-85969500D02*
X148895900Y-85969500D01*
D17*
X137415900Y-65014500D02*
X137419628Y-64004228D01*
X137919628Y-63504500D02*
X145914900Y-63504500D01*
X146414900Y-64004500D02*
X146414900Y-65014500D01*
D11*
X148895900Y-65014500D02*
X134925900Y-65014500D01*
X150800900Y-84064500D02*
X150800900Y-66919500D01*
X133020900Y-66915500D02*
G75*
G02*
X134925900Y-65010500I1905001J-1D01*
G01*
X134925900Y-85969500D02*
G75*
G02*
X133020900Y-84064500I1J1905001D01*
G01*
D17*
X137419628Y-64004228D02*
G75*
G02*
X137919628Y-63504501I500018J-291D01*
G01*
X145914900Y-63504500D02*
G75*
G02*
X146414900Y-64004500I0J-500000D01*
G01*
D11*
X148895900Y-65014500D02*
G75*
G02*
X150800900Y-66919500I0J-1905000D01*
G01*
X150800900Y-84064500D02*
G75*
G02*
X148895900Y-85969500I-1905000J0D01*
G01*
D18*
X133062900Y-65430500D02*
G75*
G02*
X132558900Y-65430500I-252000J0D01*
G01*
X132558900Y-65430500D02*
G75*
G02*
X133062900Y-65430500I252000J0D01*
G01*
X134336900Y-66147500D02*
G75*
G02*
X133832900Y-66147500I-252000J0D01*
G01*
X133832900Y-66147500D02*
G75*
G02*
X134336900Y-66147500I252000J0D01*
G01*
D15*
%TO.C,C1*%
X153823037Y-79554845D02*
X153823037Y-79273685D01*
X154843037Y-79554845D02*
X154843037Y-79273685D01*
%TO.C,TP1*%
X141708275Y-87276212D02*
G75*
G02*
X140308275Y-87276212I-700000J0D01*
G01*
X140308275Y-87276212D02*
G75*
G02*
X141708275Y-87276212I700000J0D01*
G01*
%TO.C,C2*%
X158013202Y-76400052D02*
X158294362Y-76400052D01*
X158013202Y-77420052D02*
X158294362Y-77420052D01*
%TO.C,TP17*%
X155033075Y-82169007D02*
G75*
G02*
X153633075Y-82169007I-700000J0D01*
G01*
X153633075Y-82169007D02*
G75*
G02*
X155033075Y-82169007I700000J0D01*
G01*
%TO.C,TP18*%
X161349673Y-82192994D02*
G75*
G02*
X159949673Y-82192994I-700000J0D01*
G01*
X159949673Y-82192994D02*
G75*
G02*
X161349673Y-82192994I700000J0D01*
G01*
D16*
%TO.C,LS1*%
X133898955Y-91178269D02*
X133898955Y-94859389D01*
X136033495Y-96993929D02*
X139714615Y-96993929D01*
X139714615Y-89043729D02*
X136033495Y-89043729D01*
X141849155Y-94859389D02*
X141849155Y-91178269D01*
D19*
X133386815Y-90304476D02*
G75*
G02*
X133386815Y-89583180I-122861J360648D01*
G01*
D15*
%TO.C,U7*%
X142665412Y-86548331D02*
X142665412Y-92668331D01*
X142665412Y-92668331D02*
X147385412Y-92668331D01*
X143275412Y-87158331D02*
X143275412Y-92058331D01*
X143275412Y-89508331D02*
X143775412Y-89508331D01*
X143275412Y-89608331D02*
X143775412Y-89608331D01*
X143275412Y-92058331D02*
X146775412Y-92058331D01*
X143775412Y-89508331D02*
X143775412Y-89708331D01*
X143775412Y-89708331D02*
X143275412Y-89708331D01*
X144775412Y-86548331D02*
X144775412Y-87158331D01*
X144775412Y-92668331D02*
X144775412Y-92058331D01*
X146075412Y-86548331D02*
X146075412Y-87158331D01*
X146075412Y-92668331D02*
X146075412Y-92058331D01*
X146775412Y-87158331D02*
X143275412Y-87158331D01*
X146775412Y-89108331D02*
X146775412Y-87158331D01*
X146775412Y-90108331D02*
X147385412Y-90108331D01*
X146775412Y-92058331D02*
X146775412Y-90108331D01*
X147385412Y-86548331D02*
X142665412Y-86548331D01*
X147385412Y-88308331D02*
X147585412Y-88308331D01*
X147385412Y-89108331D02*
X146775412Y-89108331D01*
X147385412Y-92668331D02*
X147385412Y-86548331D01*
X147485412Y-88308331D02*
X147485412Y-88008331D01*
X147585412Y-88008331D02*
X147385412Y-88008331D01*
X147585412Y-88308331D02*
X147585412Y-88008331D01*
X147685412Y-86248331D02*
X146435412Y-86248331D01*
X147685412Y-87498331D02*
X147685412Y-86248331D01*
%TO.C,R1*%
X152225242Y-94427500D02*
X152699758Y-94427500D01*
X152225242Y-95472500D02*
X152699758Y-95472500D01*
D16*
%TO.C,U3*%
X158550500Y-98696500D02*
G75*
G02*
X158296500Y-98696500I-127000J0D01*
G01*
X158296500Y-98696500D02*
G75*
G02*
X158550500Y-98696500I127000J0D01*
G01*
X157928200Y-96242860D02*
X157928200Y-95562140D01*
X157928200Y-94251500D02*
X156277200Y-94251500D01*
X156277200Y-97553500D02*
X157928200Y-97553500D01*
X156277200Y-96514640D02*
X156277200Y-97553500D01*
X156277200Y-94251500D02*
X156277200Y-95290360D01*
%TD*%
M02*
