%TF.GenerationSoftware,KiCad,Pcbnew,8.0.6*%
%TF.CreationDate,2024-11-21T01:25:50-08:00*%
%TF.ProjectId,LED20,4c454432-302e-46b6-9963-61645f706362,2*%
%TF.SameCoordinates,Original*%
%TF.FileFunction,Copper,L2,Bot*%
%TF.FilePolarity,Positive*%
%FSLAX46Y46*%
G04 Gerber Fmt 4.6, Leading zero omitted, Abs format (unit mm)*
G04 Created by KiCad (PCBNEW 8.0.6) date 2024-11-21 01:25:50*
%MOMM*%
%LPD*%
G01*
G04 APERTURE LIST*
G04 Aperture macros list*
%AMRoundRect*
0 Rectangle with rounded corners*
0 $1 Rounding radius*
0 $2 $3 $4 $5 $6 $7 $8 $9 X,Y pos of 4 corners*
0 Add a 4 corners polygon primitive as box body*
4,1,4,$2,$3,$4,$5,$6,$7,$8,$9,$2,$3,0*
0 Add four circle primitives for the rounded corners*
1,1,$1+$1,$2,$3*
1,1,$1+$1,$4,$5*
1,1,$1+$1,$6,$7*
1,1,$1+$1,$8,$9*
0 Add four rect primitives between the rounded corners*
20,1,$1+$1,$2,$3,$4,$5,0*
20,1,$1+$1,$4,$5,$6,$7,0*
20,1,$1+$1,$6,$7,$8,$9,0*
20,1,$1+$1,$8,$9,$2,$3,0*%
G04 Aperture macros list end*
%TA.AperFunction,ComponentPad*%
%ADD10RoundRect,0.250000X-0.625000X0.350000X-0.625000X-0.350000X0.625000X-0.350000X0.625000X0.350000X0*%
%TD*%
%TA.AperFunction,ComponentPad*%
%ADD11O,1.750000X1.200000*%
%TD*%
%TA.AperFunction,SMDPad,CuDef*%
%ADD12C,1.000000*%
%TD*%
%TA.AperFunction,SMDPad,CuDef*%
%ADD13RoundRect,0.225000X-0.250000X0.225000X-0.250000X-0.225000X0.250000X-0.225000X0.250000X0.225000X0*%
%TD*%
%TA.AperFunction,SMDPad,CuDef*%
%ADD14R,0.576580X0.351536*%
%TD*%
%TA.AperFunction,SMDPad,CuDef*%
%ADD15R,0.351536X0.576580*%
%TD*%
%TA.AperFunction,SMDPad,CuDef*%
%ADD16RoundRect,0.225000X0.225000X0.250000X-0.225000X0.250000X-0.225000X-0.250000X0.225000X-0.250000X0*%
%TD*%
%TA.AperFunction,ViaPad*%
%ADD17C,0.600000*%
%TD*%
%TA.AperFunction,Conductor*%
%ADD18C,0.304800*%
%TD*%
%TA.AperFunction,Conductor*%
%ADD19C,0.200000*%
%TD*%
%TA.AperFunction,Conductor*%
%ADD20C,0.203200*%
%TD*%
G04 APERTURE END LIST*
D10*
%TO.P,U6,1,1*%
%TO.N,+5V IN*%
X151155921Y-88608331D03*
D11*
%TO.P,U6,2,2*%
%TO.N,GND*%
X151155921Y-90608331D03*
%TD*%
D10*
%TO.P,D1,1,VDD*%
%TO.N,+5V*%
X156733847Y-86611446D03*
D11*
%TO.P,D1,2,DIN*%
%TO.N,3.3V Data (D4)*%
X156733847Y-88611446D03*
%TO.P,D1,3,VSS*%
%TO.N,GND*%
X156733847Y-90611446D03*
%TD*%
D10*
%TO.P,U7,1,1*%
%TO.N,VBATT*%
X145575412Y-88608331D03*
D11*
%TO.P,U7,2,2*%
%TO.N,GND*%
X145575412Y-90608331D03*
%TD*%
D12*
%TO.P,TP10,1,1*%
%TO.N,Net-(U1-INT2)*%
X160680206Y-73216858D03*
%TD*%
%TO.P,TP15,1,1*%
%TO.N,unconnected-(TP15-Pad1)*%
X133558215Y-64181695D03*
%TD*%
%TO.P,TP16,1,1*%
%TO.N,unconnected-(TP16-Pad1)*%
X136473277Y-64192789D03*
%TD*%
D13*
%TO.P,C5,1*%
%TO.N,GND*%
X160950275Y-68271751D03*
%TO.P,C5,2*%
%TO.N,3.3V*%
X160950275Y-69821751D03*
%TD*%
D14*
%TO.P,U1,1,SDO/SA0*%
%TO.N,Net-(U1-SDO{slash}SA0)*%
X156639353Y-69942353D03*
%TO.P,U1,2,SDx*%
%TO.N,3.3V*%
X156639353Y-69442352D03*
%TO.P,U1,3,SCx*%
X156639353Y-68942352D03*
%TO.P,U1,4,INT1*%
%TO.N,Net-(U1-INT1)*%
X156639353Y-68442351D03*
D15*
%TO.P,U1,5,VDDIO*%
%TO.N,3.3V*%
X157349654Y-68236052D03*
%TO.P,U1,6,GND*%
%TO.N,GND*%
X157849653Y-68236052D03*
%TO.P,U1,7,GND*%
X158349652Y-68236052D03*
D14*
%TO.P,U1,8,VDD*%
%TO.N,3.3V*%
X159059953Y-68442351D03*
%TO.P,U1,9,INT2*%
%TO.N,Net-(U1-INT2)*%
X159059953Y-68942352D03*
%TO.P,U1,10,NC*%
%TO.N,unconnected-(U1-NC-Pad10)*%
X159059953Y-69442352D03*
%TO.P,U1,11,NC*%
%TO.N,unconnected-(U1-NC-Pad11)*%
X159059953Y-69942353D03*
D15*
%TO.P,U1,12,CS*%
%TO.N,Net-(U1-CS)*%
X158349652Y-70148652D03*
%TO.P,U1,13,SCL*%
%TO.N,Net-(U1-SCL)*%
X157849653Y-70148652D03*
%TO.P,U1,14,SDA*%
%TO.N,Net-(U1-SDA)*%
X157349654Y-70148652D03*
%TD*%
D12*
%TO.P,TP7,1,1*%
%TO.N,Net-(U1-CS)*%
X159140756Y-74664675D03*
%TD*%
%TO.P,TP13,1,1*%
%TO.N,unconnected-(TP13-Pad1)*%
X151857879Y-66189222D03*
%TD*%
%TO.P,TP14,1,1*%
%TO.N,unconnected-(TP14-Pad1)*%
X151241689Y-64264802D03*
%TD*%
%TO.P,TP4,1,1*%
%TO.N,Net-(U1-SDA)*%
X156608313Y-73814663D03*
%TD*%
%TO.P,TP6,1,1*%
%TO.N,Net-(U1-SCL)*%
X158430138Y-71791608D03*
%TD*%
D16*
%TO.P,C4,2*%
%TO.N,3.3V*%
X158417930Y-66285353D03*
%TO.P,C4,1*%
%TO.N,GND*%
X159967930Y-66285353D03*
%TD*%
D17*
%TO.N,3.3V*%
X147632858Y-72883326D03*
%TO.N,GND*%
X158349652Y-67484429D03*
%TO.N,3.3V*%
X157349654Y-67353629D03*
%TO.N,Net-(U1-SDA)*%
X156608313Y-73814663D03*
%TO.N,Net-(U1-CS)*%
X159140756Y-74664675D03*
%TO.N,Net-(U1-SCL)*%
X158430138Y-71791608D03*
%TO.N,VBATT*%
X141008275Y-87276212D03*
%TO.N,Net-(U2-C+)*%
X154333075Y-82169007D03*
%TO.N,+5V*%
X160649673Y-82192994D03*
%TO.N,GND*%
X160637500Y-93450000D03*
X161174315Y-75882805D03*
X160899645Y-64735493D03*
X152647063Y-64284093D03*
X147637500Y-80450000D03*
X137637500Y-66450000D03*
X138991771Y-89796948D03*
X147637500Y-71950000D03*
X157288203Y-82709760D03*
X139137500Y-78450000D03*
X144137500Y-83450000D03*
X142794572Y-96159296D03*
X137637500Y-94950000D03*
X144637500Y-76950000D03*
X145130972Y-80127771D03*
X138637500Y-71950000D03*
X141885839Y-70673188D03*
X138637500Y-84950000D03*
%TO.N,3.3V*%
X157880031Y-69166348D03*
%TO.N,3.3V Data (D4)*%
X136346242Y-78108587D03*
X160536654Y-88625189D03*
%TO.N,Net-(U1-SDA)*%
X152624770Y-75551500D03*
%TO.N,Net-(U1-SDO{slash}SA0)*%
X147874161Y-77851844D03*
%TO.N,Net-(U1-SCL)*%
X152543623Y-78757729D03*
%TO.N,Net-(U1-CS)*%
X152657837Y-81147595D03*
%TO.N,Net-(U1-INT2)*%
X160680206Y-71450000D03*
X160680206Y-73216858D03*
X136183121Y-73557121D03*
%TO.N,Net-(U1-INT1)*%
X136287163Y-70544233D03*
%TO.N,unconnected-(TP13-Pad1)*%
X151857879Y-66189222D03*
%TO.N,unconnected-(TP14-Pad1)*%
X151241689Y-64264802D03*
%TO.N,unconnected-(TP15-Pad1)*%
X133558215Y-64181695D03*
%TO.N,unconnected-(TP16-Pad1)*%
X136473277Y-64192789D03*
%TO.N,Net-(U3-COLLECTOR)*%
X154796611Y-97243389D03*
X142807619Y-94892129D03*
%TO.N,3.3V*%
X136493951Y-91556451D03*
X142809323Y-94001798D03*
%TO.N,GND*%
X159908708Y-67506138D03*
X152637500Y-70463206D03*
%TD*%
D18*
%TO.N,3.3V*%
X135932474Y-72885135D02*
X147631049Y-72885135D01*
X135530721Y-73286888D02*
X135932474Y-72885135D01*
X147631049Y-72885135D02*
X147632858Y-72883326D01*
X135530721Y-90593221D02*
X135530721Y-73286888D01*
X136493951Y-91556451D02*
X135530721Y-90593221D01*
%TO.N,GND*%
X158349652Y-67484429D02*
X158349652Y-68236052D01*
D19*
X160184662Y-67506138D02*
X160950275Y-68271751D01*
X159908708Y-66344575D02*
X159967930Y-66285353D01*
X159908708Y-67506138D02*
X160184662Y-67506138D01*
X159908708Y-67506138D02*
X159908708Y-66344575D01*
D18*
%TO.N,3.3V*%
X157349654Y-67353629D02*
X158417930Y-66285353D01*
D19*
X159059953Y-68442351D02*
X159059953Y-66927376D01*
X159059953Y-66927376D02*
X158417930Y-66285353D01*
D18*
%TO.N,Net-(U1-INT1)*%
X147312452Y-69187116D02*
X152652626Y-69187116D01*
X146258030Y-68132694D02*
X147312452Y-69187116D01*
X138698702Y-68132694D02*
X146258030Y-68132694D01*
X152652626Y-69187116D02*
X153397391Y-68442351D01*
X136287163Y-70544233D02*
X138698702Y-68132694D01*
D20*
%TO.N,3.3V*%
X157349654Y-68635971D02*
X157349654Y-68236052D01*
X157880031Y-69166348D02*
X157349654Y-68635971D01*
D18*
%TO.N,Net-(U1-INT2)*%
X160680206Y-74330701D02*
X160680206Y-73216858D01*
X136183121Y-73557121D02*
X146449900Y-83823900D01*
X151187007Y-83823900D02*
X160680206Y-74330701D01*
X146449900Y-83823900D02*
X151187007Y-83823900D01*
D19*
%TO.N,3.3V*%
X160950275Y-69702930D02*
X160950275Y-69821751D01*
X159689696Y-68442351D02*
X160950275Y-69702930D01*
X159059953Y-68442351D02*
X159689696Y-68442351D01*
%TO.N,Net-(U1-INT2)*%
X159759934Y-69078275D02*
X159759934Y-70529728D01*
X159624011Y-68942352D02*
X159759934Y-69078275D01*
X159759934Y-70529728D02*
X160680206Y-71450000D01*
X159059953Y-68942352D02*
X159624011Y-68942352D01*
%TO.N,3.3V*%
X160950275Y-69821751D02*
X160995277Y-69866753D01*
D18*
%TO.N,Net-(U3-COLLECTOR)*%
X145158879Y-97243389D02*
X142807619Y-94892129D01*
X154796611Y-97243389D02*
X145158879Y-97243389D01*
%TO.N,3.3V*%
X138887500Y-93950000D02*
X136493951Y-91556451D01*
X142757525Y-93950000D02*
X138887500Y-93950000D01*
X142809323Y-94001798D02*
X142757525Y-93950000D01*
%TO.N,Net-(U1-SDA)*%
X152624770Y-75551500D02*
X154871476Y-75551500D01*
X154871476Y-75551500D02*
X156608313Y-73814663D01*
%TO.N,Net-(U1-SDO{slash}SA0)*%
X152993064Y-74450000D02*
X155484764Y-71958300D01*
X148637500Y-74450000D02*
X152993064Y-74450000D01*
X147874161Y-77851844D02*
X147874161Y-75213339D01*
X147874161Y-75213339D02*
X148637500Y-74450000D01*
%TO.N,Net-(U1-SCL)*%
X153329771Y-78757729D02*
X158430138Y-73657362D01*
X158430138Y-73657362D02*
X158430138Y-71791608D01*
X152543623Y-78757729D02*
X153329771Y-78757729D01*
%TO.N,Net-(U1-CS)*%
X152657837Y-81147595D02*
X152657837Y-81147594D01*
X152657837Y-81147594D02*
X159140756Y-74664675D01*
%TO.N,3.3V Data (D4)*%
X160536654Y-86019264D02*
X160536654Y-88625189D01*
X140785920Y-85021520D02*
X159538910Y-85021520D01*
X159538910Y-85021520D02*
X160536654Y-86019264D01*
X136346242Y-80581842D02*
X140785920Y-85021520D01*
X136346242Y-78108587D02*
X136346242Y-80581842D01*
%TO.N,GND*%
X157849653Y-68236052D02*
X158349652Y-68236052D01*
D20*
%TO.N,3.3V*%
X156639353Y-68942352D02*
X157656035Y-68942352D01*
X157656035Y-68942352D02*
X157880031Y-69166348D01*
X156639353Y-68942352D02*
X156639353Y-69442352D01*
D18*
%TO.N,Net-(U1-SDA)*%
X157349654Y-73073322D02*
X157349654Y-70148652D01*
X156608313Y-73814663D02*
X157349654Y-73073322D01*
%TO.N,Net-(U1-SDO{slash}SA0)*%
X156639353Y-69942353D02*
X156639353Y-70803711D01*
X156639353Y-70803711D02*
X155484764Y-71958300D01*
%TO.N,Net-(U1-SCL)*%
X158430138Y-71791608D02*
X157849653Y-71211123D01*
X157849653Y-71211123D02*
X157849653Y-70148652D01*
%TO.N,Net-(U1-CS)*%
X159383131Y-74422300D02*
X159383131Y-71182131D01*
X159140756Y-74664675D02*
X159383131Y-74422300D01*
X159383131Y-71182131D02*
X158349652Y-70148652D01*
%TO.N,Net-(U1-INT1)*%
X156639353Y-68442351D02*
X153397391Y-68442351D01*
%TD*%
%TA.AperFunction,Conductor*%
%TO.N,GND*%
G36*
X132517312Y-63858567D02*
G01*
X132563067Y-63911371D01*
X132573011Y-63980529D01*
X132572247Y-63984985D01*
X132552874Y-64181695D01*
X132572190Y-64377824D01*
X132629403Y-64566428D01*
X132722301Y-64740227D01*
X132722305Y-64740234D01*
X132847331Y-64892578D01*
X132999675Y-65017604D01*
X132999682Y-65017608D01*
X133173481Y-65110506D01*
X133173484Y-65110506D01*
X133173488Y-65110509D01*
X133362083Y-65167719D01*
X133558215Y-65187036D01*
X133754347Y-65167719D01*
X133942942Y-65110509D01*
X133961266Y-65100715D01*
X134095992Y-65028702D01*
X134116753Y-65017605D01*
X134269098Y-64892578D01*
X134394125Y-64740233D01*
X134487029Y-64566422D01*
X134544239Y-64377827D01*
X134563556Y-64181695D01*
X134544239Y-63985563D01*
X134543642Y-63979501D01*
X134545230Y-63979344D01*
X134550769Y-63917478D01*
X134593633Y-63862302D01*
X134659524Y-63839060D01*
X134666157Y-63838882D01*
X135367919Y-63838882D01*
X135434958Y-63858567D01*
X135480713Y-63911371D01*
X135490657Y-63980529D01*
X135488402Y-63990674D01*
X135488441Y-63990682D01*
X135487253Y-63996652D01*
X135467936Y-64192789D01*
X135487252Y-64388918D01*
X135487253Y-64388921D01*
X135541099Y-64566428D01*
X135544465Y-64577522D01*
X135637363Y-64751321D01*
X135637367Y-64751328D01*
X135762393Y-64903672D01*
X135914737Y-65028698D01*
X135914744Y-65028702D01*
X136088543Y-65121600D01*
X136088546Y-65121600D01*
X136088550Y-65121603D01*
X136277145Y-65178813D01*
X136473277Y-65198130D01*
X136669409Y-65178813D01*
X136858004Y-65121603D01*
X136878760Y-65110509D01*
X136944909Y-65075151D01*
X137031815Y-65028699D01*
X137184160Y-64903672D01*
X137309187Y-64751327D01*
X137402091Y-64577516D01*
X137459301Y-64388921D01*
X137478618Y-64192789D01*
X137459301Y-63996657D01*
X137459300Y-63996654D01*
X137459300Y-63996652D01*
X137458113Y-63990682D01*
X137459899Y-63990326D01*
X137459349Y-63929017D01*
X137496594Y-63869902D01*
X137559886Y-63840308D01*
X137578635Y-63838882D01*
X150158176Y-63838882D01*
X150225215Y-63858567D01*
X150270970Y-63911371D01*
X150280914Y-63980529D01*
X150276836Y-63998878D01*
X150255665Y-64068667D01*
X150236348Y-64264802D01*
X150255664Y-64460931D01*
X150255665Y-64460934D01*
X150287666Y-64566428D01*
X150312877Y-64649535D01*
X150405775Y-64823334D01*
X150405779Y-64823341D01*
X150530805Y-64975685D01*
X150683149Y-65100711D01*
X150683156Y-65100715D01*
X150856955Y-65193613D01*
X150856958Y-65193613D01*
X150856962Y-65193616D01*
X151045557Y-65250826D01*
X151085724Y-65254782D01*
X151150511Y-65280943D01*
X151190870Y-65337977D01*
X151193987Y-65407777D01*
X151158873Y-65468182D01*
X151152240Y-65474034D01*
X151146996Y-65478337D01*
X151021969Y-65630682D01*
X151021965Y-65630689D01*
X150929067Y-65804488D01*
X150871854Y-65993092D01*
X150852538Y-66189222D01*
X150871854Y-66385351D01*
X150871855Y-66385354D01*
X150925749Y-66563019D01*
X150929067Y-66573955D01*
X151021965Y-66747754D01*
X151021969Y-66747761D01*
X151146995Y-66900105D01*
X151299339Y-67025131D01*
X151299346Y-67025135D01*
X151473145Y-67118033D01*
X151473148Y-67118033D01*
X151473152Y-67118036D01*
X151661747Y-67175246D01*
X151857879Y-67194563D01*
X152054011Y-67175246D01*
X152242606Y-67118036D01*
X152416417Y-67025132D01*
X152568762Y-66900105D01*
X152693789Y-66747760D01*
X152757888Y-66627839D01*
X152786690Y-66573955D01*
X152786690Y-66573954D01*
X152786693Y-66573949D01*
X152843903Y-66385354D01*
X152863220Y-66189222D01*
X152843903Y-65993090D01*
X152786693Y-65804495D01*
X152786690Y-65804491D01*
X152786690Y-65804488D01*
X152693792Y-65630689D01*
X152693788Y-65630682D01*
X152568762Y-65478338D01*
X152416418Y-65353312D01*
X152416411Y-65353308D01*
X152405822Y-65347648D01*
X153837000Y-65347648D01*
X153837000Y-65552351D01*
X153869022Y-65754534D01*
X153932281Y-65949223D01*
X154025215Y-66131613D01*
X154145528Y-66297213D01*
X154290286Y-66441971D01*
X154414667Y-66532337D01*
X154455890Y-66562287D01*
X154572107Y-66621503D01*
X154638276Y-66655218D01*
X154638278Y-66655218D01*
X154638281Y-66655220D01*
X154723653Y-66682959D01*
X154832965Y-66718477D01*
X154934057Y-66734488D01*
X155035148Y-66750500D01*
X155035149Y-66750500D01*
X155239851Y-66750500D01*
X155239852Y-66750500D01*
X155442034Y-66718477D01*
X155636719Y-66655220D01*
X155819110Y-66562287D01*
X155912090Y-66494732D01*
X155984713Y-66441971D01*
X155984715Y-66441968D01*
X155984719Y-66441966D01*
X156129466Y-66297219D01*
X156129468Y-66297215D01*
X156129471Y-66297213D01*
X156182232Y-66224590D01*
X156249787Y-66131610D01*
X156342720Y-65949219D01*
X156405977Y-65754534D01*
X156438000Y-65552352D01*
X156438000Y-65347648D01*
X156412561Y-65187035D01*
X156405977Y-65145465D01*
X156342718Y-64950776D01*
X156309003Y-64884607D01*
X156249787Y-64768390D01*
X156229326Y-64740227D01*
X156129471Y-64602786D01*
X155984713Y-64458028D01*
X155819113Y-64337715D01*
X155819112Y-64337714D01*
X155819110Y-64337713D01*
X155762153Y-64308691D01*
X155636723Y-64244781D01*
X155442034Y-64181522D01*
X155267495Y-64153878D01*
X155239852Y-64149500D01*
X155035148Y-64149500D01*
X155010829Y-64153351D01*
X154832965Y-64181522D01*
X154638276Y-64244781D01*
X154455886Y-64337715D01*
X154290286Y-64458028D01*
X154145528Y-64602786D01*
X154025215Y-64768386D01*
X153932281Y-64950776D01*
X153869022Y-65145465D01*
X153837000Y-65347648D01*
X152405822Y-65347648D01*
X152242612Y-65260410D01*
X152242606Y-65260408D01*
X152054011Y-65203198D01*
X152054008Y-65203197D01*
X152013841Y-65199241D01*
X151949054Y-65173079D01*
X151908696Y-65116044D01*
X151905580Y-65046244D01*
X151940696Y-64985839D01*
X151947330Y-64979986D01*
X151952572Y-64975685D01*
X152077599Y-64823340D01*
X152170503Y-64649529D01*
X152227713Y-64460934D01*
X152247030Y-64264802D01*
X152227713Y-64068670D01*
X152206542Y-63998878D01*
X152205918Y-63929011D01*
X152243166Y-63869898D01*
X152306460Y-63840307D01*
X152325202Y-63838882D01*
X161587822Y-63838882D01*
X161654861Y-63858567D01*
X161700616Y-63911371D01*
X161711822Y-63962882D01*
X161711822Y-67288279D01*
X161692137Y-67355318D01*
X161639333Y-67401073D01*
X161570175Y-67411017D01*
X161522728Y-67393820D01*
X161508761Y-67385206D01*
X161508756Y-67385203D01*
X161347881Y-67331895D01*
X161248597Y-67321751D01*
X161200275Y-67321751D01*
X161200275Y-68397751D01*
X161180590Y-68464790D01*
X161127786Y-68510545D01*
X161076275Y-68521751D01*
X160824275Y-68521751D01*
X160757236Y-68502066D01*
X160711481Y-68449262D01*
X160700275Y-68397751D01*
X160700275Y-67321751D01*
X160687417Y-67308894D01*
X160664160Y-67302065D01*
X160618405Y-67249261D01*
X160608461Y-67180103D01*
X160637486Y-67116547D01*
X160643518Y-67110068D01*
X160765506Y-66988080D01*
X160854472Y-66843845D01*
X160854477Y-66843834D01*
X160907785Y-66682959D01*
X160917929Y-66583675D01*
X160917930Y-66583662D01*
X160917930Y-66535353D01*
X160217930Y-66535353D01*
X160217930Y-67260352D01*
X160251968Y-67294390D01*
X160285453Y-67355713D01*
X160280469Y-67425405D01*
X160251969Y-67469752D01*
X160127699Y-67594022D01*
X160038732Y-67738258D01*
X160038728Y-67738267D01*
X160021985Y-67788795D01*
X159982212Y-67846239D01*
X159917696Y-67873062D01*
X159872186Y-67869565D01*
X159768753Y-67841850D01*
X159768264Y-67841786D01*
X159767882Y-67841617D01*
X159760903Y-67839747D01*
X159761194Y-67838658D01*
X159704368Y-67813517D01*
X159665899Y-67755191D01*
X159660453Y-67718847D01*
X159660453Y-67369192D01*
X159680138Y-67302153D01*
X159696770Y-67281512D01*
X159717930Y-67260351D01*
X159717930Y-66035353D01*
X160217930Y-66035353D01*
X160917929Y-66035353D01*
X160917929Y-65987045D01*
X160917928Y-65987028D01*
X160907785Y-65887745D01*
X160854477Y-65726871D01*
X160854472Y-65726860D01*
X160765505Y-65582624D01*
X160765502Y-65582620D01*
X160645662Y-65462780D01*
X160645658Y-65462777D01*
X160501422Y-65373810D01*
X160501411Y-65373805D01*
X160340536Y-65320497D01*
X160241252Y-65310353D01*
X160217930Y-65310353D01*
X160217930Y-66035353D01*
X159717930Y-66035353D01*
X159717930Y-65310352D01*
X159694623Y-65310353D01*
X159694604Y-65310354D01*
X159595322Y-65320497D01*
X159434448Y-65373805D01*
X159434437Y-65373810D01*
X159290201Y-65462777D01*
X159290195Y-65462781D01*
X159280961Y-65472016D01*
X159219637Y-65505499D01*
X159149945Y-65500512D01*
X159105602Y-65472013D01*
X159095974Y-65462385D01*
X159095970Y-65462382D01*
X158951635Y-65373354D01*
X158951629Y-65373351D01*
X158951627Y-65373350D01*
X158874063Y-65347648D01*
X158790639Y-65320004D01*
X158691276Y-65309853D01*
X158144592Y-65309853D01*
X158144574Y-65309854D01*
X158045222Y-65320003D01*
X158045219Y-65320004D01*
X157884235Y-65373349D01*
X157884224Y-65373354D01*
X157739889Y-65462382D01*
X157739885Y-65462385D01*
X157619962Y-65582308D01*
X157619959Y-65582312D01*
X157530931Y-65726647D01*
X157530926Y-65726658D01*
X157477581Y-65887643D01*
X157467430Y-65987000D01*
X157467430Y-66261149D01*
X157447745Y-66328188D01*
X157431111Y-66348830D01*
X157247604Y-66532337D01*
X157186281Y-66565822D01*
X157173810Y-66567876D01*
X157170403Y-66568259D01*
X157000132Y-66627839D01*
X156847391Y-66723813D01*
X156719838Y-66851366D01*
X156623865Y-67004105D01*
X156564285Y-67174374D01*
X156564284Y-67174379D01*
X156544089Y-67353625D01*
X156544089Y-67353632D01*
X156564284Y-67532878D01*
X156564286Y-67532886D01*
X156588165Y-67601129D01*
X156591726Y-67670908D01*
X156556997Y-67731535D01*
X156495003Y-67763762D01*
X156471124Y-67766083D01*
X156303193Y-67766083D01*
X156303186Y-67766084D01*
X156243581Y-67772491D01*
X156228530Y-67778105D01*
X156219070Y-67781633D01*
X156175739Y-67789451D01*
X153333084Y-67789451D01*
X153206952Y-67814540D01*
X153206946Y-67814542D01*
X153107122Y-67855891D01*
X153107121Y-67855891D01*
X153088129Y-67863757D01*
X152981189Y-67935211D01*
X152981186Y-67935214D01*
X152418504Y-68497897D01*
X152357181Y-68531382D01*
X152330823Y-68534216D01*
X147634254Y-68534216D01*
X147567215Y-68514531D01*
X147546573Y-68497897D01*
X146674235Y-67625557D01*
X146674234Y-67625556D01*
X146637676Y-67601129D01*
X146567294Y-67554102D01*
X146516069Y-67532884D01*
X146448474Y-67504885D01*
X146448472Y-67504884D01*
X146445026Y-67504199D01*
X146443854Y-67503966D01*
X146322337Y-67479794D01*
X146322335Y-67479794D01*
X138634397Y-67479794D01*
X138634395Y-67479794D01*
X138512878Y-67503966D01*
X138511936Y-67504153D01*
X138508259Y-67504884D01*
X138508257Y-67504885D01*
X138389439Y-67554101D01*
X138282499Y-67625555D01*
X136185113Y-69722941D01*
X136123790Y-69756426D01*
X136111319Y-69758480D01*
X136107912Y-69758863D01*
X135937641Y-69818443D01*
X135784900Y-69914417D01*
X135657347Y-70041970D01*
X135561374Y-70194709D01*
X135501794Y-70364978D01*
X135501793Y-70364983D01*
X135481598Y-70544229D01*
X135481598Y-70544236D01*
X135501793Y-70723482D01*
X135501794Y-70723487D01*
X135561374Y-70893756D01*
X135657347Y-71046495D01*
X135784901Y-71174049D01*
X135937641Y-71270022D01*
X136107908Y-71329601D01*
X136107913Y-71329602D01*
X136287159Y-71349798D01*
X136287163Y-71349798D01*
X136287167Y-71349798D01*
X136466412Y-71329602D01*
X136466415Y-71329601D01*
X136466418Y-71329601D01*
X136636685Y-71270022D01*
X136789425Y-71174049D01*
X136916979Y-71046495D01*
X137012952Y-70893755D01*
X137072531Y-70723488D01*
X137072914Y-70720083D01*
X137073775Y-70718033D01*
X137074080Y-70716701D01*
X137074313Y-70716754D01*
X137099976Y-70655670D01*
X137108444Y-70646290D01*
X138932823Y-68821913D01*
X138994146Y-68788428D01*
X139020504Y-68785594D01*
X145936227Y-68785594D01*
X146003266Y-68805279D01*
X146023908Y-68821913D01*
X146896250Y-69694255D01*
X146968746Y-69742695D01*
X147003181Y-69765704D01*
X147003187Y-69765707D01*
X147003188Y-69765708D01*
X147122008Y-69814925D01*
X147122012Y-69814925D01*
X147122013Y-69814926D01*
X147248144Y-69840016D01*
X147248147Y-69840016D01*
X152716933Y-69840016D01*
X152825384Y-69818443D01*
X152843070Y-69814925D01*
X152961890Y-69765708D01*
X152968744Y-69761128D01*
X152982543Y-69751909D01*
X153039934Y-69713561D01*
X153068826Y-69694257D01*
X153631512Y-69131569D01*
X153692835Y-69098085D01*
X153719193Y-69095251D01*
X155726563Y-69095251D01*
X155793602Y-69114936D01*
X155839357Y-69167740D01*
X155850563Y-69219251D01*
X155850563Y-69665989D01*
X155850564Y-69666003D01*
X155851972Y-69679097D01*
X155851972Y-69705598D01*
X155850563Y-69718702D01*
X155850563Y-70165991D01*
X155850564Y-70165997D01*
X155856971Y-70225604D01*
X155907265Y-70360448D01*
X155907266Y-70360449D01*
X155907267Y-70360452D01*
X155950763Y-70418555D01*
X155975180Y-70484015D01*
X155960329Y-70552289D01*
X155939177Y-70580545D01*
X154977623Y-71542100D01*
X152758942Y-73760781D01*
X152697619Y-73794266D01*
X152671261Y-73797100D01*
X148573193Y-73797100D01*
X148447061Y-73822189D01*
X148447055Y-73822191D01*
X148328237Y-73871407D01*
X148221297Y-73942861D01*
X148221296Y-73942862D01*
X147367024Y-74797133D01*
X147367018Y-74797140D01*
X147320875Y-74866199D01*
X147320876Y-74866200D01*
X147295568Y-74904076D01*
X147246352Y-75022894D01*
X147246350Y-75022900D01*
X147221261Y-75149031D01*
X147221261Y-77350595D01*
X147202255Y-77416566D01*
X147148370Y-77502323D01*
X147088794Y-77672581D01*
X147088791Y-77672594D01*
X147068596Y-77851840D01*
X147068596Y-77851847D01*
X147088791Y-78031093D01*
X147088792Y-78031098D01*
X147148372Y-78201367D01*
X147244345Y-78354106D01*
X147371899Y-78481660D01*
X147462241Y-78538426D01*
X147519033Y-78574111D01*
X147524639Y-78577633D01*
X147616667Y-78609835D01*
X147694906Y-78637212D01*
X147694911Y-78637213D01*
X147874157Y-78657409D01*
X147874161Y-78657409D01*
X147874165Y-78657409D01*
X148053410Y-78637213D01*
X148053413Y-78637212D01*
X148053416Y-78637212D01*
X148223683Y-78577633D01*
X148376423Y-78481660D01*
X148503977Y-78354106D01*
X148599950Y-78201366D01*
X148659529Y-78031099D01*
X148666147Y-77972361D01*
X148679726Y-77851847D01*
X148679726Y-77851840D01*
X148659530Y-77672594D01*
X148659527Y-77672581D01*
X148599951Y-77502323D01*
X148546067Y-77416566D01*
X148527061Y-77350595D01*
X148527061Y-75535141D01*
X148546746Y-75468102D01*
X148563380Y-75447460D01*
X148871621Y-75139219D01*
X148932944Y-75105734D01*
X148959302Y-75102900D01*
X151758888Y-75102900D01*
X151825927Y-75122585D01*
X151871682Y-75175389D01*
X151881626Y-75244547D01*
X151875929Y-75267855D01*
X151839403Y-75372237D01*
X151839400Y-75372250D01*
X151819205Y-75551496D01*
X151819205Y-75551503D01*
X151839400Y-75730749D01*
X151839401Y-75730754D01*
X151898981Y-75901023D01*
X151994954Y-76053762D01*
X152122508Y-76181316D01*
X152275248Y-76277289D01*
X152445515Y-76336868D01*
X152445520Y-76336869D01*
X152624766Y-76357065D01*
X152624770Y-76357065D01*
X152624774Y-76357065D01*
X152804019Y-76336869D01*
X152804022Y-76336868D01*
X152804025Y-76336868D01*
X152974292Y-76277289D01*
X153060046Y-76223405D01*
X153126018Y-76204400D01*
X154660396Y-76204400D01*
X154727435Y-76224085D01*
X154773190Y-76276889D01*
X154783134Y-76346047D01*
X154754109Y-76409603D01*
X154748077Y-76416081D01*
X153109889Y-78054269D01*
X153048566Y-78087754D01*
X152978874Y-78082770D01*
X152956236Y-78071582D01*
X152893146Y-78031940D01*
X152722877Y-77972360D01*
X152722872Y-77972359D01*
X152543627Y-77952164D01*
X152543619Y-77952164D01*
X152364373Y-77972359D01*
X152364368Y-77972360D01*
X152194099Y-78031940D01*
X152041360Y-78127913D01*
X151913807Y-78255466D01*
X151817834Y-78408205D01*
X151758254Y-78578474D01*
X151758253Y-78578479D01*
X151738058Y-78757725D01*
X151738058Y-78757732D01*
X151758253Y-78936978D01*
X151758254Y-78936983D01*
X151817834Y-79107252D01*
X151913807Y-79259991D01*
X152041361Y-79387545D01*
X152194101Y-79483518D01*
X152364368Y-79543097D01*
X152364373Y-79543098D01*
X152543619Y-79563294D01*
X152543623Y-79563294D01*
X152543627Y-79563294D01*
X152722872Y-79543098D01*
X152722875Y-79543097D01*
X152722878Y-79543097D01*
X152893145Y-79483518D01*
X152978899Y-79429634D01*
X153044871Y-79410629D01*
X153172098Y-79410629D01*
X153239137Y-79430314D01*
X153284892Y-79483118D01*
X153294836Y-79552276D01*
X153265811Y-79615832D01*
X153259779Y-79622310D01*
X152555785Y-80326303D01*
X152494462Y-80359788D01*
X152481994Y-80361842D01*
X152478586Y-80362226D01*
X152478583Y-80362226D01*
X152478582Y-80362227D01*
X152429966Y-80379238D01*
X152308315Y-80421805D01*
X152155574Y-80517779D01*
X152028021Y-80645332D01*
X151932048Y-80798071D01*
X151872468Y-80968340D01*
X151872467Y-80968345D01*
X151852272Y-81147591D01*
X151852272Y-81147598D01*
X151872467Y-81326844D01*
X151872468Y-81326849D01*
X151932048Y-81497118D01*
X152028021Y-81649857D01*
X152145184Y-81767020D01*
X152178669Y-81828343D01*
X152173685Y-81898035D01*
X152145184Y-81942382D01*
X150952885Y-83134681D01*
X150891562Y-83168166D01*
X150865204Y-83171000D01*
X146771702Y-83171000D01*
X146704663Y-83151315D01*
X146684021Y-83134681D01*
X137299057Y-73749716D01*
X137265572Y-73688393D01*
X137270556Y-73618701D01*
X137312428Y-73562768D01*
X137377892Y-73538351D01*
X137386738Y-73538035D01*
X147134489Y-73538035D01*
X147200460Y-73557040D01*
X147283336Y-73609115D01*
X147453603Y-73668694D01*
X147453608Y-73668695D01*
X147632854Y-73688891D01*
X147632858Y-73688891D01*
X147632862Y-73688891D01*
X147812107Y-73668695D01*
X147812110Y-73668694D01*
X147812113Y-73668694D01*
X147982380Y-73609115D01*
X148135120Y-73513142D01*
X148262674Y-73385588D01*
X148358647Y-73232848D01*
X148418226Y-73062581D01*
X148427798Y-72977626D01*
X148438423Y-72883329D01*
X148438423Y-72883322D01*
X148418227Y-72704076D01*
X148418226Y-72704071D01*
X148358646Y-72533802D01*
X148262673Y-72381063D01*
X148135120Y-72253510D01*
X147982381Y-72157537D01*
X147812112Y-72097957D01*
X147812107Y-72097956D01*
X147632862Y-72077761D01*
X147632854Y-72077761D01*
X147453608Y-72097956D01*
X147453603Y-72097957D01*
X147283335Y-72157537D01*
X147194703Y-72213229D01*
X147128731Y-72232235D01*
X135868167Y-72232235D01*
X135742031Y-72257325D01*
X135742027Y-72257326D01*
X135692814Y-72277710D01*
X135692814Y-72277711D01*
X135674634Y-72285241D01*
X135623213Y-72306540D01*
X135623204Y-72306545D01*
X135516275Y-72377993D01*
X135516271Y-72377996D01*
X135023581Y-72870685D01*
X135023577Y-72870689D01*
X134970962Y-72949438D01*
X134970960Y-72949441D01*
X134952133Y-72977616D01*
X134952127Y-72977626D01*
X134902912Y-73096443D01*
X134902910Y-73096449D01*
X134877821Y-73222580D01*
X134877821Y-90657528D01*
X134878475Y-90660816D01*
X134896392Y-90750886D01*
X134902912Y-90783665D01*
X134952129Y-90902485D01*
X135006148Y-90983331D01*
X135023583Y-91009425D01*
X135023584Y-91009426D01*
X135672659Y-91658500D01*
X135706144Y-91719823D01*
X135708197Y-91732285D01*
X135708582Y-91735699D01*
X135708583Y-91735706D01*
X135768161Y-91905972D01*
X135768162Y-91905973D01*
X135864135Y-92058713D01*
X135991689Y-92186267D01*
X136144429Y-92282240D01*
X136314696Y-92341819D01*
X136318098Y-92342202D01*
X136320147Y-92343062D01*
X136321484Y-92343368D01*
X136321430Y-92343602D01*
X136382513Y-92369265D01*
X136391902Y-92377742D01*
X138471296Y-94457137D01*
X138471297Y-94457138D01*
X138471300Y-94457140D01*
X138541521Y-94504060D01*
X138578236Y-94528592D01*
X138697056Y-94577809D01*
X138697060Y-94577809D01*
X138697061Y-94577810D01*
X138823192Y-94602900D01*
X138823195Y-94602900D01*
X141895886Y-94602900D01*
X141962925Y-94622585D01*
X142008680Y-94675389D01*
X142019106Y-94740783D01*
X142002054Y-94892125D01*
X142002054Y-94892132D01*
X142022249Y-95071378D01*
X142022250Y-95071383D01*
X142081830Y-95241652D01*
X142177803Y-95394391D01*
X142305357Y-95521945D01*
X142458097Y-95617918D01*
X142628364Y-95677497D01*
X142631766Y-95677880D01*
X142633815Y-95678740D01*
X142635152Y-95679046D01*
X142635098Y-95679280D01*
X142696181Y-95704943D01*
X142705570Y-95713420D01*
X144618350Y-97626201D01*
X144651835Y-97687524D01*
X144646851Y-97757216D01*
X144604979Y-97813149D01*
X144539515Y-97837566D01*
X144530669Y-97837882D01*
X132116915Y-97837882D01*
X132049876Y-97818197D01*
X132004121Y-97765393D01*
X131992915Y-97713882D01*
X131992915Y-63962882D01*
X132012600Y-63895843D01*
X132065404Y-63850088D01*
X132116915Y-63838882D01*
X132450273Y-63838882D01*
X132517312Y-63858567D01*
G37*
%TD.AperFunction*%
%TA.AperFunction,Conductor*%
G36*
X161679328Y-73799802D02*
G01*
X161710044Y-73862558D01*
X161711822Y-73883484D01*
X161711822Y-97713882D01*
X161692137Y-97780921D01*
X161639333Y-97826676D01*
X161587822Y-97837882D01*
X155592836Y-97837882D01*
X155525797Y-97818197D01*
X155480042Y-97765393D01*
X155470098Y-97696235D01*
X155487842Y-97647910D01*
X155522399Y-97592912D01*
X155522400Y-97592911D01*
X155581979Y-97422644D01*
X155602176Y-97243389D01*
X155581979Y-97064134D01*
X155522400Y-96893867D01*
X155426427Y-96741127D01*
X155298873Y-96613573D01*
X155262135Y-96590489D01*
X155146134Y-96517600D01*
X154975865Y-96458020D01*
X154975860Y-96458019D01*
X154796615Y-96437824D01*
X154796607Y-96437824D01*
X154617361Y-96458019D01*
X154617356Y-96458020D01*
X154447088Y-96517600D01*
X154388888Y-96554170D01*
X154362416Y-96570804D01*
X154361335Y-96571483D01*
X154295363Y-96590489D01*
X145480681Y-96590489D01*
X145413642Y-96570804D01*
X145393000Y-96554170D01*
X143628910Y-94790080D01*
X143595425Y-94728757D01*
X143593370Y-94716276D01*
X143592987Y-94712874D01*
X143533408Y-94542607D01*
X143515616Y-94514291D01*
X143496616Y-94447055D01*
X143515617Y-94382346D01*
X143535111Y-94351322D01*
X143594691Y-94181052D01*
X143594692Y-94181047D01*
X143614888Y-94001801D01*
X143614888Y-94001794D01*
X143594692Y-93822548D01*
X143594691Y-93822543D01*
X143535111Y-93652274D01*
X143439138Y-93499535D01*
X143311585Y-93371982D01*
X143158846Y-93276009D01*
X142988577Y-93216429D01*
X142988572Y-93216428D01*
X142809327Y-93196233D01*
X142809319Y-93196233D01*
X142630073Y-93216428D01*
X142630068Y-93216429D01*
X142459800Y-93276009D01*
X142456481Y-93278095D01*
X142453958Y-93278821D01*
X142453528Y-93279029D01*
X142453492Y-93278955D01*
X142390510Y-93297100D01*
X139209302Y-93297100D01*
X139142263Y-93277415D01*
X139121621Y-93260781D01*
X137315242Y-91454402D01*
X137281757Y-91393079D01*
X137279702Y-91380598D01*
X137279319Y-91377196D01*
X137219740Y-91206929D01*
X137123767Y-91054189D01*
X136996213Y-90926635D01*
X136957775Y-90902483D01*
X136843472Y-90830661D01*
X136673206Y-90771083D01*
X136673199Y-90771082D01*
X136669785Y-90770697D01*
X136667732Y-90769834D01*
X136666417Y-90769534D01*
X136666469Y-90769303D01*
X136605373Y-90743623D01*
X136596000Y-90735159D01*
X136219940Y-90359099D01*
X136186455Y-90297776D01*
X136183621Y-90271418D01*
X136183621Y-88208314D01*
X144199912Y-88208314D01*
X144199912Y-89008332D01*
X144199913Y-89008350D01*
X144210412Y-89111127D01*
X144210413Y-89111130D01*
X144235963Y-89188234D01*
X144265598Y-89277665D01*
X144357700Y-89426987D01*
X144481756Y-89551043D01*
X144546393Y-89590911D01*
X144593117Y-89642857D01*
X144604340Y-89711820D01*
X144576497Y-89775902D01*
X144568978Y-89784130D01*
X144461376Y-89891732D01*
X144359607Y-90031806D01*
X144281003Y-90186075D01*
X144227497Y-90350746D01*
X144226296Y-90358330D01*
X144226297Y-90358331D01*
X145295082Y-90358331D01*
X145275337Y-90378076D01*
X145225968Y-90463586D01*
X145200412Y-90558961D01*
X145200412Y-90657701D01*
X145225968Y-90753076D01*
X145275337Y-90838586D01*
X145295082Y-90858331D01*
X144226297Y-90858331D01*
X144227497Y-90865915D01*
X144281003Y-91030586D01*
X144359607Y-91184855D01*
X144461379Y-91324933D01*
X144583809Y-91447363D01*
X144723887Y-91549135D01*
X144878154Y-91627739D01*
X145042827Y-91681245D01*
X145213841Y-91708331D01*
X145325412Y-91708331D01*
X145325412Y-90888661D01*
X145345157Y-90908406D01*
X145430667Y-90957775D01*
X145526042Y-90983331D01*
X145624782Y-90983331D01*
X145720157Y-90957775D01*
X145805667Y-90908406D01*
X145825412Y-90888661D01*
X145825412Y-91708331D01*
X145936983Y-91708331D01*
X146107996Y-91681245D01*
X146272669Y-91627739D01*
X146426936Y-91549135D01*
X146567014Y-91447363D01*
X146689444Y-91324933D01*
X146791216Y-91184855D01*
X146869820Y-91030586D01*
X146923326Y-90865915D01*
X146924527Y-90858331D01*
X145855742Y-90858331D01*
X145875487Y-90838586D01*
X145924856Y-90753076D01*
X145950412Y-90657701D01*
X145950412Y-90558961D01*
X145924856Y-90463586D01*
X145875487Y-90378076D01*
X145855742Y-90358331D01*
X146924527Y-90358331D01*
X146924527Y-90358330D01*
X146923326Y-90350746D01*
X146869820Y-90186075D01*
X146791216Y-90031806D01*
X146689444Y-89891728D01*
X146581846Y-89784130D01*
X146548361Y-89722807D01*
X146553345Y-89653115D01*
X146595217Y-89597182D01*
X146604407Y-89590925D01*
X146669068Y-89551043D01*
X146793124Y-89426987D01*
X146885226Y-89277665D01*
X146940411Y-89111128D01*
X146950912Y-89008340D01*
X146950911Y-88208323D01*
X146950910Y-88208314D01*
X149780421Y-88208314D01*
X149780421Y-89008332D01*
X149780422Y-89008350D01*
X149790921Y-89111127D01*
X149790922Y-89111130D01*
X149816472Y-89188234D01*
X149846107Y-89277665D01*
X149938209Y-89426987D01*
X150062265Y-89551043D01*
X150126902Y-89590911D01*
X150173626Y-89642857D01*
X150184849Y-89711820D01*
X150157006Y-89775902D01*
X150149487Y-89784130D01*
X150041885Y-89891732D01*
X149940116Y-90031806D01*
X149861512Y-90186075D01*
X149808006Y-90350746D01*
X149806805Y-90358330D01*
X149806806Y-90358331D01*
X150875591Y-90358331D01*
X150855846Y-90378076D01*
X150806477Y-90463586D01*
X150780921Y-90558961D01*
X150780921Y-90657701D01*
X150806477Y-90753076D01*
X150855846Y-90838586D01*
X150875591Y-90858331D01*
X149806806Y-90858331D01*
X149808006Y-90865915D01*
X149861512Y-91030586D01*
X149940116Y-91184855D01*
X150041888Y-91324933D01*
X150164318Y-91447363D01*
X150304396Y-91549135D01*
X150458663Y-91627739D01*
X150623336Y-91681245D01*
X150794350Y-91708331D01*
X150905921Y-91708331D01*
X150905921Y-90888661D01*
X150925666Y-90908406D01*
X151011176Y-90957775D01*
X151106551Y-90983331D01*
X151205291Y-90983331D01*
X151300666Y-90957775D01*
X151386176Y-90908406D01*
X151405921Y-90888661D01*
X151405921Y-91708331D01*
X151517492Y-91708331D01*
X151688505Y-91681245D01*
X151853178Y-91627739D01*
X152007445Y-91549135D01*
X152147523Y-91447363D01*
X152269953Y-91324933D01*
X152371725Y-91184855D01*
X152450329Y-91030586D01*
X152503835Y-90865915D01*
X152505036Y-90858331D01*
X151436251Y-90858331D01*
X151455996Y-90838586D01*
X151505365Y-90753076D01*
X151530921Y-90657701D01*
X151530921Y-90558961D01*
X151505365Y-90463586D01*
X151455996Y-90378076D01*
X151436251Y-90358331D01*
X152505036Y-90358331D01*
X152505036Y-90358330D01*
X152503835Y-90350746D01*
X152450329Y-90186075D01*
X152371725Y-90031806D01*
X152269953Y-89891728D01*
X152162355Y-89784130D01*
X152128870Y-89722807D01*
X152133854Y-89653115D01*
X152175726Y-89597182D01*
X152184916Y-89590925D01*
X152249577Y-89551043D01*
X152373633Y-89426987D01*
X152465735Y-89277665D01*
X152520920Y-89111128D01*
X152531421Y-89008340D01*
X152531420Y-88208323D01*
X152526449Y-88159664D01*
X152520920Y-88105534D01*
X152520919Y-88105531D01*
X152497434Y-88034658D01*
X152465735Y-87938997D01*
X152373633Y-87789675D01*
X152249577Y-87665619D01*
X152156809Y-87608400D01*
X152100257Y-87573518D01*
X152100252Y-87573516D01*
X152098783Y-87573029D01*
X151933718Y-87518332D01*
X151933716Y-87518331D01*
X151830931Y-87507831D01*
X150480919Y-87507831D01*
X150480902Y-87507832D01*
X150378124Y-87518331D01*
X150378121Y-87518332D01*
X150211589Y-87573516D01*
X150211584Y-87573518D01*
X150062263Y-87665620D01*
X149938210Y-87789673D01*
X149846108Y-87938994D01*
X149846106Y-87938999D01*
X149818270Y-88023001D01*
X149790922Y-88105534D01*
X149790922Y-88105535D01*
X149790921Y-88105535D01*
X149780421Y-88208314D01*
X146950910Y-88208314D01*
X146945940Y-88159664D01*
X146940411Y-88105534D01*
X146940410Y-88105531D01*
X146916925Y-88034658D01*
X146885226Y-87938997D01*
X146793124Y-87789675D01*
X146669068Y-87665619D01*
X146576300Y-87608400D01*
X146519748Y-87573518D01*
X146519743Y-87573516D01*
X146518274Y-87573029D01*
X146353209Y-87518332D01*
X146353207Y-87518331D01*
X146250422Y-87507831D01*
X144900410Y-87507831D01*
X144900393Y-87507832D01*
X144797615Y-87518331D01*
X144797612Y-87518332D01*
X144631080Y-87573516D01*
X144631075Y-87573518D01*
X144481754Y-87665620D01*
X144357701Y-87789673D01*
X144265599Y-87938994D01*
X144265597Y-87938999D01*
X144237761Y-88023001D01*
X144210413Y-88105534D01*
X144210413Y-88105535D01*
X144210412Y-88105535D01*
X144199912Y-88208314D01*
X136183621Y-88208314D01*
X136183621Y-87276208D01*
X140202710Y-87276208D01*
X140202710Y-87276215D01*
X140222905Y-87455461D01*
X140222906Y-87455466D01*
X140282486Y-87625735D01*
X140307547Y-87665619D01*
X140378459Y-87778474D01*
X140506013Y-87906028D01*
X140658753Y-88002001D01*
X140829020Y-88061580D01*
X140829025Y-88061581D01*
X141008271Y-88081777D01*
X141008275Y-88081777D01*
X141008279Y-88081777D01*
X141187524Y-88061581D01*
X141187527Y-88061580D01*
X141187530Y-88061580D01*
X141357797Y-88002001D01*
X141510537Y-87906028D01*
X141638091Y-87778474D01*
X141734064Y-87625734D01*
X141793643Y-87455467D01*
X141813325Y-87280782D01*
X141813840Y-87276215D01*
X141813840Y-87276208D01*
X141793644Y-87096962D01*
X141793643Y-87096957D01*
X141763727Y-87011462D01*
X141734064Y-86926690D01*
X141638091Y-86773950D01*
X141510537Y-86646396D01*
X141357798Y-86550423D01*
X141187529Y-86490843D01*
X141187524Y-86490842D01*
X141008279Y-86470647D01*
X141008271Y-86470647D01*
X140829025Y-86490842D01*
X140829020Y-86490843D01*
X140658751Y-86550423D01*
X140506012Y-86646396D01*
X140378459Y-86773949D01*
X140282486Y-86926688D01*
X140222906Y-87096957D01*
X140222905Y-87096962D01*
X140202710Y-87276208D01*
X136183621Y-87276208D01*
X136183621Y-81641923D01*
X136203306Y-81574884D01*
X136256110Y-81529129D01*
X136325268Y-81519185D01*
X136388824Y-81548210D01*
X136395302Y-81554242D01*
X140369715Y-85528656D01*
X140369718Y-85528659D01*
X140369721Y-85528661D01*
X140476656Y-85600112D01*
X140595476Y-85649329D01*
X140595480Y-85649329D01*
X140595481Y-85649330D01*
X140721612Y-85674420D01*
X140721615Y-85674420D01*
X155366972Y-85674420D01*
X155434011Y-85694105D01*
X155479766Y-85746909D01*
X155489710Y-85816067D01*
X155472511Y-85863515D01*
X155454476Y-85892754D01*
X155424034Y-85942109D01*
X155424033Y-85942112D01*
X155368848Y-86108649D01*
X155368848Y-86108650D01*
X155368847Y-86108650D01*
X155358347Y-86211429D01*
X155358347Y-87011447D01*
X155358348Y-87011465D01*
X155368847Y-87114242D01*
X155368848Y-87114245D01*
X155422518Y-87276208D01*
X155424033Y-87280780D01*
X155516135Y-87430102D01*
X155640191Y-87554158D01*
X155671579Y-87573518D01*
X155704390Y-87593756D01*
X155751115Y-87645704D01*
X155762336Y-87714667D01*
X155734493Y-87778749D01*
X155726975Y-87786976D01*
X155619432Y-87894519D01*
X155517615Y-88034657D01*
X155438975Y-88188998D01*
X155385444Y-88353748D01*
X155370843Y-88445939D01*
X155358347Y-88524835D01*
X155358347Y-88698057D01*
X155385445Y-88869147D01*
X155438974Y-89033891D01*
X155517615Y-89188234D01*
X155619433Y-89328374D01*
X155741919Y-89450860D01*
X155825296Y-89511437D01*
X155867961Y-89566768D01*
X155873940Y-89636381D01*
X155841334Y-89698176D01*
X155825295Y-89712073D01*
X155742251Y-89772407D01*
X155742246Y-89772411D01*
X155619814Y-89894843D01*
X155518042Y-90034921D01*
X155439438Y-90189190D01*
X155385932Y-90353861D01*
X155384731Y-90361445D01*
X155384732Y-90361446D01*
X156453517Y-90361446D01*
X156433772Y-90381191D01*
X156384403Y-90466701D01*
X156358847Y-90562076D01*
X156358847Y-90660816D01*
X156384403Y-90756191D01*
X156433772Y-90841701D01*
X156453517Y-90861446D01*
X155384732Y-90861446D01*
X155385932Y-90869030D01*
X155439438Y-91033701D01*
X155518042Y-91187970D01*
X155619814Y-91328048D01*
X155742244Y-91450478D01*
X155882322Y-91552250D01*
X156036589Y-91630854D01*
X156201262Y-91684360D01*
X156372276Y-91711446D01*
X156483847Y-91711446D01*
X156483847Y-90891776D01*
X156503592Y-90911521D01*
X156589102Y-90960890D01*
X156684477Y-90986446D01*
X156783217Y-90986446D01*
X156878592Y-90960890D01*
X156964102Y-90911521D01*
X156983847Y-90891776D01*
X156983847Y-91711446D01*
X157095418Y-91711446D01*
X157266431Y-91684360D01*
X157431104Y-91630854D01*
X157585371Y-91552250D01*
X157725449Y-91450478D01*
X157847879Y-91328048D01*
X157949651Y-91187970D01*
X158028255Y-91033701D01*
X158081761Y-90869030D01*
X158082962Y-90861446D01*
X157014177Y-90861446D01*
X157033922Y-90841701D01*
X157083291Y-90756191D01*
X157108847Y-90660816D01*
X157108847Y-90562076D01*
X157083291Y-90466701D01*
X157033922Y-90381191D01*
X157014177Y-90361446D01*
X158082962Y-90361446D01*
X158082962Y-90361445D01*
X158081761Y-90353861D01*
X158028255Y-90189190D01*
X157949651Y-90034921D01*
X157847879Y-89894843D01*
X157725449Y-89772413D01*
X157642398Y-89712074D01*
X157599732Y-89656744D01*
X157593753Y-89587131D01*
X157626358Y-89525335D01*
X157642398Y-89511437D01*
X157725775Y-89450860D01*
X157848261Y-89328374D01*
X157950079Y-89188234D01*
X158028720Y-89033891D01*
X158082249Y-88869147D01*
X158109347Y-88698057D01*
X158109347Y-88524835D01*
X158082249Y-88353745D01*
X158028720Y-88189001D01*
X157950079Y-88034658D01*
X157848261Y-87894518D01*
X157740719Y-87786976D01*
X157707234Y-87725653D01*
X157712218Y-87655961D01*
X157754090Y-87600028D01*
X157763304Y-87593756D01*
X157796115Y-87573518D01*
X157827503Y-87554158D01*
X157951559Y-87430102D01*
X158043661Y-87280780D01*
X158098846Y-87114243D01*
X158109347Y-87011455D01*
X158109346Y-86211438D01*
X158098846Y-86108649D01*
X158043661Y-85942112D01*
X157995182Y-85863515D01*
X157976743Y-85796124D01*
X157997666Y-85729461D01*
X158051308Y-85684691D01*
X158100722Y-85674420D01*
X159217107Y-85674420D01*
X159284146Y-85694105D01*
X159304788Y-85710739D01*
X159847435Y-86253385D01*
X159880920Y-86314708D01*
X159883754Y-86341066D01*
X159883754Y-88123940D01*
X159864748Y-88189911D01*
X159810863Y-88275668D01*
X159751287Y-88445926D01*
X159751284Y-88445939D01*
X159731089Y-88625185D01*
X159731089Y-88625192D01*
X159751284Y-88804438D01*
X159751285Y-88804443D01*
X159810865Y-88974712D01*
X159896580Y-89111126D01*
X159906838Y-89127451D01*
X160034392Y-89255005D01*
X160124734Y-89311771D01*
X160151159Y-89328375D01*
X160187132Y-89350978D01*
X160357399Y-89410557D01*
X160357404Y-89410558D01*
X160536650Y-89430754D01*
X160536654Y-89430754D01*
X160536658Y-89430754D01*
X160715903Y-89410558D01*
X160715906Y-89410557D01*
X160715909Y-89410557D01*
X160886176Y-89350978D01*
X161038916Y-89255005D01*
X161166470Y-89127451D01*
X161262443Y-88974711D01*
X161322022Y-88804444D01*
X161342219Y-88625189D01*
X161322022Y-88445934D01*
X161322021Y-88445932D01*
X161322020Y-88445926D01*
X161262444Y-88275668D01*
X161208560Y-88189911D01*
X161189554Y-88123940D01*
X161189554Y-85954956D01*
X161164464Y-85828825D01*
X161164463Y-85828824D01*
X161164463Y-85828820D01*
X161115246Y-85710000D01*
X161115244Y-85709997D01*
X161091472Y-85674419D01*
X161091472Y-85674420D01*
X161043792Y-85603061D01*
X161043789Y-85603058D01*
X159955115Y-84514383D01*
X159955114Y-84514382D01*
X159955110Y-84514379D01*
X159848174Y-84442928D01*
X159729354Y-84393711D01*
X159729348Y-84393709D01*
X159603217Y-84368620D01*
X159603215Y-84368620D01*
X151864991Y-84368620D01*
X151797952Y-84348935D01*
X151752197Y-84296131D01*
X151742253Y-84226973D01*
X151771278Y-84163417D01*
X151777310Y-84156939D01*
X153423415Y-82510832D01*
X153484738Y-82477347D01*
X153554429Y-82482331D01*
X153610363Y-82524203D01*
X153616090Y-82532541D01*
X153703259Y-82671269D01*
X153830813Y-82798823D01*
X153983553Y-82894796D01*
X154052104Y-82918783D01*
X154153820Y-82954375D01*
X154153825Y-82954376D01*
X154333071Y-82974572D01*
X154333075Y-82974572D01*
X154333079Y-82974572D01*
X154512324Y-82954376D01*
X154512327Y-82954375D01*
X154512330Y-82954375D01*
X154682597Y-82894796D01*
X154835337Y-82798823D01*
X154962891Y-82671269D01*
X155058864Y-82518529D01*
X155118443Y-82348262D01*
X155135937Y-82192997D01*
X155135938Y-82192990D01*
X159844108Y-82192990D01*
X159844108Y-82192997D01*
X159864303Y-82372243D01*
X159864304Y-82372248D01*
X159923884Y-82542517D01*
X160004785Y-82671269D01*
X160019857Y-82695256D01*
X160147411Y-82822810D01*
X160300151Y-82918783D01*
X160401867Y-82954375D01*
X160470418Y-82978362D01*
X160470423Y-82978363D01*
X160649669Y-82998559D01*
X160649673Y-82998559D01*
X160649677Y-82998559D01*
X160828922Y-82978363D01*
X160828925Y-82978362D01*
X160828928Y-82978362D01*
X160999195Y-82918783D01*
X161151935Y-82822810D01*
X161279489Y-82695256D01*
X161375462Y-82542516D01*
X161435041Y-82372249D01*
X161437744Y-82348261D01*
X161455238Y-82192997D01*
X161455238Y-82192990D01*
X161435042Y-82013744D01*
X161435041Y-82013739D01*
X161375461Y-81843470D01*
X161279488Y-81690731D01*
X161151935Y-81563178D01*
X160999196Y-81467205D01*
X160828927Y-81407625D01*
X160828922Y-81407624D01*
X160649677Y-81387429D01*
X160649669Y-81387429D01*
X160470423Y-81407624D01*
X160470418Y-81407625D01*
X160300149Y-81467205D01*
X160147410Y-81563178D01*
X160019857Y-81690731D01*
X159923884Y-81843470D01*
X159864304Y-82013739D01*
X159864303Y-82013744D01*
X159844108Y-82192990D01*
X155135938Y-82192990D01*
X155138640Y-82169010D01*
X155138640Y-82169003D01*
X155118444Y-81989757D01*
X155118443Y-81989752D01*
X155058864Y-81819485D01*
X154962891Y-81666745D01*
X154835337Y-81539191D01*
X154696607Y-81452021D01*
X154650317Y-81399687D01*
X154639669Y-81330634D01*
X154668044Y-81266785D01*
X154674887Y-81259359D01*
X161187347Y-74746900D01*
X161258798Y-74639965D01*
X161291739Y-74560439D01*
X161308015Y-74521145D01*
X161333106Y-74395006D01*
X161333106Y-74033973D01*
X161352791Y-73966934D01*
X161378444Y-73938118D01*
X161391089Y-73927741D01*
X161491969Y-73804818D01*
X161549715Y-73765485D01*
X161619560Y-73763614D01*
X161679328Y-73799802D01*
G37*
%TD.AperFunction*%
%TA.AperFunction,Conductor*%
G36*
X136388824Y-74686610D02*
G01*
X136395302Y-74692642D01*
X145859598Y-84156939D01*
X145893083Y-84218262D01*
X145888099Y-84287954D01*
X145846227Y-84343887D01*
X145780763Y-84368304D01*
X145771917Y-84368620D01*
X141107722Y-84368620D01*
X141040683Y-84348935D01*
X141020041Y-84332301D01*
X137035461Y-80347720D01*
X137001976Y-80286397D01*
X136999142Y-80260039D01*
X136999142Y-78609835D01*
X137018148Y-78543863D01*
X137072031Y-78458109D01*
X137131610Y-78287842D01*
X137135258Y-78255466D01*
X137151807Y-78108590D01*
X137151807Y-78108583D01*
X137131611Y-77929337D01*
X137131610Y-77929332D01*
X137072030Y-77759063D01*
X136976057Y-77606324D01*
X136848504Y-77478771D01*
X136695765Y-77382798D01*
X136525496Y-77323218D01*
X136525491Y-77323217D01*
X136346246Y-77303022D01*
X136346243Y-77303022D01*
X136346242Y-77303022D01*
X136341626Y-77303542D01*
X136321501Y-77305809D01*
X136252679Y-77293752D01*
X136201301Y-77246401D01*
X136183621Y-77182588D01*
X136183621Y-74780323D01*
X136203306Y-74713284D01*
X136256110Y-74667529D01*
X136325268Y-74657585D01*
X136388824Y-74686610D01*
G37*
%TD.AperFunction*%
%TD*%
M02*
