%TF.GenerationSoftware,KiCad,Pcbnew,8.0.6*%
%TF.CreationDate,2024-11-21T01:25:50-08:00*%
%TF.ProjectId,LED20,4c454432-302e-46b6-9963-61645f706362,2*%
%TF.SameCoordinates,Original*%
%TF.FileFunction,Copper,L1,Top*%
%TF.FilePolarity,Positive*%
%FSLAX46Y46*%
G04 Gerber Fmt 4.6, Leading zero omitted, Abs format (unit mm)*
G04 Created by KiCad (PCBNEW 8.0.6) date 2024-11-21 01:25:50*
%MOMM*%
%LPD*%
G01*
G04 APERTURE LIST*
G04 Aperture macros list*
%AMRoundRect*
0 Rectangle with rounded corners*
0 $1 Rounding radius*
0 $2 $3 $4 $5 $6 $7 $8 $9 X,Y pos of 4 corners*
0 Add a 4 corners polygon primitive as box body*
4,1,4,$2,$3,$4,$5,$6,$7,$8,$9,$2,$3,0*
0 Add four circle primitives for the rounded corners*
1,1,$1+$1,$2,$3*
1,1,$1+$1,$4,$5*
1,1,$1+$1,$6,$7*
1,1,$1+$1,$8,$9*
0 Add four rect primitives between the rounded corners*
20,1,$1+$1,$2,$3,$4,$5,0*
20,1,$1+$1,$4,$5,$6,$7,0*
20,1,$1+$1,$6,$7,$8,$9,0*
20,1,$1+$1,$8,$9,$2,$3,0*%
G04 Aperture macros list end*
%TA.AperFunction,SMDPad,CuDef*%
%ADD10C,1.000000*%
%TD*%
%TA.AperFunction,SMDPad,CuDef*%
%ADD11RoundRect,0.150000X0.512500X0.150000X-0.512500X0.150000X-0.512500X-0.150000X0.512500X-0.150000X0*%
%TD*%
%TA.AperFunction,ComponentPad*%
%ADD12RoundRect,0.250000X-0.625000X0.350000X-0.625000X-0.350000X0.625000X-0.350000X0.625000X0.350000X0*%
%TD*%
%TA.AperFunction,ComponentPad*%
%ADD13O,1.750000X1.200000*%
%TD*%
%TA.AperFunction,SMDPad,CuDef*%
%ADD14RoundRect,0.225000X-0.250000X0.225000X-0.250000X-0.225000X0.250000X-0.225000X0.250000X0.225000X0*%
%TD*%
%TA.AperFunction,SMDPad,CuDef*%
%ADD15R,1.879600X1.701800*%
%TD*%
%TA.AperFunction,SMDPad,CuDef*%
%ADD16RoundRect,0.500000X-0.875000X-0.500000X0.875000X-0.500000X0.875000X0.500000X-0.875000X0.500000X0*%
%TD*%
%TA.AperFunction,SMDPad,CuDef*%
%ADD17RoundRect,0.275000X-0.275000X0.975000X-0.275000X-0.975000X0.275000X-0.975000X0.275000X0.975000X0*%
%TD*%
%TA.AperFunction,SMDPad,CuDef*%
%ADD18C,1.700000*%
%TD*%
%TA.AperFunction,SMDPad,CuDef*%
%ADD19RoundRect,0.225000X0.250000X-0.225000X0.250000X0.225000X-0.250000X0.225000X-0.250000X-0.225000X0*%
%TD*%
%TA.AperFunction,SMDPad,CuDef*%
%ADD20RoundRect,0.225000X-0.225000X-0.250000X0.225000X-0.250000X0.225000X0.250000X-0.225000X0.250000X0*%
%TD*%
%TA.AperFunction,SMDPad,CuDef*%
%ADD21R,1.803400X1.803400*%
%TD*%
%TA.AperFunction,SMDPad,CuDef*%
%ADD22RoundRect,0.200000X-0.200000X-0.275000X0.200000X-0.275000X0.200000X0.275000X-0.200000X0.275000X0*%
%TD*%
%TA.AperFunction,SMDPad,CuDef*%
%ADD23R,1.422400X0.558800*%
%TD*%
%TA.AperFunction,ViaPad*%
%ADD24C,0.600000*%
%TD*%
%TA.AperFunction,Conductor*%
%ADD25C,0.304800*%
%TD*%
%TA.AperFunction,Conductor*%
%ADD26C,0.200000*%
%TD*%
G04 APERTURE END LIST*
D10*
%TO.P,TP2,1,1*%
%TO.N,GND*%
X160637500Y-93450000D03*
%TD*%
D11*
%TO.P,U2,1,5VO*%
%TO.N,+5V*%
X158406261Y-80514160D03*
%TO.P,U2,2,GND*%
%TO.N,GND*%
X158406261Y-79564160D03*
%TO.P,U2,3,!SHDN*%
%TO.N,+5V*%
X158406261Y-78614160D03*
%TO.P,U2,4,C-*%
%TO.N,Net-(U2-C-)*%
X156131261Y-78614160D03*
%TO.P,U2,5,VIN*%
%TO.N,3.3V*%
X156131261Y-79564160D03*
%TO.P,U2,6,C+*%
%TO.N,Net-(U2-C+)*%
X156131261Y-80514160D03*
%TD*%
D12*
%TO.P,U6,1,1*%
%TO.N,+5V IN*%
X151155921Y-88608331D03*
D13*
%TO.P,U6,2,2*%
%TO.N,GND*%
X151155921Y-90608331D03*
%TD*%
D12*
%TO.P,D1,1,VDD*%
%TO.N,+5V*%
X156733847Y-86611446D03*
D13*
%TO.P,D1,2,DIN*%
%TO.N,3.3V Data (D4)*%
X156733847Y-88611446D03*
%TO.P,D1,3,VSS*%
%TO.N,GND*%
X156733847Y-90611446D03*
%TD*%
D14*
%TO.P,C3,1*%
%TO.N,GND*%
X160637500Y-78675000D03*
%TO.P,C3,2*%
%TO.N,+5V*%
X160637500Y-80225000D03*
%TD*%
D15*
%TO.P,CR1,1*%
%TO.N,3.3V*%
X149057100Y-95950000D03*
%TO.P,CR1,2*%
%TO.N,Net-(U3-COLLECTOR)*%
X144637500Y-95950000D03*
%TD*%
D16*
%TO.P,U4,1,LP_GPIO0/GPIO0/A0/D0*%
%TO.N,Net-(U4-LP_GPIO0{slash}GPIO0{slash}A0{slash}D0)*%
X133855900Y-67931500D03*
%TO.P,U4,2,LP_GPIO1/GPIO1/A1/D1*%
%TO.N,Net-(U1-INT1)*%
X133855900Y-70471500D03*
%TO.P,U4,3,LP_GPIO2/GPIO2/A2/D2*%
%TO.N,Net-(U1-INT2)*%
X133855900Y-73011500D03*
%TO.P,U4,4,SDIO_DATA1/GPIO21/D3*%
%TO.N,unconnected-(TP9-Pad1)*%
X133855900Y-75551500D03*
%TO.P,U4,5,SDIO_DATA2/GPIO22/SDA/D4*%
%TO.N,3.3V Data (D4)*%
X133855900Y-78091500D03*
%TO.P,U4,6,SDIO_DATA3/GPIO23/SCL/D5*%
%TO.N,unconnected-(U4-SDIO_DATA3{slash}GPIO23{slash}SCL{slash}D5-Pad6)*%
X133855900Y-80631500D03*
%TO.P,U4,7,GPIO16/TX/D6*%
%TO.N,unconnected-(U4-GPIO16{slash}TX{slash}D6-Pad7)*%
X133855900Y-83171500D03*
%TO.P,U4,8,GPIO17/RX/D7*%
%TO.N,Net-(U1-CS)*%
X150020900Y-83171500D03*
%TO.P,U4,9,SDIO_CLK/GPIO19/SCK/D8*%
%TO.N,Net-(U1-SCL)*%
X150020900Y-80631500D03*
%TO.P,U4,10,SDIO_DATA0/GPIO20/MISO/D9*%
%TO.N,Net-(U1-SDO{slash}SA0)*%
X150020900Y-78091500D03*
%TO.P,U4,11,SDIO_CMD/GPIO18/MOSI/D10*%
%TO.N,Net-(U1-SDA)*%
X150020900Y-75551500D03*
%TO.P,U4,12,3V3*%
%TO.N,3.3V*%
X150020900Y-73011500D03*
%TO.P,U4,13,GND*%
%TO.N,GND*%
X150020900Y-70471500D03*
%TO.P,U4,14,5V*%
%TO.N,+5V IN*%
X150020900Y-67931500D03*
D17*
%TO.P,U4,15,+*%
%TO.N,VBATT*%
X140129500Y-81083200D03*
%TO.P,U4,16,-*%
%TO.N,GND*%
X142669500Y-81083200D03*
D18*
%TO.P,U4,17,LP_I2C_SCL/LP_GPIO7/GPIO7/MTDO*%
%TO.N,unconnected-(TP16-Pad1)*%
X140637500Y-66910000D03*
%TO.P,U4,18,LP_UART_TXD/LP_GPIO5/GPIO5/A5/MTDI*%
%TO.N,unconnected-(TP14-Pad1)*%
X143177500Y-66910000D03*
%TO.P,U4,19,GND*%
%TO.N,GND*%
X140637500Y-69450000D03*
%TO.P,U4,20*%
%TO.N,N/C*%
X143177500Y-69450000D03*
%TO.P,U4,21,LP_I2C_SDA/LP_GPIO6/GPIO6/A6/MTCK*%
%TO.N,unconnected-(TP15-Pad1)*%
X140637500Y-71990000D03*
%TO.P,U4,22,LP_UART_RXD/GPIO4/LP_GPIO4/A4/MTMS*%
%TO.N,unconnected-(TP13-Pad1)*%
X143177500Y-71990000D03*
%TO.P,U4,23*%
%TO.N,N/C*%
X140637500Y-74530000D03*
%TO.P,U4,24*%
X143084900Y-74473200D03*
%TD*%
D19*
%TO.P,C1,1*%
%TO.N,Net-(U2-C+)*%
X154333037Y-80189265D03*
%TO.P,C1,2*%
%TO.N,Net-(U2-C-)*%
X154333037Y-78639265D03*
%TD*%
D10*
%TO.P,TP1,1,1*%
%TO.N,VBATT*%
X141008275Y-87276212D03*
%TD*%
D20*
%TO.P,C2,1*%
%TO.N,3.3V*%
X157378782Y-76910052D03*
%TO.P,C2,2*%
%TO.N,GND*%
X158928782Y-76910052D03*
%TD*%
D10*
%TO.P,TP17,1,1*%
%TO.N,Net-(U2-C+)*%
X154333075Y-82169007D03*
%TD*%
%TO.P,TP18,1,1*%
%TO.N,+5V*%
X160649673Y-82192994D03*
%TD*%
D21*
%TO.P,LS1,1,1*%
%TO.N,3.3V*%
X134799055Y-89943829D03*
%TO.P,LS1,2,2*%
%TO.N,Net-(U3-COLLECTOR)*%
X134799055Y-96093829D03*
%TO.P,LS1,3*%
%TO.N,N/C*%
X140949055Y-89943829D03*
%TO.P,LS1,4*%
X140949055Y-96093829D03*
%TD*%
D12*
%TO.P,U7,1,1*%
%TO.N,VBATT*%
X145575412Y-88608331D03*
D13*
%TO.P,U7,2,2*%
%TO.N,GND*%
X145575412Y-90608331D03*
%TD*%
D22*
%TO.P,R1,1*%
%TO.N,Net-(U4-LP_GPIO0{slash}GPIO0{slash}A0{slash}D0)*%
X151637500Y-94950000D03*
%TO.P,R1,2*%
%TO.N,Net-(U3-BASE)*%
X153287500Y-94950000D03*
%TD*%
D23*
%TO.P,U3,3,COLLECTOR*%
%TO.N,Net-(U3-COLLECTOR)*%
X156137500Y-95902500D03*
%TO.P,U3,2,EMITTER*%
%TO.N,GND*%
X158067900Y-94950000D03*
%TO.P,U3,1,BASE*%
%TO.N,Net-(U3-BASE)*%
X158067900Y-96855000D03*
%TD*%
D24*
%TO.N,3.3V*%
X147632858Y-72883326D03*
%TO.N,GND*%
X158349652Y-67484429D03*
%TO.N,3.3V*%
X157349654Y-67353629D03*
%TO.N,Net-(U1-SDA)*%
X156608313Y-73814663D03*
%TO.N,Net-(U1-CS)*%
X159140756Y-74664675D03*
%TO.N,Net-(U1-SCL)*%
X158430138Y-71791608D03*
%TO.N,VBATT*%
X141008275Y-87276212D03*
%TO.N,Net-(U2-C+)*%
X154333075Y-82169007D03*
%TO.N,+5V*%
X160649673Y-82192994D03*
%TO.N,GND*%
X160637500Y-93450000D03*
X161174315Y-75882805D03*
X160899645Y-64735493D03*
X152647063Y-64284093D03*
X147637500Y-80450000D03*
X137637500Y-66450000D03*
X138991771Y-89796948D03*
X147637500Y-71950000D03*
X157288203Y-82709760D03*
X139137500Y-78450000D03*
X144137500Y-83450000D03*
X142794572Y-96159296D03*
X137637500Y-94950000D03*
X144637500Y-76950000D03*
X145130972Y-80127771D03*
X138637500Y-71950000D03*
X141885839Y-70673188D03*
X138637500Y-84950000D03*
%TO.N,3.3V*%
X157880031Y-69166348D03*
%TO.N,3.3V Data (D4)*%
X136346242Y-78108587D03*
X160536654Y-88625189D03*
%TO.N,Net-(U1-SDA)*%
X152624770Y-75551500D03*
%TO.N,Net-(U1-SDO{slash}SA0)*%
X147874161Y-77851844D03*
%TO.N,Net-(U1-SCL)*%
X152543623Y-78757729D03*
%TO.N,Net-(U1-CS)*%
X152657837Y-81147595D03*
%TO.N,Net-(U1-INT2)*%
X160680206Y-71450000D03*
X160680206Y-73216858D03*
X136183121Y-73557121D03*
%TO.N,Net-(U1-INT1)*%
X136287163Y-70544233D03*
%TO.N,unconnected-(TP13-Pad1)*%
X151857879Y-66189222D03*
%TO.N,unconnected-(TP14-Pad1)*%
X151241689Y-64264802D03*
%TO.N,unconnected-(TP15-Pad1)*%
X133558215Y-64181695D03*
%TO.N,unconnected-(TP16-Pad1)*%
X136473277Y-64192789D03*
%TO.N,Net-(U3-COLLECTOR)*%
X154796611Y-97243389D03*
X142807619Y-94892129D03*
%TO.N,3.3V*%
X136493951Y-91556451D03*
X142809323Y-94001798D03*
%TO.N,GND*%
X159908708Y-67506138D03*
X152637500Y-70463206D03*
%TD*%
D25*
%TO.N,3.3V*%
X149892726Y-72883326D02*
X150020900Y-73011500D01*
X147632858Y-72883326D02*
X149892726Y-72883326D01*
X156558419Y-79564160D02*
X156131261Y-79564160D01*
X157378782Y-78743797D02*
X156558419Y-79564160D01*
X157378782Y-76910052D02*
X157378782Y-78743797D01*
%TO.N,GND*%
X159886999Y-67484429D02*
X159908708Y-67506138D01*
X158349652Y-67484429D02*
X159886999Y-67484429D01*
%TO.N,3.3V*%
X155196799Y-74728069D02*
X157378782Y-76910052D01*
X155196799Y-68196288D02*
X155196799Y-74728069D01*
X156039458Y-67353629D02*
X155196799Y-68196288D01*
X157349654Y-67353629D02*
X156039458Y-67353629D01*
%TO.N,Net-(U1-SDO{slash}SA0)*%
X148113817Y-78091500D02*
X150020900Y-78091500D01*
X147874161Y-77851844D02*
X148113817Y-78091500D01*
%TO.N,3.3V*%
X155940326Y-69450000D02*
X156223978Y-69166348D01*
X154521981Y-69450000D02*
X155940326Y-69450000D01*
X154134504Y-69837477D02*
X154521981Y-69450000D01*
X154134504Y-71513577D02*
X154134504Y-69837477D01*
X156223978Y-69166348D02*
X157880031Y-69166348D01*
X152636581Y-73011500D02*
X154134504Y-71513577D01*
X150020900Y-73011500D02*
X152636581Y-73011500D01*
%TO.N,Net-(U1-INT1)*%
X136287163Y-70544233D02*
X133928633Y-70544233D01*
X133928633Y-70544233D02*
X133855900Y-70471500D01*
%TO.N,Net-(U1-INT2)*%
X134401521Y-73557121D02*
X133855900Y-73011500D01*
X136183121Y-73557121D02*
X134401521Y-73557121D01*
D26*
%TO.N,GND*%
X140662651Y-69450000D02*
X141885839Y-70673188D01*
X140637500Y-69450000D02*
X140662651Y-69450000D01*
D25*
%TO.N,unconnected-(TP13-Pad1)*%
X149294673Y-65872827D02*
X143177500Y-71990000D01*
X151541484Y-65872827D02*
X149294673Y-65872827D01*
X151857879Y-66189222D02*
X151541484Y-65872827D01*
%TO.N,GND*%
X160637500Y-76419620D02*
X161174315Y-75882805D01*
X160637500Y-78675000D02*
X160637500Y-76419620D01*
X157288203Y-80019719D02*
X157288203Y-82709760D01*
X157743762Y-79564160D02*
X157288203Y-80019719D01*
X158406261Y-79564160D02*
X157743762Y-79564160D01*
X144175543Y-81083200D02*
X142669500Y-81083200D01*
X145130972Y-80127771D02*
X144175543Y-81083200D01*
X159137500Y-94950000D02*
X159628310Y-94459190D01*
X158067900Y-94950000D02*
X159137500Y-94950000D01*
X159628310Y-94459190D02*
X160637500Y-93450000D01*
%TO.N,Net-(U3-COLLECTOR)*%
X154796611Y-97243389D02*
X156137500Y-95902500D01*
%TO.N,3.3V*%
X149057100Y-95302674D02*
X149057100Y-95950000D01*
X142809323Y-94001798D02*
X147756224Y-94001798D01*
X147756224Y-94001798D02*
X149057100Y-95302674D01*
X149137500Y-95383074D02*
X149137500Y-95457178D01*
%TO.N,Net-(U4-LP_GPIO0{slash}GPIO0{slash}A0{slash}D0)*%
X137213610Y-70068417D02*
X135076693Y-67931500D01*
X137213610Y-89874639D02*
X137213610Y-70068417D01*
X135076693Y-67931500D02*
X133855900Y-67931500D01*
X140688369Y-93349398D02*
X137213610Y-89874639D01*
X150036898Y-93349398D02*
X140688369Y-93349398D01*
X151637500Y-94950000D02*
X150036898Y-93349398D01*
%TO.N,Net-(U3-COLLECTOR)*%
X138006667Y-96093829D02*
X134799055Y-96093829D01*
X139260767Y-94839729D02*
X138006667Y-96093829D01*
X142755219Y-94839729D02*
X139260767Y-94839729D01*
X142807619Y-94892129D02*
X142755219Y-94839729D01*
X143579629Y-94892129D02*
X144637500Y-95950000D01*
X142807619Y-94892129D02*
X143579629Y-94892129D01*
%TO.N,3.3V*%
X136411677Y-91556451D02*
X134799055Y-89943829D01*
X136493951Y-91556451D02*
X136411677Y-91556451D01*
%TO.N,GND*%
X150020900Y-70471500D02*
X152635265Y-70471500D01*
X152635265Y-70471500D02*
X152643559Y-70463206D01*
%TO.N,Net-(U1-SDA)*%
X152624770Y-75551500D02*
X150020900Y-75551500D01*
%TO.N,Net-(U1-SCL)*%
X152543623Y-78722719D02*
X152517365Y-78696461D01*
X152517365Y-78696461D02*
X150582326Y-80631500D01*
X150582326Y-80631500D02*
X150020900Y-80631500D01*
X152543623Y-78757729D02*
X152543623Y-78722719D01*
%TO.N,Net-(U1-CS)*%
X150633932Y-83171500D02*
X150020900Y-83171500D01*
X152657837Y-81147595D02*
X150633932Y-83171500D01*
D26*
%TO.N,3.3V Data (D4)*%
X136346242Y-78108587D02*
X136329155Y-78091500D01*
D25*
X136329155Y-78091500D02*
X133855900Y-78091500D01*
%TO.N,Net-(U2-C+)*%
X154348199Y-80204427D02*
X154333037Y-80189265D01*
X154333037Y-82168969D02*
X154333075Y-82169007D01*
X154333037Y-80189265D02*
X154657932Y-80514160D01*
X154333037Y-80189265D02*
X154333037Y-82168969D01*
X154657932Y-80514160D02*
X156131261Y-80514160D01*
%TO.N,Net-(U2-C-)*%
X154571604Y-78626906D02*
X154559245Y-78639265D01*
X154333037Y-78639265D02*
X154559245Y-78639265D01*
X154333037Y-78639265D02*
X156106156Y-78639265D01*
X154335742Y-78636560D02*
X154333037Y-78639265D01*
X156106156Y-78639265D02*
X156131261Y-78614160D01*
%TO.N,+5V*%
X158406261Y-80514160D02*
X158406261Y-84939032D01*
X158406261Y-78614160D02*
X159068760Y-78614160D01*
X159368761Y-80214159D02*
X159068760Y-80514160D01*
X159368761Y-78914161D02*
X159368761Y-80214159D01*
X160354244Y-80179654D02*
X160445218Y-80088680D01*
X160637500Y-80225000D02*
X160637500Y-82180821D01*
X158406261Y-84939032D02*
X156733847Y-86611446D01*
X159068760Y-78614160D02*
X159368761Y-78914161D01*
X160637500Y-82180821D02*
X160649673Y-82192994D01*
X158490107Y-80598006D02*
X158406261Y-80514160D01*
X159068760Y-80514160D02*
X158406261Y-80514160D01*
X160348340Y-80514160D02*
X160637500Y-80225000D01*
X158406261Y-80514160D02*
X160348340Y-80514160D01*
%TO.N,3.3V Data (D4)*%
X156733847Y-88611446D02*
X160522911Y-88611446D01*
X160522911Y-88611446D02*
X160536654Y-88625189D01*
%TO.N,VBATT*%
X140129500Y-81083200D02*
X140129500Y-83162419D01*
X141008275Y-87276212D02*
X141961268Y-87276212D01*
X140129500Y-83162419D02*
X145575412Y-88608331D01*
X141961268Y-87276212D02*
X143293387Y-88608331D01*
X143293387Y-88608331D02*
X145575412Y-88608331D01*
%TO.N,Net-(U1-INT2)*%
X160680206Y-73216858D02*
X160680206Y-71450000D01*
%TO.N,unconnected-(TP14-Pad1)*%
X143177500Y-66910000D02*
X145822698Y-64264802D01*
X145822698Y-64264802D02*
X151241689Y-64264802D01*
%TO.N,unconnected-(TP15-Pad1)*%
X133570623Y-64039269D02*
X133570623Y-64169287D01*
X133558215Y-64910715D02*
X140637500Y-71990000D01*
X133570623Y-64169287D02*
X133558215Y-64181695D01*
X133558215Y-64181695D02*
X133558215Y-64910715D01*
%TO.N,unconnected-(TP16-Pad1)*%
X137920289Y-64192789D02*
X140637500Y-66910000D01*
X136473277Y-64192789D02*
X137920289Y-64192789D01*
%TO.N,+5V IN*%
X150020900Y-67931500D02*
X148172370Y-67931500D01*
X148172370Y-67931500D02*
X146549747Y-69554123D01*
X146549747Y-84002157D02*
X151155921Y-88608331D01*
X146549747Y-69554123D02*
X146549747Y-84002157D01*
%TO.N,Net-(U4-LP_GPIO0{slash}GPIO0{slash}A0{slash}D0)*%
X134095023Y-67931500D02*
X134283493Y-68119970D01*
X133855900Y-67931500D02*
X134095023Y-67931500D01*
%TO.N,Net-(U3-COLLECTOR)*%
X134781329Y-96093829D02*
X134637500Y-95950000D01*
%TO.N,Net-(U3-BASE)*%
X158067900Y-96380400D02*
X156637500Y-94950000D01*
X156637500Y-94950000D02*
X153287500Y-94950000D01*
X158067900Y-96855000D02*
X158067900Y-96380400D01*
%TD*%
%TA.AperFunction,Conductor*%
%TO.N,GND*%
G36*
X135871494Y-78757114D02*
G01*
X135886736Y-78765269D01*
X135996715Y-78834374D01*
X135996719Y-78834375D01*
X135996720Y-78834376D01*
X136131773Y-78881633D01*
X136166987Y-78893955D01*
X136166992Y-78893956D01*
X136346238Y-78914152D01*
X136346242Y-78914152D01*
X136346244Y-78914152D01*
X136394025Y-78908768D01*
X136422826Y-78905523D01*
X136491648Y-78917577D01*
X136543027Y-78964926D01*
X136560710Y-79028743D01*
X136560710Y-89938946D01*
X136574473Y-90008134D01*
X136574473Y-90008135D01*
X136579181Y-90031806D01*
X136585801Y-90065083D01*
X136635018Y-90183903D01*
X136685120Y-90258887D01*
X136706472Y-90290843D01*
X137149121Y-90733492D01*
X137182606Y-90794815D01*
X137177622Y-90864507D01*
X137152573Y-90897967D01*
X137178869Y-90875647D01*
X137248126Y-90866409D01*
X137311382Y-90896081D01*
X137316909Y-90901280D01*
X140272165Y-93856535D01*
X140272166Y-93856536D01*
X140272169Y-93856538D01*
X140379105Y-93927990D01*
X140417385Y-93943846D01*
X140428060Y-93948268D01*
X140482463Y-93992109D01*
X140504528Y-94058403D01*
X140487249Y-94126102D01*
X140436112Y-94173713D01*
X140380607Y-94186829D01*
X139196460Y-94186829D01*
X139070328Y-94211918D01*
X139070322Y-94211920D01*
X138951504Y-94261136D01*
X138844564Y-94332590D01*
X138844563Y-94332591D01*
X137772545Y-95404610D01*
X137711222Y-95438095D01*
X137684864Y-95440929D01*
X136325254Y-95440929D01*
X136258215Y-95421244D01*
X136212460Y-95368440D01*
X136201254Y-95316929D01*
X136201254Y-95144258D01*
X136201253Y-95144252D01*
X136201252Y-95144245D01*
X136194846Y-95084646D01*
X136191621Y-95076000D01*
X136144552Y-94949800D01*
X136144548Y-94949793D01*
X136058302Y-94834584D01*
X136058299Y-94834581D01*
X135943090Y-94748335D01*
X135943083Y-94748331D01*
X135808237Y-94698037D01*
X135808238Y-94698037D01*
X135748638Y-94691630D01*
X135748636Y-94691629D01*
X135748628Y-94691629D01*
X135748619Y-94691629D01*
X133849484Y-94691629D01*
X133849478Y-94691630D01*
X133789871Y-94698037D01*
X133655026Y-94748331D01*
X133655019Y-94748335D01*
X133539810Y-94834581D01*
X133539807Y-94834584D01*
X133453561Y-94949793D01*
X133453557Y-94949800D01*
X133403263Y-95084646D01*
X133398655Y-95127511D01*
X133396856Y-95144252D01*
X133396855Y-95144264D01*
X133396855Y-97043399D01*
X133396856Y-97043405D01*
X133403263Y-97103012D01*
X133453557Y-97237857D01*
X133453561Y-97237864D01*
X133539807Y-97353073D01*
X133539810Y-97353076D01*
X133655019Y-97439322D01*
X133655026Y-97439326D01*
X133789872Y-97489620D01*
X133789871Y-97489620D01*
X133796799Y-97490364D01*
X133849482Y-97496029D01*
X135748627Y-97496028D01*
X135808238Y-97489620D01*
X135943086Y-97439325D01*
X136058301Y-97353075D01*
X136144551Y-97237860D01*
X136194846Y-97103012D01*
X136201255Y-97043402D01*
X136201255Y-96870729D01*
X136220940Y-96803690D01*
X136273744Y-96757935D01*
X136325255Y-96746729D01*
X138070974Y-96746729D01*
X138155832Y-96729848D01*
X138197111Y-96721638D01*
X138315931Y-96672421D01*
X138422867Y-96600970D01*
X139335174Y-95688661D01*
X139396497Y-95655177D01*
X139466188Y-95660161D01*
X139522122Y-95702032D01*
X139546539Y-95767497D01*
X139546855Y-95776343D01*
X139546855Y-97043399D01*
X139546856Y-97043405D01*
X139553263Y-97103012D01*
X139603557Y-97237857D01*
X139603561Y-97237864D01*
X139689807Y-97353073D01*
X139689810Y-97353076D01*
X139805019Y-97439322D01*
X139805026Y-97439326D01*
X139939872Y-97489620D01*
X139939871Y-97489620D01*
X139946799Y-97490364D01*
X139999482Y-97496029D01*
X141898627Y-97496028D01*
X141958238Y-97489620D01*
X142093086Y-97439325D01*
X142208301Y-97353075D01*
X142294551Y-97237860D01*
X142344846Y-97103012D01*
X142351255Y-97043402D01*
X142351254Y-95755293D01*
X142370939Y-95688255D01*
X142423742Y-95642500D01*
X142492901Y-95632556D01*
X142516209Y-95638253D01*
X142628356Y-95677495D01*
X142628362Y-95677496D01*
X142628364Y-95677497D01*
X142628365Y-95677497D01*
X142628369Y-95677498D01*
X142807615Y-95697694D01*
X142807619Y-95697694D01*
X142807623Y-95697694D01*
X142986868Y-95677498D01*
X142986869Y-95677497D01*
X142986874Y-95677497D01*
X143032245Y-95661620D01*
X143102022Y-95658058D01*
X143162650Y-95692786D01*
X143194878Y-95754779D01*
X143197200Y-95778662D01*
X143197200Y-96848770D01*
X143197201Y-96848776D01*
X143203608Y-96908383D01*
X143253902Y-97043228D01*
X143253906Y-97043235D01*
X143340152Y-97158444D01*
X143340155Y-97158447D01*
X143455364Y-97244693D01*
X143455371Y-97244697D01*
X143590217Y-97294991D01*
X143590216Y-97294991D01*
X143597144Y-97295735D01*
X143649827Y-97301400D01*
X145505737Y-97301399D01*
X145572776Y-97321084D01*
X145593418Y-97337718D01*
X145628100Y-97372400D01*
X148066498Y-97372400D01*
X148066500Y-97372400D01*
X148066500Y-97372398D01*
X148101180Y-97337718D01*
X148162503Y-97304233D01*
X148188853Y-97301399D01*
X150044772Y-97301399D01*
X150104383Y-97294991D01*
X150239231Y-97244696D01*
X150354446Y-97158446D01*
X150440696Y-97043231D01*
X150490991Y-96908383D01*
X150497400Y-96848773D01*
X150497399Y-95374386D01*
X150517084Y-95307348D01*
X150569887Y-95261593D01*
X150639046Y-95251649D01*
X150702602Y-95280674D01*
X150740376Y-95339452D01*
X150743016Y-95350193D01*
X150743413Y-95352192D01*
X150743413Y-95352194D01*
X150743414Y-95352196D01*
X150794022Y-95514606D01*
X150882013Y-95660161D01*
X150882030Y-95660188D01*
X151002311Y-95780469D01*
X151002313Y-95780470D01*
X151002315Y-95780472D01*
X151147894Y-95868478D01*
X151310304Y-95919086D01*
X151380884Y-95925500D01*
X151380887Y-95925500D01*
X151894113Y-95925500D01*
X151894116Y-95925500D01*
X151964696Y-95919086D01*
X152127106Y-95868478D01*
X152272685Y-95780472D01*
X152323441Y-95729716D01*
X152374819Y-95678339D01*
X152436142Y-95644854D01*
X152505834Y-95649838D01*
X152550181Y-95678339D01*
X152652311Y-95780469D01*
X152652313Y-95780470D01*
X152652315Y-95780472D01*
X152797894Y-95868478D01*
X152960304Y-95919086D01*
X153030884Y-95925500D01*
X153030887Y-95925500D01*
X153544113Y-95925500D01*
X153544116Y-95925500D01*
X153614696Y-95919086D01*
X153777106Y-95868478D01*
X153922685Y-95780472D01*
X154042972Y-95660185D01*
X154042972Y-95660183D01*
X154047599Y-95654280D01*
X154049254Y-95655576D01*
X154092954Y-95615561D01*
X154147539Y-95602900D01*
X154801800Y-95602900D01*
X154868839Y-95622585D01*
X154914594Y-95675389D01*
X154925800Y-95726900D01*
X154925800Y-96139496D01*
X154906115Y-96206535D01*
X154889481Y-96227177D01*
X154694561Y-96422097D01*
X154633238Y-96455582D01*
X154620767Y-96457636D01*
X154617360Y-96458019D01*
X154447089Y-96517599D01*
X154294348Y-96613573D01*
X154166795Y-96741126D01*
X154070822Y-96893865D01*
X154011242Y-97064134D01*
X154011241Y-97064139D01*
X153991046Y-97243385D01*
X153991046Y-97243392D01*
X154011241Y-97422638D01*
X154011242Y-97422643D01*
X154070822Y-97592912D01*
X154105380Y-97647910D01*
X154124380Y-97715147D01*
X154104012Y-97781982D01*
X154050744Y-97827196D01*
X154000386Y-97837882D01*
X132116915Y-97837882D01*
X132049876Y-97818197D01*
X132004121Y-97765393D01*
X131992915Y-97713882D01*
X131992915Y-88994264D01*
X133396855Y-88994264D01*
X133396855Y-90893399D01*
X133396856Y-90893405D01*
X133403263Y-90953012D01*
X133453557Y-91087857D01*
X133453561Y-91087864D01*
X133539807Y-91203073D01*
X133539810Y-91203076D01*
X133655019Y-91289322D01*
X133655026Y-91289326D01*
X133789872Y-91339620D01*
X133789871Y-91339620D01*
X133796799Y-91340364D01*
X133849482Y-91346029D01*
X135226551Y-91346028D01*
X135293590Y-91365713D01*
X135314232Y-91382347D01*
X135710633Y-91778748D01*
X135739993Y-91825473D01*
X135768162Y-91905974D01*
X135768163Y-91905975D01*
X135864135Y-92058713D01*
X135991689Y-92186267D01*
X136144429Y-92282240D01*
X136314696Y-92341819D01*
X136314701Y-92341820D01*
X136493947Y-92362016D01*
X136493951Y-92362016D01*
X136493955Y-92362016D01*
X136673200Y-92341820D01*
X136673203Y-92341819D01*
X136673206Y-92341819D01*
X136843473Y-92282240D01*
X136996213Y-92186267D01*
X137123767Y-92058713D01*
X137219740Y-91905973D01*
X137279319Y-91735706D01*
X137279320Y-91735700D01*
X137299516Y-91556454D01*
X137299516Y-91556447D01*
X137279320Y-91377201D01*
X137279319Y-91377196D01*
X137268412Y-91346027D01*
X137219740Y-91206929D01*
X137124233Y-91054931D01*
X137105234Y-90987697D01*
X137124445Y-90924656D01*
X137070286Y-90944857D01*
X137002013Y-90930005D01*
X136995468Y-90926167D01*
X136843472Y-90830661D01*
X136673200Y-90771081D01*
X136577075Y-90760251D01*
X136512661Y-90733185D01*
X136503287Y-90724720D01*
X136369174Y-90590607D01*
X136237573Y-90459006D01*
X136204088Y-90397683D01*
X136201254Y-90371325D01*
X136201254Y-88994258D01*
X136201253Y-88994252D01*
X136201252Y-88994245D01*
X136194846Y-88934646D01*
X136184949Y-88908112D01*
X136144552Y-88799800D01*
X136144548Y-88799793D01*
X136058302Y-88684584D01*
X136058299Y-88684581D01*
X135943090Y-88598335D01*
X135943083Y-88598331D01*
X135808237Y-88548037D01*
X135808238Y-88548037D01*
X135748638Y-88541630D01*
X135748636Y-88541629D01*
X135748628Y-88541629D01*
X135748619Y-88541629D01*
X133849484Y-88541629D01*
X133849478Y-88541630D01*
X133789871Y-88548037D01*
X133655026Y-88598331D01*
X133655019Y-88598335D01*
X133539810Y-88684581D01*
X133539807Y-88684584D01*
X133453561Y-88799793D01*
X133453557Y-88799800D01*
X133403263Y-88934646D01*
X133398956Y-88974711D01*
X133396856Y-88994252D01*
X133396855Y-88994264D01*
X131992915Y-88994264D01*
X131992915Y-84391342D01*
X132012600Y-84324303D01*
X132065404Y-84278548D01*
X132134562Y-84268604D01*
X132198118Y-84297629D01*
X132213017Y-84312981D01*
X132269790Y-84382609D01*
X132363703Y-84459184D01*
X132427493Y-84511198D01*
X132607851Y-84605409D01*
X132803482Y-84661386D01*
X132922863Y-84672000D01*
X134788936Y-84671999D01*
X134908318Y-84661386D01*
X135103949Y-84605409D01*
X135284307Y-84511198D01*
X135442009Y-84382609D01*
X135570598Y-84224907D01*
X135664809Y-84044549D01*
X135720786Y-83848918D01*
X135731400Y-83729537D01*
X135731399Y-82613464D01*
X135720786Y-82494082D01*
X135664809Y-82298451D01*
X135570598Y-82118093D01*
X135457883Y-81979859D01*
X135430775Y-81915465D01*
X135442784Y-81846635D01*
X135457881Y-81823142D01*
X135570598Y-81684907D01*
X135664809Y-81504549D01*
X135720786Y-81308918D01*
X135731400Y-81189537D01*
X135731399Y-80073464D01*
X135720786Y-79954082D01*
X135667998Y-79769595D01*
X135664810Y-79758454D01*
X135664809Y-79758453D01*
X135664809Y-79758451D01*
X135570598Y-79578093D01*
X135457883Y-79439859D01*
X135430775Y-79375465D01*
X135442784Y-79306635D01*
X135457881Y-79283142D01*
X135570598Y-79144907D01*
X135664809Y-78964549D01*
X135701548Y-78836150D01*
X135738915Y-78777113D01*
X135802269Y-78747649D01*
X135871494Y-78757114D01*
G37*
%TD.AperFunction*%
%TA.AperFunction,Conductor*%
G36*
X138071713Y-70347999D02*
G01*
X138078191Y-70354031D01*
X139289073Y-71564913D01*
X139322558Y-71626236D01*
X139321167Y-71684686D01*
X139302439Y-71754583D01*
X139302436Y-71754596D01*
X139281841Y-71989999D01*
X139281841Y-71990000D01*
X139302436Y-72225403D01*
X139302438Y-72225413D01*
X139363594Y-72453655D01*
X139363596Y-72453659D01*
X139363597Y-72453663D01*
X139430517Y-72597173D01*
X139463465Y-72667830D01*
X139463467Y-72667834D01*
X139544410Y-72783432D01*
X139599001Y-72861396D01*
X139599006Y-72861402D01*
X139766097Y-73028493D01*
X139766103Y-73028498D01*
X139951658Y-73158425D01*
X139995283Y-73213002D01*
X140002477Y-73282500D01*
X139970954Y-73344855D01*
X139951658Y-73361575D01*
X139766097Y-73491505D01*
X139599005Y-73658597D01*
X139463465Y-73852169D01*
X139463464Y-73852171D01*
X139363598Y-74066335D01*
X139363594Y-74066344D01*
X139302438Y-74294586D01*
X139302436Y-74294596D01*
X139281841Y-74529999D01*
X139281841Y-74530000D01*
X139302436Y-74765403D01*
X139302438Y-74765413D01*
X139363594Y-74993655D01*
X139363596Y-74993659D01*
X139363597Y-74993663D01*
X139400557Y-75072923D01*
X139463465Y-75207830D01*
X139463467Y-75207834D01*
X139559229Y-75344595D01*
X139599005Y-75401401D01*
X139766099Y-75568495D01*
X139862884Y-75636265D01*
X139959665Y-75704032D01*
X139959667Y-75704033D01*
X139959670Y-75704035D01*
X140173837Y-75803903D01*
X140402092Y-75865063D01*
X140590418Y-75881539D01*
X140637499Y-75885659D01*
X140637500Y-75885659D01*
X140637501Y-75885659D01*
X140676734Y-75882226D01*
X140872908Y-75865063D01*
X141101163Y-75803903D01*
X141315330Y-75704035D01*
X141508901Y-75568495D01*
X141675995Y-75401401D01*
X141779512Y-75253563D01*
X141834086Y-75209940D01*
X141903585Y-75202746D01*
X141965940Y-75234268D01*
X141982660Y-75253564D01*
X142046405Y-75344601D01*
X142213499Y-75511695D01*
X142270351Y-75551503D01*
X142407065Y-75647232D01*
X142407067Y-75647233D01*
X142407070Y-75647235D01*
X142621237Y-75747103D01*
X142849492Y-75808263D01*
X143037818Y-75824739D01*
X143084899Y-75828859D01*
X143084900Y-75828859D01*
X143084901Y-75828859D01*
X143124134Y-75825426D01*
X143320308Y-75808263D01*
X143548563Y-75747103D01*
X143762730Y-75647235D01*
X143956301Y-75511695D01*
X144123395Y-75344601D01*
X144258935Y-75151030D01*
X144358803Y-74936863D01*
X144419963Y-74708608D01*
X144440559Y-74473200D01*
X144419963Y-74237792D01*
X144358803Y-74009537D01*
X144258935Y-73795371D01*
X144230169Y-73754288D01*
X144123394Y-73601797D01*
X143956302Y-73434706D01*
X143956301Y-73434705D01*
X143857599Y-73365593D01*
X143813976Y-73311017D01*
X143806783Y-73241518D01*
X143838305Y-73179164D01*
X143857596Y-73162448D01*
X144048901Y-73028495D01*
X144215995Y-72861401D01*
X144351535Y-72667830D01*
X144451403Y-72453663D01*
X144512563Y-72225408D01*
X144533159Y-71990000D01*
X144512563Y-71754592D01*
X144494354Y-71686635D01*
X144493832Y-71684687D01*
X144495495Y-71614838D01*
X144525924Y-71564915D01*
X145685167Y-70405672D01*
X145746489Y-70372189D01*
X145816181Y-70377173D01*
X145872114Y-70419045D01*
X145896531Y-70484509D01*
X145896847Y-70493355D01*
X145896847Y-84066462D01*
X145896847Y-84066464D01*
X145896846Y-84066464D01*
X145921936Y-84192595D01*
X145921938Y-84192601D01*
X145957538Y-84278548D01*
X145971155Y-84311421D01*
X146042606Y-84418357D01*
X146042609Y-84418361D01*
X146042610Y-84418362D01*
X149744102Y-88119853D01*
X149777587Y-88181176D01*
X149780421Y-88207534D01*
X149780421Y-89008332D01*
X149780422Y-89008350D01*
X149790921Y-89111127D01*
X149790922Y-89111130D01*
X149844493Y-89272795D01*
X149846107Y-89277665D01*
X149938209Y-89426987D01*
X150062265Y-89551043D01*
X150126902Y-89590911D01*
X150173626Y-89642857D01*
X150184849Y-89711820D01*
X150157006Y-89775902D01*
X150149487Y-89784130D01*
X150041885Y-89891732D01*
X149940116Y-90031806D01*
X149861512Y-90186075D01*
X149808006Y-90350746D01*
X149806805Y-90358330D01*
X149806806Y-90358331D01*
X150875591Y-90358331D01*
X150855846Y-90378076D01*
X150806477Y-90463586D01*
X150780921Y-90558961D01*
X150780921Y-90657701D01*
X150806477Y-90753076D01*
X150855846Y-90838586D01*
X150875591Y-90858331D01*
X149806806Y-90858331D01*
X149808006Y-90865915D01*
X149861512Y-91030586D01*
X149940116Y-91184855D01*
X150041888Y-91324933D01*
X150164318Y-91447363D01*
X150304396Y-91549135D01*
X150458663Y-91627739D01*
X150623336Y-91681245D01*
X150794350Y-91708331D01*
X150905921Y-91708331D01*
X150905921Y-90888661D01*
X150925666Y-90908406D01*
X151011176Y-90957775D01*
X151106551Y-90983331D01*
X151205291Y-90983331D01*
X151300666Y-90957775D01*
X151386176Y-90908406D01*
X151405921Y-90888661D01*
X151405921Y-91708331D01*
X151517492Y-91708331D01*
X151688505Y-91681245D01*
X151853178Y-91627739D01*
X152007445Y-91549135D01*
X152147523Y-91447363D01*
X152269953Y-91324933D01*
X152371725Y-91184855D01*
X152450329Y-91030586D01*
X152503835Y-90865915D01*
X152505036Y-90858331D01*
X151436251Y-90858331D01*
X151455996Y-90838586D01*
X151505365Y-90753076D01*
X151530921Y-90657701D01*
X151530921Y-90558961D01*
X151505365Y-90463586D01*
X151455996Y-90378076D01*
X151436251Y-90358331D01*
X152505036Y-90358331D01*
X152505036Y-90358330D01*
X152503835Y-90350746D01*
X152450329Y-90186075D01*
X152371725Y-90031806D01*
X152269953Y-89891728D01*
X152162355Y-89784130D01*
X152128870Y-89722807D01*
X152133854Y-89653115D01*
X152175726Y-89597182D01*
X152184916Y-89590925D01*
X152249577Y-89551043D01*
X152373633Y-89426987D01*
X152465735Y-89277665D01*
X152520920Y-89111128D01*
X152531421Y-89008340D01*
X152531420Y-88208323D01*
X152531339Y-88207534D01*
X152520920Y-88105534D01*
X152520919Y-88105531D01*
X152497434Y-88034658D01*
X152465735Y-87938997D01*
X152373633Y-87789675D01*
X152249577Y-87665619D01*
X152156809Y-87608400D01*
X152100257Y-87573518D01*
X152100252Y-87573516D01*
X152098783Y-87573029D01*
X151933718Y-87518332D01*
X151933716Y-87518331D01*
X151830937Y-87507831D01*
X151830930Y-87507831D01*
X151030123Y-87507831D01*
X150963084Y-87488146D01*
X150942442Y-87471512D01*
X147238966Y-83768035D01*
X147205481Y-83706712D01*
X147202647Y-83680354D01*
X147202647Y-78599673D01*
X147222332Y-78532634D01*
X147275136Y-78486879D01*
X147344294Y-78476935D01*
X147392618Y-78494678D01*
X147524639Y-78577633D01*
X147694906Y-78637212D01*
X147737655Y-78642028D01*
X147792653Y-78662140D01*
X147801654Y-78668155D01*
X147801668Y-78668171D01*
X147801672Y-78668167D01*
X147804551Y-78670091D01*
X147804550Y-78670091D01*
X147839352Y-78684506D01*
X147923373Y-78719309D01*
X147923377Y-78719309D01*
X147923378Y-78719310D01*
X148049509Y-78744400D01*
X148049512Y-78744400D01*
X148055503Y-78744400D01*
X148122542Y-78764085D01*
X148168297Y-78816889D01*
X148174717Y-78834284D01*
X148211991Y-78964549D01*
X148306202Y-79144907D01*
X148340977Y-79187555D01*
X148418915Y-79283139D01*
X148446024Y-79347536D01*
X148434015Y-79416365D01*
X148418915Y-79439861D01*
X148321402Y-79559452D01*
X148306202Y-79578093D01*
X148259096Y-79668272D01*
X148211989Y-79758454D01*
X148167232Y-79914876D01*
X148161606Y-79934541D01*
X148156014Y-79954083D01*
X148156013Y-79954086D01*
X148148507Y-80038516D01*
X148146185Y-80064641D01*
X148145400Y-80073466D01*
X148145400Y-81189528D01*
X148145401Y-81189534D01*
X148156013Y-81308915D01*
X148211989Y-81504545D01*
X148211990Y-81504548D01*
X148211991Y-81504549D01*
X148306202Y-81684907D01*
X148306204Y-81684909D01*
X148418915Y-81823139D01*
X148446024Y-81887536D01*
X148434015Y-81956365D01*
X148418915Y-81979861D01*
X148306204Y-82118090D01*
X148211989Y-82298454D01*
X148156014Y-82494083D01*
X148156013Y-82494086D01*
X148145400Y-82613466D01*
X148145400Y-83729528D01*
X148145401Y-83729534D01*
X148156013Y-83848915D01*
X148211989Y-84044545D01*
X148211990Y-84044548D01*
X148211991Y-84044549D01*
X148306202Y-84224907D01*
X148306204Y-84224909D01*
X148434790Y-84382609D01*
X148528703Y-84459184D01*
X148592493Y-84511198D01*
X148772851Y-84605409D01*
X148968482Y-84661386D01*
X149087863Y-84672000D01*
X150953936Y-84671999D01*
X151073318Y-84661386D01*
X151268949Y-84605409D01*
X151449307Y-84511198D01*
X151607009Y-84382609D01*
X151735598Y-84224907D01*
X151829809Y-84044549D01*
X151885786Y-83848918D01*
X151896400Y-83729537D01*
X151896399Y-82883733D01*
X151916083Y-82816695D01*
X151932713Y-82796058D01*
X152759887Y-81968884D01*
X152821208Y-81935401D01*
X152833690Y-81933346D01*
X152837092Y-81932963D01*
X153007359Y-81873384D01*
X153160099Y-81777411D01*
X153163522Y-81773987D01*
X153224841Y-81740500D01*
X153294533Y-81745481D01*
X153350469Y-81787349D01*
X153374890Y-81852812D01*
X153369867Y-81897660D01*
X153347050Y-81972876D01*
X153327734Y-82169007D01*
X153347050Y-82365136D01*
X153356657Y-82396806D01*
X153401448Y-82544462D01*
X153404263Y-82553740D01*
X153497161Y-82727539D01*
X153497165Y-82727546D01*
X153622191Y-82879890D01*
X153774535Y-83004916D01*
X153774542Y-83004920D01*
X153948341Y-83097818D01*
X153948344Y-83097818D01*
X153948348Y-83097821D01*
X154136943Y-83155031D01*
X154333075Y-83174348D01*
X154529207Y-83155031D01*
X154717802Y-83097821D01*
X154891613Y-83004917D01*
X155043958Y-82879890D01*
X155168985Y-82727545D01*
X155229963Y-82613463D01*
X155261886Y-82553740D01*
X155261886Y-82553739D01*
X155261889Y-82553734D01*
X155319099Y-82365139D01*
X155338416Y-82169007D01*
X155319099Y-81972875D01*
X155261889Y-81784280D01*
X155261886Y-81784276D01*
X155261886Y-81784273D01*
X155168988Y-81610474D01*
X155168984Y-81610467D01*
X155043960Y-81458125D01*
X155031271Y-81447712D01*
X154991937Y-81389965D01*
X154985937Y-81351859D01*
X154985937Y-81291060D01*
X155005622Y-81224021D01*
X155058426Y-81178266D01*
X155109937Y-81167060D01*
X155157304Y-81167060D01*
X155220424Y-81184327D01*
X155358363Y-81265904D01*
X155388952Y-81274791D01*
X155516187Y-81311757D01*
X155516190Y-81311757D01*
X155516192Y-81311758D01*
X155553067Y-81314660D01*
X155553075Y-81314660D01*
X156709447Y-81314660D01*
X156709455Y-81314660D01*
X156746330Y-81311758D01*
X156746332Y-81311757D01*
X156746334Y-81311757D01*
X156817572Y-81291060D01*
X156904159Y-81265904D01*
X157045626Y-81182241D01*
X157161842Y-81066025D01*
X157162028Y-81065709D01*
X157162238Y-81065513D01*
X157166622Y-81059862D01*
X157167533Y-81060569D01*
X157213097Y-81018026D01*
X157281838Y-81005522D01*
X157346428Y-81032166D01*
X157370616Y-81060081D01*
X157370900Y-81059862D01*
X157374940Y-81065071D01*
X157375493Y-81065708D01*
X157375680Y-81066025D01*
X157375682Y-81066027D01*
X157375684Y-81066030D01*
X157491890Y-81182236D01*
X157491894Y-81182239D01*
X157491896Y-81182241D01*
X157633363Y-81265904D01*
X157663956Y-81274792D01*
X157722841Y-81312397D01*
X157752048Y-81375869D01*
X157753361Y-81393868D01*
X157753361Y-84617229D01*
X157733676Y-84684268D01*
X157717042Y-84704910D01*
X156947324Y-85474627D01*
X156886001Y-85508112D01*
X156859643Y-85510946D01*
X156058845Y-85510946D01*
X156058827Y-85510947D01*
X155956050Y-85521446D01*
X155956047Y-85521447D01*
X155789515Y-85576631D01*
X155789510Y-85576633D01*
X155640189Y-85668735D01*
X155516136Y-85792788D01*
X155424034Y-85942109D01*
X155424033Y-85942112D01*
X155368848Y-86108649D01*
X155368848Y-86108650D01*
X155368847Y-86108650D01*
X155358347Y-86211429D01*
X155358347Y-87011447D01*
X155358348Y-87011465D01*
X155368847Y-87114242D01*
X155368848Y-87114245D01*
X155422519Y-87276212D01*
X155424033Y-87280780D01*
X155516135Y-87430102D01*
X155640191Y-87554158D01*
X155671579Y-87573518D01*
X155704390Y-87593756D01*
X155751115Y-87645704D01*
X155762336Y-87714667D01*
X155734493Y-87778749D01*
X155726975Y-87786976D01*
X155619432Y-87894519D01*
X155517615Y-88034657D01*
X155438975Y-88188998D01*
X155385444Y-88353748D01*
X155358347Y-88524835D01*
X155358347Y-88698056D01*
X155374461Y-88799800D01*
X155385445Y-88869147D01*
X155438974Y-89033891D01*
X155517615Y-89188234D01*
X155619433Y-89328374D01*
X155741919Y-89450860D01*
X155825296Y-89511437D01*
X155867961Y-89566768D01*
X155873940Y-89636381D01*
X155841334Y-89698176D01*
X155825295Y-89712073D01*
X155742251Y-89772407D01*
X155742246Y-89772411D01*
X155619814Y-89894843D01*
X155518042Y-90034921D01*
X155439438Y-90189190D01*
X155385932Y-90353861D01*
X155384731Y-90361445D01*
X155384732Y-90361446D01*
X156453517Y-90361446D01*
X156433772Y-90381191D01*
X156384403Y-90466701D01*
X156358847Y-90562076D01*
X156358847Y-90660816D01*
X156384403Y-90756191D01*
X156433772Y-90841701D01*
X156453517Y-90861446D01*
X155384732Y-90861446D01*
X155385932Y-90869030D01*
X155439438Y-91033701D01*
X155518042Y-91187970D01*
X155619814Y-91328048D01*
X155742244Y-91450478D01*
X155882322Y-91552250D01*
X156036589Y-91630854D01*
X156201262Y-91684360D01*
X156372276Y-91711446D01*
X156483847Y-91711446D01*
X156483847Y-90891776D01*
X156503592Y-90911521D01*
X156589102Y-90960890D01*
X156684477Y-90986446D01*
X156783217Y-90986446D01*
X156878592Y-90960890D01*
X156964102Y-90911521D01*
X156983847Y-90891776D01*
X156983847Y-91711446D01*
X157095418Y-91711446D01*
X157266431Y-91684360D01*
X157431104Y-91630854D01*
X157585371Y-91552250D01*
X157725449Y-91450478D01*
X157847879Y-91328048D01*
X157949651Y-91187970D01*
X158028255Y-91033701D01*
X158081761Y-90869030D01*
X158082962Y-90861446D01*
X157014177Y-90861446D01*
X157033922Y-90841701D01*
X157083291Y-90756191D01*
X157108847Y-90660816D01*
X157108847Y-90562076D01*
X157083291Y-90466701D01*
X157033922Y-90381191D01*
X157014177Y-90361446D01*
X158082962Y-90361446D01*
X158082962Y-90361445D01*
X158081761Y-90353861D01*
X158028255Y-90189190D01*
X157949651Y-90034921D01*
X157847879Y-89894843D01*
X157725449Y-89772413D01*
X157642398Y-89712074D01*
X157599732Y-89656744D01*
X157593753Y-89587131D01*
X157626358Y-89525335D01*
X157642398Y-89511437D01*
X157725775Y-89450860D01*
X157848261Y-89328374D01*
X157857644Y-89315459D01*
X157912973Y-89272795D01*
X157957961Y-89264346D01*
X160013534Y-89264346D01*
X160079506Y-89283352D01*
X160151159Y-89328375D01*
X160187132Y-89350978D01*
X160357399Y-89410557D01*
X160357404Y-89410558D01*
X160536650Y-89430754D01*
X160536654Y-89430754D01*
X160536658Y-89430754D01*
X160715903Y-89410558D01*
X160715906Y-89410557D01*
X160715909Y-89410557D01*
X160886176Y-89350978D01*
X161038916Y-89255005D01*
X161166470Y-89127451D01*
X161262443Y-88974711D01*
X161322022Y-88804444D01*
X161322023Y-88804438D01*
X161342219Y-88625192D01*
X161342219Y-88625185D01*
X161322023Y-88445939D01*
X161322022Y-88445934D01*
X161289764Y-88353745D01*
X161262443Y-88275667D01*
X161166470Y-88122927D01*
X161038916Y-87995373D01*
X160999821Y-87970808D01*
X160886177Y-87899400D01*
X160715908Y-87839820D01*
X160715903Y-87839819D01*
X160536658Y-87819624D01*
X160536650Y-87819624D01*
X160357404Y-87839819D01*
X160357399Y-87839820D01*
X160187129Y-87899400D01*
X160123251Y-87939539D01*
X160057278Y-87958546D01*
X157957961Y-87958546D01*
X157890922Y-87938861D01*
X157857644Y-87907433D01*
X157848261Y-87894518D01*
X157740719Y-87786976D01*
X157707234Y-87725653D01*
X157712218Y-87655961D01*
X157754090Y-87600028D01*
X157763304Y-87593756D01*
X157796115Y-87573518D01*
X157827503Y-87554158D01*
X157951559Y-87430102D01*
X158043661Y-87280780D01*
X158098846Y-87114243D01*
X158109347Y-87011455D01*
X158109346Y-86211438D01*
X158109346Y-86211437D01*
X158109346Y-86210648D01*
X158129030Y-86143609D01*
X158145665Y-86122967D01*
X158913399Y-85355234D01*
X158913400Y-85355233D01*
X158913400Y-85355232D01*
X158913402Y-85355231D01*
X158984854Y-85248295D01*
X159034070Y-85129475D01*
X159059161Y-85003337D01*
X159059161Y-84874727D01*
X159059161Y-81393868D01*
X159078846Y-81326829D01*
X159131650Y-81281074D01*
X159148559Y-81274793D01*
X159179159Y-81265904D01*
X159317097Y-81184327D01*
X159380218Y-81167060D01*
X159860600Y-81167060D01*
X159927639Y-81186745D01*
X159973394Y-81239549D01*
X159984600Y-81291060D01*
X159984600Y-81385868D01*
X159964915Y-81452907D01*
X159942910Y-81477627D01*
X159943092Y-81477809D01*
X159939970Y-81480929D01*
X159939271Y-81481716D01*
X159938788Y-81482111D01*
X159813763Y-81634454D01*
X159813759Y-81634461D01*
X159720861Y-81808260D01*
X159663648Y-81996864D01*
X159644332Y-82192994D01*
X159663648Y-82389123D01*
X159669235Y-82407540D01*
X159713584Y-82553740D01*
X159720861Y-82577727D01*
X159813759Y-82751526D01*
X159813763Y-82751533D01*
X159938789Y-82903877D01*
X160091133Y-83028903D01*
X160091140Y-83028907D01*
X160264939Y-83121805D01*
X160264942Y-83121805D01*
X160264946Y-83121808D01*
X160453541Y-83179018D01*
X160649673Y-83198335D01*
X160845805Y-83179018D01*
X161034400Y-83121808D01*
X161079277Y-83097821D01*
X161208205Y-83028907D01*
X161208211Y-83028904D01*
X161360556Y-82903877D01*
X161412473Y-82840616D01*
X161489448Y-82746823D01*
X161490685Y-82747838D01*
X161538331Y-82708020D01*
X161607656Y-82699312D01*
X161670684Y-82729466D01*
X161707403Y-82788909D01*
X161711822Y-82821715D01*
X161711822Y-92843524D01*
X161692137Y-92910563D01*
X161639333Y-92956318D01*
X161570175Y-92966262D01*
X161523753Y-92945062D01*
X161499576Y-92941475D01*
X160991053Y-93449999D01*
X160991053Y-93450000D01*
X161499575Y-93958523D01*
X161520279Y-93955452D01*
X161527426Y-93948177D01*
X161595563Y-93932716D01*
X161661243Y-93956547D01*
X161703612Y-94012105D01*
X161711822Y-94056474D01*
X161711822Y-97713882D01*
X161692137Y-97780921D01*
X161639333Y-97826676D01*
X161587822Y-97837882D01*
X159012472Y-97837882D01*
X158945433Y-97818197D01*
X158899678Y-97765393D01*
X158889734Y-97696235D01*
X158918759Y-97632679D01*
X158969139Y-97597700D01*
X159021428Y-97578197D01*
X159021427Y-97578197D01*
X159021431Y-97578196D01*
X159136646Y-97491946D01*
X159222896Y-97376731D01*
X159273191Y-97241883D01*
X159279600Y-97182273D01*
X159279599Y-96527728D01*
X159273191Y-96468117D01*
X159269425Y-96458021D01*
X159222897Y-96333271D01*
X159222893Y-96333264D01*
X159136647Y-96218055D01*
X159136644Y-96218052D01*
X159021435Y-96131806D01*
X159021428Y-96131802D01*
X158886582Y-96081508D01*
X158886583Y-96081508D01*
X158826983Y-96075101D01*
X158826981Y-96075100D01*
X158826973Y-96075100D01*
X158826965Y-96075100D01*
X158715420Y-96075100D01*
X158648381Y-96055415D01*
X158612322Y-96019997D01*
X158608519Y-96014305D01*
X158575040Y-95964200D01*
X158575037Y-95964196D01*
X158551922Y-95941081D01*
X158518437Y-95879758D01*
X158523421Y-95810066D01*
X158565293Y-95754133D01*
X158630757Y-95729716D01*
X158639603Y-95729400D01*
X158826928Y-95729400D01*
X158826944Y-95729399D01*
X158886472Y-95722998D01*
X158886479Y-95722996D01*
X159021186Y-95672754D01*
X159021193Y-95672750D01*
X159136287Y-95586590D01*
X159136290Y-95586587D01*
X159222450Y-95471493D01*
X159222454Y-95471486D01*
X159272696Y-95336779D01*
X159272698Y-95336772D01*
X159279099Y-95277244D01*
X159279100Y-95277227D01*
X159279100Y-95200000D01*
X157941900Y-95200000D01*
X157874861Y-95180315D01*
X157829106Y-95127511D01*
X157817900Y-95076000D01*
X157817900Y-94700000D01*
X158317900Y-94700000D01*
X159279100Y-94700000D01*
X159279100Y-94622772D01*
X159279099Y-94622755D01*
X159272698Y-94563227D01*
X159272696Y-94563220D01*
X159222454Y-94428513D01*
X159222450Y-94428506D01*
X159136290Y-94313412D01*
X159136287Y-94313409D01*
X159134505Y-94312075D01*
X160128976Y-94312075D01*
X160252962Y-94378348D01*
X160441469Y-94435531D01*
X160441465Y-94435531D01*
X160637500Y-94454838D01*
X160833532Y-94435531D01*
X161022037Y-94378348D01*
X161146023Y-94312076D01*
X161146023Y-94312075D01*
X160637501Y-93803553D01*
X160637500Y-93803553D01*
X160128976Y-94312075D01*
X159134505Y-94312075D01*
X159021193Y-94227249D01*
X159021186Y-94227245D01*
X158886479Y-94177003D01*
X158886472Y-94177001D01*
X158826944Y-94170600D01*
X158317900Y-94170600D01*
X158317900Y-94700000D01*
X157817900Y-94700000D01*
X157817900Y-94170600D01*
X157308855Y-94170600D01*
X157249327Y-94177001D01*
X157249320Y-94177003D01*
X157114613Y-94227245D01*
X157114606Y-94227249D01*
X156992412Y-94318725D01*
X156991136Y-94317021D01*
X156940300Y-94344771D01*
X156870609Y-94339779D01*
X156866505Y-94338163D01*
X156827948Y-94322192D01*
X156827938Y-94322189D01*
X156701807Y-94297100D01*
X156701805Y-94297100D01*
X154147539Y-94297100D01*
X154080500Y-94277415D01*
X154048769Y-94244802D01*
X154047599Y-94245720D01*
X154042971Y-94239813D01*
X153922688Y-94119530D01*
X153788842Y-94038617D01*
X153777106Y-94031522D01*
X153614696Y-93980914D01*
X153614694Y-93980913D01*
X153614692Y-93980913D01*
X153565278Y-93976423D01*
X153544116Y-93974500D01*
X153030884Y-93974500D01*
X153011645Y-93976248D01*
X152960307Y-93980913D01*
X152797893Y-94031522D01*
X152652311Y-94119530D01*
X152652310Y-94119531D01*
X152550181Y-94221661D01*
X152488858Y-94255146D01*
X152419166Y-94250162D01*
X152374819Y-94221661D01*
X152272688Y-94119530D01*
X152138842Y-94038617D01*
X152127106Y-94031522D01*
X151964696Y-93980914D01*
X151964694Y-93980913D01*
X151964692Y-93980913D01*
X151915278Y-93976423D01*
X151894116Y-93974500D01*
X151894113Y-93974500D01*
X151636702Y-93974500D01*
X151569663Y-93954815D01*
X151549021Y-93938181D01*
X151060841Y-93450000D01*
X159632661Y-93450000D01*
X159651968Y-93646032D01*
X159709151Y-93834537D01*
X159775423Y-93958522D01*
X160283947Y-93450000D01*
X160283947Y-93449999D01*
X159775423Y-92941476D01*
X159709149Y-93065466D01*
X159651968Y-93253967D01*
X159632661Y-93450000D01*
X151060841Y-93450000D01*
X150453103Y-92842261D01*
X150453102Y-92842260D01*
X150453098Y-92842257D01*
X150346162Y-92770806D01*
X150227342Y-92721589D01*
X150227336Y-92721587D01*
X150101205Y-92696498D01*
X150101203Y-92696498D01*
X141010171Y-92696498D01*
X140943132Y-92676813D01*
X140922490Y-92660179D01*
X140850234Y-92587923D01*
X160128976Y-92587923D01*
X160637500Y-93096447D01*
X160637501Y-93096447D01*
X161146022Y-92587923D01*
X161022037Y-92521651D01*
X160833530Y-92464468D01*
X160833534Y-92464468D01*
X160637500Y-92445161D01*
X160441467Y-92464468D01*
X160252966Y-92521649D01*
X160128976Y-92587923D01*
X140850234Y-92587923D01*
X139803972Y-91541661D01*
X139770487Y-91480338D01*
X139775471Y-91410646D01*
X139817343Y-91354713D01*
X139882807Y-91330296D01*
X139934985Y-91337798D01*
X139939869Y-91339619D01*
X139939871Y-91339620D01*
X139946799Y-91340364D01*
X139999482Y-91346029D01*
X141898627Y-91346028D01*
X141958238Y-91339620D01*
X142093086Y-91289325D01*
X142208301Y-91203075D01*
X142294551Y-91087860D01*
X142344846Y-90953012D01*
X142351255Y-90893402D01*
X142351254Y-88994257D01*
X142344846Y-88934646D01*
X142334948Y-88908110D01*
X142329965Y-88838420D01*
X142363449Y-88777097D01*
X142424772Y-88743612D01*
X142494464Y-88748596D01*
X142538812Y-88777097D01*
X142877185Y-89115470D01*
X142877188Y-89115472D01*
X142953453Y-89166430D01*
X142984123Y-89186923D01*
X143102943Y-89236140D01*
X143102947Y-89236140D01*
X143102948Y-89236141D01*
X143229079Y-89261231D01*
X143229082Y-89261231D01*
X144186254Y-89261231D01*
X144253293Y-89280916D01*
X144291792Y-89320133D01*
X144357700Y-89426987D01*
X144481756Y-89551043D01*
X144546393Y-89590911D01*
X144593117Y-89642857D01*
X144604340Y-89711820D01*
X144576497Y-89775902D01*
X144568978Y-89784130D01*
X144461376Y-89891732D01*
X144359607Y-90031806D01*
X144281003Y-90186075D01*
X144227497Y-90350746D01*
X144226296Y-90358330D01*
X144226297Y-90358331D01*
X145295082Y-90358331D01*
X145275337Y-90378076D01*
X145225968Y-90463586D01*
X145200412Y-90558961D01*
X145200412Y-90657701D01*
X145225968Y-90753076D01*
X145275337Y-90838586D01*
X145295082Y-90858331D01*
X144226297Y-90858331D01*
X144227497Y-90865915D01*
X144281003Y-91030586D01*
X144359607Y-91184855D01*
X144461379Y-91324933D01*
X144583809Y-91447363D01*
X144723887Y-91549135D01*
X144878154Y-91627739D01*
X145042827Y-91681245D01*
X145213841Y-91708331D01*
X145325412Y-91708331D01*
X145325412Y-90888661D01*
X145345157Y-90908406D01*
X145430667Y-90957775D01*
X145526042Y-90983331D01*
X145624782Y-90983331D01*
X145720157Y-90957775D01*
X145805667Y-90908406D01*
X145825412Y-90888661D01*
X145825412Y-91708331D01*
X145936983Y-91708331D01*
X146107996Y-91681245D01*
X146272669Y-91627739D01*
X146426936Y-91549135D01*
X146567014Y-91447363D01*
X146689444Y-91324933D01*
X146791216Y-91184855D01*
X146869820Y-91030586D01*
X146923326Y-90865915D01*
X146924527Y-90858331D01*
X145855742Y-90858331D01*
X145875487Y-90838586D01*
X145924856Y-90753076D01*
X145950412Y-90657701D01*
X145950412Y-90558961D01*
X145924856Y-90463586D01*
X145875487Y-90378076D01*
X145855742Y-90358331D01*
X146924527Y-90358331D01*
X146924527Y-90358330D01*
X146923326Y-90350746D01*
X146869820Y-90186075D01*
X146791216Y-90031806D01*
X146689444Y-89891728D01*
X146581846Y-89784130D01*
X146548361Y-89722807D01*
X146553345Y-89653115D01*
X146595217Y-89597182D01*
X146604407Y-89590925D01*
X146669068Y-89551043D01*
X146793124Y-89426987D01*
X146885226Y-89277665D01*
X146940411Y-89111128D01*
X146950912Y-89008340D01*
X146950911Y-88208323D01*
X146950830Y-88207534D01*
X146940411Y-88105534D01*
X146940410Y-88105531D01*
X146916925Y-88034658D01*
X146885226Y-87938997D01*
X146793124Y-87789675D01*
X146669068Y-87665619D01*
X146576300Y-87608400D01*
X146519748Y-87573518D01*
X146519743Y-87573516D01*
X146518274Y-87573029D01*
X146353209Y-87518332D01*
X146353207Y-87518331D01*
X146250428Y-87507831D01*
X146250421Y-87507831D01*
X145449614Y-87507831D01*
X145382575Y-87488146D01*
X145361933Y-87471512D01*
X140818719Y-82928297D01*
X140785234Y-82866974D01*
X140782400Y-82840616D01*
X140782400Y-82805164D01*
X140802085Y-82738125D01*
X140840425Y-82700172D01*
X140891076Y-82668347D01*
X141014647Y-82544776D01*
X141100878Y-82407539D01*
X141698712Y-82407539D01*
X141784746Y-82544462D01*
X141908237Y-82667953D01*
X142056113Y-82760869D01*
X142220960Y-82818551D01*
X142350969Y-82833199D01*
X142350973Y-82833200D01*
X142988027Y-82833200D01*
X142988030Y-82833199D01*
X143118039Y-82818551D01*
X143282886Y-82760869D01*
X143430762Y-82667953D01*
X143554256Y-82544459D01*
X143640287Y-82407540D01*
X142669500Y-81436753D01*
X141698712Y-82407539D01*
X141100878Y-82407539D01*
X141107622Y-82396806D01*
X141165341Y-82231857D01*
X141180000Y-82101752D01*
X141180000Y-81779647D01*
X141619500Y-81779647D01*
X142315947Y-81083200D01*
X142315947Y-81083199D01*
X143023053Y-81083199D01*
X143023053Y-81083200D01*
X143719499Y-81779647D01*
X143719500Y-81779646D01*
X143719500Y-80386753D01*
X143719499Y-80386752D01*
X143023053Y-81083199D01*
X142315947Y-81083199D01*
X141619500Y-80386752D01*
X141619500Y-81779647D01*
X141180000Y-81779647D01*
X141180000Y-80064648D01*
X141167543Y-79954083D01*
X141165342Y-79934551D01*
X141165341Y-79934549D01*
X141165341Y-79934543D01*
X141107622Y-79769594D01*
X141100877Y-79758859D01*
X141698712Y-79758859D01*
X142669500Y-80729647D01*
X142669501Y-80729647D01*
X143640286Y-79758859D01*
X143554253Y-79621937D01*
X143430762Y-79498446D01*
X143282886Y-79405530D01*
X143118039Y-79347848D01*
X142988030Y-79333200D01*
X142350969Y-79333200D01*
X142220960Y-79347848D01*
X142056113Y-79405530D01*
X141908237Y-79498446D01*
X141784745Y-79621938D01*
X141698712Y-79758859D01*
X141100877Y-79758859D01*
X141014647Y-79621624D01*
X140891076Y-79498053D01*
X140743106Y-79405078D01*
X140743105Y-79405077D01*
X140743104Y-79405077D01*
X140578158Y-79347359D01*
X140578148Y-79347357D01*
X140448058Y-79332700D01*
X140448052Y-79332700D01*
X139810948Y-79332700D01*
X139810941Y-79332700D01*
X139680851Y-79347357D01*
X139680841Y-79347359D01*
X139515895Y-79405077D01*
X139367923Y-79498053D01*
X139244353Y-79621623D01*
X139151377Y-79769595D01*
X139093659Y-79934541D01*
X139093657Y-79934551D01*
X139079000Y-80064641D01*
X139079000Y-82101758D01*
X139093657Y-82231848D01*
X139093659Y-82231858D01*
X139151377Y-82396804D01*
X139151378Y-82396806D01*
X139244353Y-82544776D01*
X139367924Y-82668347D01*
X139418573Y-82700171D01*
X139464862Y-82752503D01*
X139476600Y-82805164D01*
X139476600Y-83226724D01*
X139476600Y-83226726D01*
X139476599Y-83226726D01*
X139500972Y-83349251D01*
X139501688Y-83352851D01*
X139501689Y-83352857D01*
X139501691Y-83352863D01*
X139550908Y-83471683D01*
X139622359Y-83578619D01*
X139622362Y-83578623D01*
X139622363Y-83578624D01*
X143787491Y-87743750D01*
X143820976Y-87805073D01*
X143815992Y-87874765D01*
X143774120Y-87930698D01*
X143708656Y-87955115D01*
X143699810Y-87955431D01*
X143615189Y-87955431D01*
X143548150Y-87935746D01*
X143527508Y-87919112D01*
X142377473Y-86769075D01*
X142377472Y-86769074D01*
X142377468Y-86769071D01*
X142270532Y-86697620D01*
X142151712Y-86648403D01*
X142151708Y-86648402D01*
X142146667Y-86647399D01*
X142141625Y-86646396D01*
X142141622Y-86646395D01*
X142141622Y-86646396D01*
X142025575Y-86623312D01*
X142025573Y-86623312D01*
X141825391Y-86623312D01*
X141758352Y-86603627D01*
X141729539Y-86577978D01*
X141719156Y-86565326D01*
X141566814Y-86440302D01*
X141566807Y-86440298D01*
X141393008Y-86347400D01*
X141393002Y-86347398D01*
X141204407Y-86290188D01*
X141204404Y-86290187D01*
X141008275Y-86270871D01*
X140812145Y-86290187D01*
X140623541Y-86347400D01*
X140449742Y-86440298D01*
X140449735Y-86440302D01*
X140297391Y-86565328D01*
X140172365Y-86717672D01*
X140172361Y-86717679D01*
X140079463Y-86891478D01*
X140022250Y-87080082D01*
X140002934Y-87276212D01*
X140022250Y-87472341D01*
X140033016Y-87507831D01*
X140074839Y-87645704D01*
X140079463Y-87660945D01*
X140172361Y-87834744D01*
X140172365Y-87834751D01*
X140297391Y-87987095D01*
X140449735Y-88112121D01*
X140449742Y-88112125D01*
X140623541Y-88205023D01*
X140623544Y-88205023D01*
X140623548Y-88205026D01*
X140812143Y-88262236D01*
X141008275Y-88281553D01*
X141204407Y-88262236D01*
X141393002Y-88205026D01*
X141422989Y-88188998D01*
X141566807Y-88112125D01*
X141566813Y-88112122D01*
X141648568Y-88045026D01*
X141712877Y-88017714D01*
X141781745Y-88029505D01*
X141814914Y-88053199D01*
X142115786Y-88354071D01*
X142149271Y-88415394D01*
X142144287Y-88485086D01*
X142102415Y-88541019D01*
X142036951Y-88565436D01*
X141984773Y-88557934D01*
X141958240Y-88548038D01*
X141958238Y-88548037D01*
X141898638Y-88541630D01*
X141898636Y-88541629D01*
X141898628Y-88541629D01*
X141898619Y-88541629D01*
X139999484Y-88541629D01*
X139999478Y-88541630D01*
X139939871Y-88548037D01*
X139805026Y-88598331D01*
X139805019Y-88598335D01*
X139689810Y-88684581D01*
X139689807Y-88684584D01*
X139603561Y-88799793D01*
X139603557Y-88799800D01*
X139553263Y-88934646D01*
X139548956Y-88974711D01*
X139546856Y-88994252D01*
X139546855Y-88994264D01*
X139546855Y-90893399D01*
X139546856Y-90893405D01*
X139553264Y-90953014D01*
X139555087Y-90957903D01*
X139560068Y-91027595D01*
X139526579Y-91088917D01*
X139465254Y-91122398D01*
X139395562Y-91117409D01*
X139351223Y-91088911D01*
X137902829Y-89640517D01*
X137869344Y-89579194D01*
X137866510Y-89552836D01*
X137866510Y-70441712D01*
X137886195Y-70374673D01*
X137938999Y-70328918D01*
X138008157Y-70318974D01*
X138071713Y-70347999D01*
G37*
%TD.AperFunction*%
%TA.AperFunction,Conductor*%
G36*
X161654861Y-63858567D02*
G01*
X161700616Y-63911371D01*
X161711822Y-63962882D01*
X161711822Y-71249096D01*
X161692137Y-71316135D01*
X161639333Y-71361890D01*
X161570175Y-71371834D01*
X161506619Y-71342809D01*
X161468845Y-71284031D01*
X161466930Y-71276687D01*
X161465574Y-71270749D01*
X161465574Y-71270745D01*
X161405995Y-71100478D01*
X161310022Y-70947738D01*
X161182468Y-70820184D01*
X161158072Y-70804855D01*
X161029729Y-70724211D01*
X160859460Y-70664631D01*
X160859455Y-70664630D01*
X160680210Y-70644435D01*
X160680202Y-70644435D01*
X160500956Y-70664630D01*
X160500951Y-70664631D01*
X160330682Y-70724211D01*
X160177943Y-70820184D01*
X160050390Y-70947737D01*
X159954417Y-71100476D01*
X159894837Y-71270745D01*
X159894836Y-71270750D01*
X159874641Y-71449996D01*
X159874641Y-71450003D01*
X159894836Y-71629249D01*
X159894837Y-71629254D01*
X159954417Y-71799522D01*
X160008300Y-71885276D01*
X160027306Y-71951248D01*
X160027306Y-72715609D01*
X160008300Y-72781580D01*
X159954415Y-72867337D01*
X159894839Y-73037595D01*
X159894836Y-73037608D01*
X159874641Y-73216854D01*
X159874641Y-73216861D01*
X159894836Y-73396107D01*
X159894837Y-73396112D01*
X159954417Y-73566381D01*
X160018705Y-73668694D01*
X160050390Y-73719120D01*
X160177944Y-73846674D01*
X160330684Y-73942647D01*
X160477191Y-73993912D01*
X160500951Y-74002226D01*
X160500956Y-74002227D01*
X160680202Y-74022423D01*
X160680206Y-74022423D01*
X160680210Y-74022423D01*
X160859455Y-74002227D01*
X160859458Y-74002226D01*
X160859461Y-74002226D01*
X161029728Y-73942647D01*
X161182468Y-73846674D01*
X161310022Y-73719120D01*
X161405995Y-73566380D01*
X161465574Y-73396113D01*
X161465575Y-73396107D01*
X161466930Y-73390172D01*
X161501037Y-73329193D01*
X161562697Y-73296333D01*
X161632334Y-73302026D01*
X161687839Y-73344464D01*
X161711590Y-73410173D01*
X161711822Y-73417761D01*
X161711822Y-77968179D01*
X161692137Y-78035218D01*
X161639333Y-78080973D01*
X161570175Y-78090917D01*
X161506619Y-78061892D01*
X161482284Y-78033277D01*
X161460073Y-77997268D01*
X161340232Y-77877427D01*
X161340228Y-77877424D01*
X161195992Y-77788457D01*
X161195981Y-77788452D01*
X161035106Y-77735144D01*
X160935822Y-77725000D01*
X160887500Y-77725000D01*
X160887500Y-78801000D01*
X160867815Y-78868039D01*
X160815011Y-78913794D01*
X160763500Y-78925000D01*
X160511500Y-78925000D01*
X160444461Y-78905315D01*
X160398706Y-78852511D01*
X160387500Y-78801000D01*
X160387500Y-77725000D01*
X160387499Y-77724999D01*
X160339193Y-77725000D01*
X160339175Y-77725001D01*
X160239892Y-77735144D01*
X160079018Y-77788452D01*
X160079007Y-77788457D01*
X159934771Y-77877424D01*
X159934767Y-77877427D01*
X159814926Y-77997268D01*
X159729503Y-78135759D01*
X159677555Y-78182483D01*
X159608592Y-78193704D01*
X159544510Y-78165860D01*
X159536284Y-78158342D01*
X159484965Y-78107023D01*
X159484959Y-78107018D01*
X159472606Y-78098764D01*
X159442954Y-78067434D01*
X159441627Y-78068464D01*
X159436844Y-78062298D01*
X159436842Y-78062295D01*
X159404533Y-78029986D01*
X159371048Y-77968663D01*
X159376032Y-77898971D01*
X159417904Y-77843038D01*
X159453213Y-77824598D01*
X159462264Y-77821598D01*
X159462274Y-77821594D01*
X159606510Y-77732627D01*
X159606514Y-77732624D01*
X159726354Y-77612784D01*
X159726357Y-77612780D01*
X159815324Y-77468544D01*
X159815329Y-77468533D01*
X159868637Y-77307658D01*
X159878781Y-77208374D01*
X159878782Y-77208361D01*
X159878782Y-77160052D01*
X158802782Y-77160052D01*
X158735743Y-77140367D01*
X158689988Y-77087563D01*
X158678782Y-77036052D01*
X158678782Y-76660052D01*
X159178782Y-76660052D01*
X159878781Y-76660052D01*
X159878781Y-76611744D01*
X159878780Y-76611729D01*
X159868637Y-76512444D01*
X159815329Y-76351570D01*
X159815324Y-76351559D01*
X159726357Y-76207323D01*
X159726354Y-76207319D01*
X159606514Y-76087479D01*
X159606510Y-76087476D01*
X159462274Y-75998509D01*
X159462263Y-75998504D01*
X159301388Y-75945196D01*
X159202104Y-75935052D01*
X159178782Y-75935052D01*
X159178782Y-76660052D01*
X158678782Y-76660052D01*
X158678782Y-75935051D01*
X158655475Y-75935052D01*
X158655456Y-75935053D01*
X158556174Y-75945196D01*
X158395300Y-75998504D01*
X158395289Y-75998509D01*
X158251053Y-76087476D01*
X158251047Y-76087480D01*
X158241813Y-76096715D01*
X158180489Y-76130198D01*
X158110797Y-76125211D01*
X158066454Y-76096712D01*
X158056826Y-76087084D01*
X158056822Y-76087081D01*
X157912487Y-75998053D01*
X157912481Y-75998050D01*
X157912479Y-75998049D01*
X157912476Y-75998048D01*
X157751491Y-75944703D01*
X157652134Y-75934552D01*
X157652127Y-75934552D01*
X157377984Y-75934552D01*
X157310945Y-75914867D01*
X157290303Y-75898233D01*
X156141062Y-74748991D01*
X156107577Y-74687668D01*
X156109222Y-74664671D01*
X158335191Y-74664671D01*
X158335191Y-74664678D01*
X158355386Y-74843924D01*
X158355387Y-74843929D01*
X158414967Y-75014198D01*
X158451867Y-75072923D01*
X158510940Y-75166937D01*
X158638494Y-75294491D01*
X158718234Y-75344595D01*
X158762246Y-75372250D01*
X158791234Y-75390464D01*
X158961501Y-75450043D01*
X158961506Y-75450044D01*
X159140752Y-75470240D01*
X159140756Y-75470240D01*
X159140760Y-75470240D01*
X159320005Y-75450044D01*
X159320008Y-75450043D01*
X159320011Y-75450043D01*
X159490278Y-75390464D01*
X159643018Y-75294491D01*
X159770572Y-75166937D01*
X159866545Y-75014197D01*
X159926124Y-74843930D01*
X159934971Y-74765413D01*
X159946321Y-74664678D01*
X159946321Y-74664671D01*
X159926125Y-74485425D01*
X159926124Y-74485420D01*
X159900567Y-74412382D01*
X159866545Y-74315153D01*
X159845399Y-74281500D01*
X159770571Y-74162412D01*
X159643018Y-74034859D01*
X159490279Y-73938886D01*
X159320010Y-73879306D01*
X159320005Y-73879305D01*
X159140760Y-73859110D01*
X159140752Y-73859110D01*
X158961506Y-73879305D01*
X158961501Y-73879306D01*
X158791232Y-73938886D01*
X158638493Y-74034859D01*
X158510940Y-74162412D01*
X158414967Y-74315151D01*
X158355387Y-74485420D01*
X158355386Y-74485425D01*
X158335191Y-74664671D01*
X156109222Y-74664671D01*
X156112561Y-74617976D01*
X156154433Y-74562043D01*
X156219897Y-74537626D01*
X156269698Y-74544269D01*
X156429050Y-74600029D01*
X156429056Y-74600030D01*
X156429058Y-74600031D01*
X156429059Y-74600031D01*
X156429063Y-74600032D01*
X156608309Y-74620228D01*
X156608313Y-74620228D01*
X156608317Y-74620228D01*
X156787562Y-74600032D01*
X156787565Y-74600031D01*
X156787568Y-74600031D01*
X156957835Y-74540452D01*
X157110575Y-74444479D01*
X157238129Y-74316925D01*
X157334102Y-74164185D01*
X157393681Y-73993918D01*
X157406004Y-73884546D01*
X157413878Y-73814666D01*
X157413878Y-73814659D01*
X157393682Y-73635413D01*
X157393681Y-73635408D01*
X157366927Y-73558949D01*
X157334102Y-73465141D01*
X157314978Y-73434706D01*
X157258521Y-73344855D01*
X157238129Y-73312401D01*
X157110575Y-73184847D01*
X157058589Y-73152182D01*
X156957836Y-73088874D01*
X156787567Y-73029294D01*
X156787562Y-73029293D01*
X156608317Y-73009098D01*
X156608309Y-73009098D01*
X156429063Y-73029293D01*
X156429058Y-73029294D01*
X156258789Y-73088874D01*
X156106050Y-73184847D01*
X156061380Y-73229518D01*
X156000057Y-73263003D01*
X155930365Y-73258019D01*
X155874432Y-73216147D01*
X155850015Y-73150683D01*
X155849699Y-73141837D01*
X155849699Y-71791604D01*
X157624573Y-71791604D01*
X157624573Y-71791611D01*
X157644768Y-71970857D01*
X157644769Y-71970862D01*
X157704349Y-72141131D01*
X157784514Y-72268712D01*
X157800322Y-72293870D01*
X157927876Y-72421424D01*
X158080616Y-72517397D01*
X158250883Y-72576976D01*
X158250888Y-72576977D01*
X158430134Y-72597173D01*
X158430138Y-72597173D01*
X158430142Y-72597173D01*
X158609387Y-72576977D01*
X158609390Y-72576976D01*
X158609393Y-72576976D01*
X158779660Y-72517397D01*
X158932400Y-72421424D01*
X159059954Y-72293870D01*
X159155927Y-72141130D01*
X159215506Y-71970863D01*
X159216945Y-71958090D01*
X159235703Y-71791611D01*
X159235703Y-71791604D01*
X159215507Y-71612358D01*
X159215506Y-71612353D01*
X159155926Y-71442084D01*
X159101193Y-71354977D01*
X159059954Y-71289346D01*
X158932400Y-71161792D01*
X158863656Y-71118597D01*
X158779661Y-71065819D01*
X158609392Y-71006239D01*
X158609387Y-71006238D01*
X158430142Y-70986043D01*
X158430134Y-70986043D01*
X158250888Y-71006238D01*
X158250883Y-71006239D01*
X158080614Y-71065819D01*
X157927875Y-71161792D01*
X157800322Y-71289345D01*
X157704349Y-71442084D01*
X157644769Y-71612353D01*
X157644768Y-71612358D01*
X157624573Y-71791604D01*
X155849699Y-71791604D01*
X155849699Y-70226900D01*
X155869384Y-70159861D01*
X155922188Y-70114106D01*
X155973699Y-70102900D01*
X156004633Y-70102900D01*
X156096690Y-70084588D01*
X156130770Y-70077809D01*
X156249590Y-70028592D01*
X156284973Y-70004950D01*
X156356526Y-69957141D01*
X156458100Y-69855567D01*
X156519423Y-69822082D01*
X156545781Y-69819248D01*
X157378783Y-69819248D01*
X157444754Y-69838253D01*
X157530509Y-69892137D01*
X157700776Y-69951716D01*
X157700781Y-69951717D01*
X157880027Y-69971913D01*
X157880031Y-69971913D01*
X157880035Y-69971913D01*
X158059280Y-69951717D01*
X158059283Y-69951716D01*
X158059286Y-69951716D01*
X158229553Y-69892137D01*
X158382293Y-69796164D01*
X158509847Y-69668610D01*
X158605820Y-69515870D01*
X158665399Y-69345603D01*
X158672762Y-69280257D01*
X158685596Y-69166351D01*
X158685596Y-69166344D01*
X158665400Y-68987098D01*
X158665399Y-68987093D01*
X158649922Y-68942862D01*
X158605820Y-68816826D01*
X158600412Y-68808220D01*
X158560829Y-68745223D01*
X158509847Y-68664086D01*
X158382293Y-68536532D01*
X158345555Y-68513448D01*
X158229554Y-68440559D01*
X158059285Y-68380979D01*
X158059280Y-68380978D01*
X157880035Y-68360783D01*
X157880027Y-68360783D01*
X157700781Y-68380978D01*
X157700776Y-68380979D01*
X157530508Y-68440559D01*
X157488861Y-68466728D01*
X157452568Y-68489533D01*
X157444755Y-68494442D01*
X157378783Y-68513448D01*
X156159668Y-68513448D01*
X156115328Y-68522268D01*
X156045736Y-68516041D01*
X155990559Y-68473178D01*
X155967315Y-68407288D01*
X155983383Y-68339291D01*
X156003452Y-68312974D01*
X156273579Y-68042848D01*
X156334902Y-68009363D01*
X156361260Y-68006529D01*
X156848406Y-68006529D01*
X156914377Y-68025534D01*
X157000132Y-68079418D01*
X157150346Y-68131980D01*
X157170399Y-68138997D01*
X157170404Y-68138998D01*
X157349650Y-68159194D01*
X157349654Y-68159194D01*
X157349658Y-68159194D01*
X157528903Y-68138998D01*
X157528906Y-68138997D01*
X157528909Y-68138997D01*
X157699176Y-68079418D01*
X157851916Y-67983445D01*
X157979470Y-67855891D01*
X158075443Y-67703151D01*
X158135022Y-67532884D01*
X158152963Y-67373655D01*
X158155219Y-67353632D01*
X158155219Y-67353625D01*
X158135023Y-67174379D01*
X158135022Y-67174374D01*
X158075442Y-67004105D01*
X158019460Y-66915011D01*
X157979470Y-66851367D01*
X157851916Y-66723813D01*
X157800465Y-66691484D01*
X157699177Y-66627840D01*
X157528908Y-66568260D01*
X157528903Y-66568259D01*
X157349658Y-66548064D01*
X157349650Y-66548064D01*
X157170404Y-66568259D01*
X157170399Y-66568260D01*
X157000131Y-66627840D01*
X156956560Y-66655218D01*
X156915459Y-66681044D01*
X156914378Y-66681723D01*
X156848406Y-66700729D01*
X156010195Y-66700729D01*
X155943156Y-66681044D01*
X155897401Y-66628240D01*
X155887457Y-66559082D01*
X155916482Y-66495526D01*
X155937311Y-66476410D01*
X155984715Y-66441969D01*
X155984715Y-66441968D01*
X155984719Y-66441966D01*
X156129466Y-66297219D01*
X156129468Y-66297215D01*
X156129471Y-66297213D01*
X156186063Y-66219319D01*
X156249787Y-66131610D01*
X156342720Y-65949219D01*
X156405977Y-65754534D01*
X156438000Y-65552352D01*
X156438000Y-65347648D01*
X156421745Y-65245018D01*
X156405977Y-65145465D01*
X156372771Y-65043268D01*
X156342720Y-64950781D01*
X156342718Y-64950778D01*
X156342718Y-64950776D01*
X156289173Y-64845689D01*
X156249787Y-64768390D01*
X156187707Y-64682943D01*
X156129471Y-64602786D01*
X155984713Y-64458028D01*
X155819113Y-64337715D01*
X155819112Y-64337714D01*
X155819110Y-64337713D01*
X155762153Y-64308691D01*
X155636723Y-64244781D01*
X155442034Y-64181522D01*
X155267495Y-64153878D01*
X155239852Y-64149500D01*
X155035148Y-64149500D01*
X155010829Y-64153351D01*
X154832965Y-64181522D01*
X154638276Y-64244781D01*
X154455886Y-64337715D01*
X154290286Y-64458028D01*
X154145528Y-64602786D01*
X154025215Y-64768386D01*
X153932281Y-64950776D01*
X153869022Y-65145465D01*
X153853255Y-65245018D01*
X153837000Y-65347648D01*
X153837000Y-65552352D01*
X153841378Y-65579995D01*
X153869022Y-65754534D01*
X153932281Y-65949223D01*
X154025215Y-66131613D01*
X154145528Y-66297213D01*
X154290286Y-66441971D01*
X154445249Y-66554556D01*
X154455890Y-66562287D01*
X154539103Y-66604686D01*
X154638276Y-66655218D01*
X154638278Y-66655218D01*
X154638281Y-66655220D01*
X154717759Y-66681044D01*
X154832965Y-66718477D01*
X154879327Y-66725820D01*
X155035148Y-66750500D01*
X155035149Y-66750500D01*
X155239851Y-66750500D01*
X155239852Y-66750500D01*
X155432531Y-66719982D01*
X155501823Y-66728936D01*
X155555275Y-66773932D01*
X155575915Y-66840684D01*
X155557190Y-66907998D01*
X155539609Y-66930136D01*
X154689662Y-67780082D01*
X154689656Y-67780089D01*
X154639008Y-67855889D01*
X154639009Y-67855890D01*
X154618207Y-67887022D01*
X154568990Y-68005843D01*
X154568988Y-68005849D01*
X154543899Y-68131980D01*
X154543899Y-68678184D01*
X154524214Y-68745223D01*
X154471410Y-68790978D01*
X154444091Y-68799801D01*
X154331543Y-68822189D01*
X154331536Y-68822191D01*
X154212718Y-68871407D01*
X154105778Y-68942861D01*
X154105777Y-68942862D01*
X153627365Y-69421273D01*
X153620199Y-69431999D01*
X153581562Y-69489825D01*
X153568737Y-69509019D01*
X153555912Y-69528212D01*
X153555910Y-69528215D01*
X153506695Y-69647032D01*
X153506693Y-69647038D01*
X153481604Y-69773169D01*
X153481604Y-71191774D01*
X153461919Y-71258813D01*
X153445285Y-71279455D01*
X152402459Y-72322281D01*
X152341136Y-72355766D01*
X152314778Y-72358600D01*
X151986297Y-72358600D01*
X151919258Y-72338915D01*
X151873503Y-72286111D01*
X151867081Y-72268712D01*
X151854689Y-72225403D01*
X151829809Y-72138451D01*
X151735598Y-71958093D01*
X151622561Y-71819464D01*
X151595452Y-71755068D01*
X151607461Y-71686238D01*
X151622562Y-71662741D01*
X151735178Y-71524630D01*
X151829342Y-71344361D01*
X151885290Y-71148828D01*
X151885291Y-71148825D01*
X151895899Y-71029500D01*
X151895900Y-71029498D01*
X151895900Y-69913502D01*
X151895899Y-69913499D01*
X151885291Y-69794174D01*
X151885290Y-69794171D01*
X151829342Y-69598638D01*
X151735178Y-69418370D01*
X151622561Y-69280257D01*
X151595452Y-69215861D01*
X151607461Y-69147031D01*
X151622558Y-69123539D01*
X151735598Y-68984907D01*
X151829809Y-68804549D01*
X151885786Y-68608918D01*
X151896400Y-68489537D01*
X151896399Y-67373464D01*
X151885786Y-67254082D01*
X151853360Y-67140758D01*
X151853843Y-67070892D01*
X151892023Y-67012376D01*
X151955778Y-66983791D01*
X151958694Y-66983428D01*
X152037128Y-66974591D01*
X152037131Y-66974590D01*
X152037134Y-66974590D01*
X152207401Y-66915011D01*
X152360141Y-66819038D01*
X152487695Y-66691484D01*
X152583668Y-66538744D01*
X152643247Y-66368477D01*
X152643248Y-66368471D01*
X152663444Y-66189225D01*
X152663444Y-66189218D01*
X152643248Y-66009972D01*
X152643247Y-66009967D01*
X152594797Y-65871505D01*
X152583668Y-65839700D01*
X152487695Y-65686960D01*
X152360141Y-65559406D01*
X152348913Y-65552351D01*
X152207402Y-65463433D01*
X152037132Y-65403853D01*
X152033721Y-65403469D01*
X152031669Y-65402606D01*
X152030347Y-65402305D01*
X152030399Y-65402073D01*
X151969309Y-65376399D01*
X151959929Y-65367930D01*
X151957687Y-65365688D01*
X151899658Y-65326915D01*
X151850748Y-65294235D01*
X151731928Y-65245018D01*
X151731922Y-65245016D01*
X151622307Y-65223212D01*
X151560396Y-65190827D01*
X151525822Y-65130111D01*
X151529563Y-65060341D01*
X151570429Y-65003670D01*
X151585384Y-64994406D01*
X151585315Y-64994296D01*
X151621349Y-64971653D01*
X151743951Y-64894618D01*
X151871505Y-64767064D01*
X151967478Y-64614324D01*
X152027057Y-64444057D01*
X152036421Y-64360949D01*
X152047254Y-64264805D01*
X152047254Y-64264798D01*
X152027058Y-64085552D01*
X152027055Y-64085539D01*
X151998466Y-64003837D01*
X151994904Y-63934058D01*
X152029632Y-63873431D01*
X152091625Y-63841203D01*
X152115507Y-63838882D01*
X161587822Y-63838882D01*
X161654861Y-63858567D01*
G37*
%TD.AperFunction*%
%TA.AperFunction,Conductor*%
G36*
X148227260Y-68902462D02*
G01*
X148283194Y-68944334D01*
X148293831Y-68961224D01*
X148306202Y-68984907D01*
X148307989Y-68987098D01*
X148419238Y-69123535D01*
X148446347Y-69187932D01*
X148434338Y-69256761D01*
X148419238Y-69280257D01*
X148306621Y-69418370D01*
X148212457Y-69598638D01*
X148156509Y-69794171D01*
X148156508Y-69794174D01*
X148145900Y-69913499D01*
X148145900Y-71029500D01*
X148156508Y-71148825D01*
X148156509Y-71148828D01*
X148212457Y-71344361D01*
X148306621Y-71524629D01*
X148419238Y-71662742D01*
X148446347Y-71727138D01*
X148434338Y-71795968D01*
X148419238Y-71819463D01*
X148306205Y-71958087D01*
X148289536Y-71989999D01*
X148211991Y-72138451D01*
X148211990Y-72138453D01*
X148209921Y-72142415D01*
X148161434Y-72192722D01*
X148093446Y-72208829D01*
X148034040Y-72189997D01*
X147982381Y-72157537D01*
X147812112Y-72097957D01*
X147812107Y-72097956D01*
X147632862Y-72077761D01*
X147632854Y-72077761D01*
X147453608Y-72097956D01*
X147453603Y-72097957D01*
X147367602Y-72128051D01*
X147297823Y-72131612D01*
X147237195Y-72096883D01*
X147204968Y-72034890D01*
X147202647Y-72011009D01*
X147202647Y-69875925D01*
X147222332Y-69808886D01*
X147238966Y-69788244D01*
X147661801Y-69365409D01*
X148096248Y-68930961D01*
X148157569Y-68897478D01*
X148227260Y-68902462D01*
G37*
%TD.AperFunction*%
%TA.AperFunction,Conductor*%
G36*
X135641299Y-63858567D02*
G01*
X135687054Y-63911371D01*
X135696998Y-63980529D01*
X135691302Y-64003836D01*
X135687909Y-64013531D01*
X135687907Y-64013539D01*
X135667712Y-64192785D01*
X135667712Y-64192792D01*
X135687907Y-64372038D01*
X135687908Y-64372043D01*
X135747488Y-64542312D01*
X135813406Y-64647219D01*
X135843461Y-64695051D01*
X135971015Y-64822605D01*
X136061357Y-64879371D01*
X136122360Y-64917702D01*
X136123755Y-64918578D01*
X136285057Y-64975020D01*
X136294022Y-64978157D01*
X136294027Y-64978158D01*
X136473273Y-64998354D01*
X136473277Y-64998354D01*
X136473281Y-64998354D01*
X136652526Y-64978158D01*
X136652529Y-64978157D01*
X136652532Y-64978157D01*
X136822799Y-64918578D01*
X136908553Y-64864694D01*
X136974525Y-64845689D01*
X137598486Y-64845689D01*
X137665525Y-64865374D01*
X137686167Y-64882008D01*
X138491119Y-65686960D01*
X139289073Y-66484913D01*
X139322558Y-66546236D01*
X139321167Y-66604686D01*
X139302439Y-66674583D01*
X139302436Y-66674596D01*
X139281841Y-66909999D01*
X139281841Y-66910000D01*
X139302436Y-67145403D01*
X139302438Y-67145413D01*
X139363594Y-67373655D01*
X139363596Y-67373659D01*
X139363597Y-67373663D01*
X139437843Y-67532883D01*
X139463465Y-67587830D01*
X139463467Y-67587834D01*
X139544214Y-67703151D01*
X139599005Y-67781401D01*
X139766099Y-67948495D01*
X139951658Y-68078425D01*
X139952094Y-68078730D01*
X139995718Y-68133307D01*
X140002911Y-68202806D01*
X139971389Y-68265160D01*
X139952093Y-68281880D01*
X139876126Y-68335072D01*
X139876125Y-68335072D01*
X140637500Y-69096447D01*
X140637501Y-69096447D01*
X141398873Y-68335073D01*
X141398873Y-68335072D01*
X141322905Y-68281880D01*
X141279280Y-68227304D01*
X141272086Y-68157805D01*
X141303608Y-68095451D01*
X141322899Y-68078734D01*
X141508901Y-67948495D01*
X141675995Y-67781401D01*
X141805925Y-67595842D01*
X141860502Y-67552217D01*
X141930000Y-67545023D01*
X141992355Y-67576546D01*
X142009075Y-67595842D01*
X142139001Y-67781396D01*
X142139006Y-67781402D01*
X142306097Y-67948493D01*
X142306103Y-67948498D01*
X142491658Y-68078425D01*
X142535283Y-68133002D01*
X142542477Y-68202500D01*
X142510954Y-68264855D01*
X142491658Y-68281575D01*
X142306097Y-68411505D01*
X142139005Y-68578597D01*
X142008769Y-68764595D01*
X141954192Y-68808220D01*
X141884694Y-68815414D01*
X141822339Y-68783891D01*
X141805619Y-68764595D01*
X141752425Y-68688626D01*
X141752425Y-68688625D01*
X140991053Y-69449999D01*
X140991053Y-69450001D01*
X141752425Y-70211373D01*
X141805619Y-70135405D01*
X141860196Y-70091781D01*
X141929695Y-70084588D01*
X141992049Y-70116110D01*
X142008769Y-70135405D01*
X142139005Y-70321401D01*
X142139006Y-70321402D01*
X142306097Y-70488493D01*
X142306103Y-70488498D01*
X142491658Y-70618425D01*
X142535283Y-70673002D01*
X142542477Y-70742500D01*
X142510954Y-70804855D01*
X142491658Y-70821575D01*
X142306097Y-70951505D01*
X142139005Y-71118597D01*
X142009075Y-71304158D01*
X141954498Y-71347783D01*
X141885000Y-71354977D01*
X141822645Y-71323454D01*
X141805925Y-71304158D01*
X141675994Y-71118597D01*
X141508902Y-70951506D01*
X141508901Y-70951505D01*
X141322905Y-70821269D01*
X141279281Y-70766692D01*
X141272088Y-70697193D01*
X141303610Y-70634839D01*
X141322905Y-70618119D01*
X141398873Y-70564925D01*
X140637500Y-69803553D01*
X139522572Y-68688625D01*
X139463901Y-68772419D01*
X139364070Y-68986507D01*
X139364066Y-68986516D01*
X139302932Y-69214673D01*
X139302930Y-69214683D01*
X139284481Y-69425559D01*
X139259028Y-69490627D01*
X139202437Y-69531606D01*
X139132675Y-69535484D01*
X139073272Y-69502432D01*
X137166682Y-67595842D01*
X134283718Y-64712877D01*
X134250233Y-64651554D01*
X134255217Y-64581862D01*
X134266407Y-64559222D01*
X134284001Y-64531222D01*
X134284001Y-64531221D01*
X134284004Y-64531217D01*
X134339701Y-64372044D01*
X134343581Y-64360957D01*
X134343584Y-64360944D01*
X134363780Y-64181698D01*
X134363780Y-64181691D01*
X134347622Y-64038291D01*
X134343583Y-64002440D01*
X134343582Y-64002438D01*
X134342034Y-63995651D01*
X134343633Y-63995285D01*
X134340513Y-63934047D01*
X134375247Y-63873423D01*
X134437244Y-63841201D01*
X134461114Y-63838882D01*
X135574260Y-63838882D01*
X135641299Y-63858567D01*
G37*
%TD.AperFunction*%
%TD*%
M02*
