M48
; DRILL file {KiCad 8.0.6} date 2024-11-21T01:26:08-0800
; FORMAT={-:-/ absolute / inch / decimal}
; #@! TF.CreationDate,2024-11-21T01:26:08-08:00
; #@! TF.GenerationSoftware,Kicad,Pcbnew,8.0.6
; #@! TF.FileFunction,Plated,1,2,PTH
FMAT,2
INCH
; #@! TA.AperFunction,Plated,PTH,ViaDrill
T1C0.0118
; #@! TA.AperFunction,Plated,PTH,ComponentDrill
T2C0.0295
%
G90
G05
T1
X5.2582Y-2.5268
X5.3615Y-2.8959
X5.3656Y-2.7773
X5.368Y-3.0751
X5.373Y-2.5273
X5.3738Y-3.6046
X5.4188Y-2.6161
X5.4188Y-3.7382
X5.4582Y-2.8327
X5.4582Y-3.3445
X5.4721Y-3.5353
X5.4779Y-3.0886
X5.5515Y-3.4361
X5.5861Y-2.7824
X5.6218Y-3.7858
X5.6223Y-3.7359
X5.6224Y-3.7009
X5.6747Y-3.2854
X5.6944Y-3.0295
X5.7138Y-3.1546
X5.8123Y-2.8694
X5.8125Y-2.8327
X5.8125Y-3.1673
X5.8218Y-3.065
X5.9544Y-2.5301
X5.9787Y-2.6059
X6.0057Y-3.1007
X6.0088Y-2.9745
X6.0094Y-2.7741
X6.0097Y-2.5309
X6.0102Y-3.1948
X6.0761Y-3.235
X6.0944Y-3.8285
X6.1657Y-2.9061
X6.1924Y-3.2563
X6.1949Y-2.6517
X6.2157Y-2.7231
X6.2342Y-2.6569
X6.2374Y-2.8264
X6.2654Y-2.9396
X6.2956Y-2.6577
X6.3203Y-3.4892
X6.3243Y-3.6791
X6.3248Y-3.2359
X6.326Y-2.813
X6.326Y-2.8826
X6.3346Y-2.5486
X6.3454Y-2.9875
T2
X5.7313Y-3.4885
X5.7313Y-3.5673
X5.951Y-3.4885
X5.951Y-3.5673
X6.1706Y-3.4099
X6.1706Y-3.4886
X6.1706Y-3.5674
M30
