%TF.GenerationSoftware,KiCad,Pcbnew,8.0.6*%
%TF.CreationDate,2024-11-21T01:25:50-08:00*%
%TF.ProjectId,LED20,4c454432-302e-46b6-9963-61645f706362,2*%
%TF.SameCoordinates,Original*%
%TF.FileFunction,AssemblyDrawing,Top*%
%FSLAX46Y46*%
G04 Gerber Fmt 4.6, Leading zero omitted, Abs format (unit mm)*
G04 Created by KiCad (PCBNEW 8.0.6) date 2024-11-21 01:25:50*
%MOMM*%
%LPD*%
G01*
G04 APERTURE LIST*
%ADD10C,0.125000*%
%ADD11C,0.060000*%
%ADD12C,0.150000*%
%ADD13C,0.100000*%
%ADD14C,0.025400*%
%ADD15C,0.504000*%
%ADD16C,0.508000*%
G04 APERTURE END LIST*
D10*
X161770504Y-93183362D02*
X162056218Y-93183362D01*
X161913361Y-93683362D02*
X161913361Y-93183362D01*
X162222884Y-93683362D02*
X162222884Y-93183362D01*
X162222884Y-93183362D02*
X162413360Y-93183362D01*
X162413360Y-93183362D02*
X162460979Y-93207172D01*
X162460979Y-93207172D02*
X162484789Y-93230981D01*
X162484789Y-93230981D02*
X162508598Y-93278600D01*
X162508598Y-93278600D02*
X162508598Y-93350029D01*
X162508598Y-93350029D02*
X162484789Y-93397648D01*
X162484789Y-93397648D02*
X162460979Y-93421457D01*
X162460979Y-93421457D02*
X162413360Y-93445267D01*
X162413360Y-93445267D02*
X162222884Y-93445267D01*
X162699075Y-93230981D02*
X162722884Y-93207172D01*
X162722884Y-93207172D02*
X162770503Y-93183362D01*
X162770503Y-93183362D02*
X162889551Y-93183362D01*
X162889551Y-93183362D02*
X162937170Y-93207172D01*
X162937170Y-93207172D02*
X162960979Y-93230981D01*
X162960979Y-93230981D02*
X162984789Y-93278600D01*
X162984789Y-93278600D02*
X162984789Y-93326219D01*
X162984789Y-93326219D02*
X162960979Y-93397648D01*
X162960979Y-93397648D02*
X162675265Y-93683362D01*
X162675265Y-93683362D02*
X162984789Y-93683362D01*
D11*
X156963999Y-79346087D02*
X156963999Y-79669897D01*
X156963999Y-79669897D02*
X156983046Y-79707992D01*
X156983046Y-79707992D02*
X157002094Y-79727040D01*
X157002094Y-79727040D02*
X157040189Y-79746087D01*
X157040189Y-79746087D02*
X157116380Y-79746087D01*
X157116380Y-79746087D02*
X157154475Y-79727040D01*
X157154475Y-79727040D02*
X157173522Y-79707992D01*
X157173522Y-79707992D02*
X157192570Y-79669897D01*
X157192570Y-79669897D02*
X157192570Y-79346087D01*
X157363999Y-79384182D02*
X157383047Y-79365135D01*
X157383047Y-79365135D02*
X157421142Y-79346087D01*
X157421142Y-79346087D02*
X157516380Y-79346087D01*
X157516380Y-79346087D02*
X157554475Y-79365135D01*
X157554475Y-79365135D02*
X157573523Y-79384182D01*
X157573523Y-79384182D02*
X157592570Y-79422278D01*
X157592570Y-79422278D02*
X157592570Y-79460373D01*
X157592570Y-79460373D02*
X157573523Y-79517516D01*
X157573523Y-79517516D02*
X157344951Y-79746087D01*
X157344951Y-79746087D02*
X157592570Y-79746087D01*
D12*
X149110740Y-90370235D02*
X149920263Y-90370235D01*
X149920263Y-90370235D02*
X150015501Y-90322616D01*
X150015501Y-90322616D02*
X150063121Y-90274997D01*
X150063121Y-90274997D02*
X150110740Y-90179759D01*
X150110740Y-90179759D02*
X150110740Y-89989283D01*
X150110740Y-89989283D02*
X150063121Y-89894045D01*
X150063121Y-89894045D02*
X150015501Y-89846426D01*
X150015501Y-89846426D02*
X149920263Y-89798807D01*
X149920263Y-89798807D02*
X149110740Y-89798807D01*
X149110740Y-88894045D02*
X149110740Y-89084521D01*
X149110740Y-89084521D02*
X149158359Y-89179759D01*
X149158359Y-89179759D02*
X149205978Y-89227378D01*
X149205978Y-89227378D02*
X149348835Y-89322616D01*
X149348835Y-89322616D02*
X149539311Y-89370235D01*
X149539311Y-89370235D02*
X149920263Y-89370235D01*
X149920263Y-89370235D02*
X150015501Y-89322616D01*
X150015501Y-89322616D02*
X150063121Y-89274997D01*
X150063121Y-89274997D02*
X150110740Y-89179759D01*
X150110740Y-89179759D02*
X150110740Y-88989283D01*
X150110740Y-88989283D02*
X150063121Y-88894045D01*
X150063121Y-88894045D02*
X150015501Y-88846426D01*
X150015501Y-88846426D02*
X149920263Y-88798807D01*
X149920263Y-88798807D02*
X149682168Y-88798807D01*
X149682168Y-88798807D02*
X149586930Y-88846426D01*
X149586930Y-88846426D02*
X149539311Y-88894045D01*
X149539311Y-88894045D02*
X149491692Y-88989283D01*
X149491692Y-88989283D02*
X149491692Y-89179759D01*
X149491692Y-89179759D02*
X149539311Y-89274997D01*
X149539311Y-89274997D02*
X149586930Y-89322616D01*
X149586930Y-89322616D02*
X149682168Y-89370235D01*
X155688666Y-89349540D02*
X154688666Y-89349540D01*
X154688666Y-89349540D02*
X154688666Y-89111445D01*
X154688666Y-89111445D02*
X154736285Y-88968588D01*
X154736285Y-88968588D02*
X154831523Y-88873350D01*
X154831523Y-88873350D02*
X154926761Y-88825731D01*
X154926761Y-88825731D02*
X155117237Y-88778112D01*
X155117237Y-88778112D02*
X155260094Y-88778112D01*
X155260094Y-88778112D02*
X155450570Y-88825731D01*
X155450570Y-88825731D02*
X155545808Y-88873350D01*
X155545808Y-88873350D02*
X155641047Y-88968588D01*
X155641047Y-88968588D02*
X155688666Y-89111445D01*
X155688666Y-89111445D02*
X155688666Y-89349540D01*
X155688666Y-87825731D02*
X155688666Y-88397159D01*
X155688666Y-88111445D02*
X154688666Y-88111445D01*
X154688666Y-88111445D02*
X154831523Y-88206683D01*
X154831523Y-88206683D02*
X154926761Y-88301921D01*
X154926761Y-88301921D02*
X154974380Y-88397159D01*
D11*
X160781332Y-79516666D02*
X160800380Y-79535714D01*
X160800380Y-79535714D02*
X160819427Y-79592856D01*
X160819427Y-79592856D02*
X160819427Y-79630952D01*
X160819427Y-79630952D02*
X160800380Y-79688095D01*
X160800380Y-79688095D02*
X160762284Y-79726190D01*
X160762284Y-79726190D02*
X160724189Y-79745237D01*
X160724189Y-79745237D02*
X160647999Y-79764285D01*
X160647999Y-79764285D02*
X160590856Y-79764285D01*
X160590856Y-79764285D02*
X160514665Y-79745237D01*
X160514665Y-79745237D02*
X160476570Y-79726190D01*
X160476570Y-79726190D02*
X160438475Y-79688095D01*
X160438475Y-79688095D02*
X160419427Y-79630952D01*
X160419427Y-79630952D02*
X160419427Y-79592856D01*
X160419427Y-79592856D02*
X160438475Y-79535714D01*
X160438475Y-79535714D02*
X160457522Y-79516666D01*
X160419427Y-79383333D02*
X160419427Y-79135714D01*
X160419427Y-79135714D02*
X160571808Y-79269047D01*
X160571808Y-79269047D02*
X160571808Y-79211904D01*
X160571808Y-79211904D02*
X160590856Y-79173809D01*
X160590856Y-79173809D02*
X160609903Y-79154761D01*
X160609903Y-79154761D02*
X160647999Y-79135714D01*
X160647999Y-79135714D02*
X160743237Y-79135714D01*
X160743237Y-79135714D02*
X160781332Y-79154761D01*
X160781332Y-79154761D02*
X160800380Y-79173809D01*
X160800380Y-79173809D02*
X160819427Y-79211904D01*
X160819427Y-79211904D02*
X160819427Y-79326190D01*
X160819427Y-79326190D02*
X160800380Y-79364285D01*
X160800380Y-79364285D02*
X160781332Y-79383333D01*
D12*
X147513966Y-95590419D02*
X147561585Y-95542800D01*
X147561585Y-95542800D02*
X147704442Y-95495180D01*
X147704442Y-95495180D02*
X147799680Y-95495180D01*
X147799680Y-95495180D02*
X147942537Y-95542800D01*
X147942537Y-95542800D02*
X148037775Y-95638038D01*
X148037775Y-95638038D02*
X148085394Y-95733276D01*
X148085394Y-95733276D02*
X148133013Y-95923752D01*
X148133013Y-95923752D02*
X148133013Y-96066609D01*
X148133013Y-96066609D02*
X148085394Y-96257085D01*
X148085394Y-96257085D02*
X148037775Y-96352323D01*
X148037775Y-96352323D02*
X147942537Y-96447561D01*
X147942537Y-96447561D02*
X147799680Y-96495180D01*
X147799680Y-96495180D02*
X147704442Y-96495180D01*
X147704442Y-96495180D02*
X147561585Y-96447561D01*
X147561585Y-96447561D02*
X147513966Y-96399942D01*
X146513966Y-95495180D02*
X146847299Y-95971371D01*
X147085394Y-95495180D02*
X147085394Y-96495180D01*
X147085394Y-96495180D02*
X146704442Y-96495180D01*
X146704442Y-96495180D02*
X146609204Y-96447561D01*
X146609204Y-96447561D02*
X146561585Y-96399942D01*
X146561585Y-96399942D02*
X146513966Y-96304704D01*
X146513966Y-96304704D02*
X146513966Y-96161847D01*
X146513966Y-96161847D02*
X146561585Y-96066609D01*
X146561585Y-96066609D02*
X146609204Y-96018990D01*
X146609204Y-96018990D02*
X146704442Y-95971371D01*
X146704442Y-95971371D02*
X147085394Y-95971371D01*
X145561585Y-95495180D02*
X146133013Y-95495180D01*
X145847299Y-95495180D02*
X145847299Y-96495180D01*
X145847299Y-96495180D02*
X145942537Y-96352323D01*
X145942537Y-96352323D02*
X146037775Y-96257085D01*
X146037775Y-96257085D02*
X146133013Y-96209466D01*
D11*
X154476869Y-79480931D02*
X154495917Y-79499979D01*
X154495917Y-79499979D02*
X154514964Y-79557121D01*
X154514964Y-79557121D02*
X154514964Y-79595217D01*
X154514964Y-79595217D02*
X154495917Y-79652360D01*
X154495917Y-79652360D02*
X154457821Y-79690455D01*
X154457821Y-79690455D02*
X154419726Y-79709502D01*
X154419726Y-79709502D02*
X154343536Y-79728550D01*
X154343536Y-79728550D02*
X154286393Y-79728550D01*
X154286393Y-79728550D02*
X154210202Y-79709502D01*
X154210202Y-79709502D02*
X154172107Y-79690455D01*
X154172107Y-79690455D02*
X154134012Y-79652360D01*
X154134012Y-79652360D02*
X154114964Y-79595217D01*
X154114964Y-79595217D02*
X154114964Y-79557121D01*
X154114964Y-79557121D02*
X154134012Y-79499979D01*
X154134012Y-79499979D02*
X154153059Y-79480931D01*
X154514964Y-79099979D02*
X154514964Y-79328550D01*
X154514964Y-79214264D02*
X154114964Y-79214264D01*
X154114964Y-79214264D02*
X154172107Y-79252360D01*
X154172107Y-79252360D02*
X154210202Y-79290455D01*
X154210202Y-79290455D02*
X154229250Y-79328550D01*
D12*
X135223765Y-88708683D02*
X135223765Y-88137255D01*
X136223765Y-88422969D02*
X135223765Y-88422969D01*
X136223765Y-87803921D02*
X135223765Y-87803921D01*
X135223765Y-87803921D02*
X135223765Y-87422969D01*
X135223765Y-87422969D02*
X135271384Y-87327731D01*
X135271384Y-87327731D02*
X135319003Y-87280112D01*
X135319003Y-87280112D02*
X135414241Y-87232493D01*
X135414241Y-87232493D02*
X135557098Y-87232493D01*
X135557098Y-87232493D02*
X135652336Y-87280112D01*
X135652336Y-87280112D02*
X135699955Y-87327731D01*
X135699955Y-87327731D02*
X135747574Y-87422969D01*
X135747574Y-87422969D02*
X135747574Y-87803921D01*
X136223765Y-86280112D02*
X136223765Y-86851540D01*
X136223765Y-86565826D02*
X135223765Y-86565826D01*
X135223765Y-86565826D02*
X135366622Y-86661064D01*
X135366622Y-86661064D02*
X135461860Y-86756302D01*
X135461860Y-86756302D02*
X135509479Y-86851540D01*
D11*
X158087115Y-77053884D02*
X158068067Y-77072932D01*
X158068067Y-77072932D02*
X158010925Y-77091979D01*
X158010925Y-77091979D02*
X157972829Y-77091979D01*
X157972829Y-77091979D02*
X157915686Y-77072932D01*
X157915686Y-77072932D02*
X157877591Y-77034836D01*
X157877591Y-77034836D02*
X157858544Y-76996741D01*
X157858544Y-76996741D02*
X157839496Y-76920551D01*
X157839496Y-76920551D02*
X157839496Y-76863408D01*
X157839496Y-76863408D02*
X157858544Y-76787217D01*
X157858544Y-76787217D02*
X157877591Y-76749122D01*
X157877591Y-76749122D02*
X157915686Y-76711027D01*
X157915686Y-76711027D02*
X157972829Y-76691979D01*
X157972829Y-76691979D02*
X158010925Y-76691979D01*
X158010925Y-76691979D02*
X158068067Y-76711027D01*
X158068067Y-76711027D02*
X158087115Y-76730074D01*
X158239496Y-76730074D02*
X158258544Y-76711027D01*
X158258544Y-76711027D02*
X158296639Y-76691979D01*
X158296639Y-76691979D02*
X158391877Y-76691979D01*
X158391877Y-76691979D02*
X158429972Y-76711027D01*
X158429972Y-76711027D02*
X158449020Y-76730074D01*
X158449020Y-76730074D02*
X158468067Y-76768170D01*
X158468067Y-76768170D02*
X158468067Y-76806265D01*
X158468067Y-76806265D02*
X158449020Y-76863408D01*
X158449020Y-76863408D02*
X158220448Y-77091979D01*
X158220448Y-77091979D02*
X158468067Y-77091979D01*
D12*
X149704406Y-81724415D02*
X150275834Y-81724415D01*
X149990120Y-82724415D02*
X149990120Y-81724415D01*
X150609168Y-82724415D02*
X150609168Y-81724415D01*
X150609168Y-81724415D02*
X150990120Y-81724415D01*
X150990120Y-81724415D02*
X151085358Y-81772034D01*
X151085358Y-81772034D02*
X151132977Y-81819653D01*
X151132977Y-81819653D02*
X151180596Y-81914891D01*
X151180596Y-81914891D02*
X151180596Y-82057748D01*
X151180596Y-82057748D02*
X151132977Y-82152986D01*
X151132977Y-82152986D02*
X151085358Y-82200605D01*
X151085358Y-82200605D02*
X150990120Y-82248224D01*
X150990120Y-82248224D02*
X150609168Y-82248224D01*
X152132977Y-82724415D02*
X151561549Y-82724415D01*
X151847263Y-82724415D02*
X151847263Y-81724415D01*
X151847263Y-81724415D02*
X151752025Y-81867272D01*
X151752025Y-81867272D02*
X151656787Y-81962510D01*
X151656787Y-81962510D02*
X151561549Y-82010129D01*
X152466311Y-81724415D02*
X153132977Y-81724415D01*
X153132977Y-81724415D02*
X152704406Y-82724415D01*
X159347497Y-83992405D02*
X159918925Y-83992405D01*
X159633211Y-84992405D02*
X159633211Y-83992405D01*
X160252259Y-84992405D02*
X160252259Y-83992405D01*
X160252259Y-83992405D02*
X160633211Y-83992405D01*
X160633211Y-83992405D02*
X160728449Y-84040024D01*
X160728449Y-84040024D02*
X160776068Y-84087643D01*
X160776068Y-84087643D02*
X160823687Y-84182881D01*
X160823687Y-84182881D02*
X160823687Y-84325738D01*
X160823687Y-84325738D02*
X160776068Y-84420976D01*
X160776068Y-84420976D02*
X160728449Y-84468595D01*
X160728449Y-84468595D02*
X160633211Y-84516214D01*
X160633211Y-84516214D02*
X160252259Y-84516214D01*
X161776068Y-84992405D02*
X161204640Y-84992405D01*
X161490354Y-84992405D02*
X161490354Y-83992405D01*
X161490354Y-83992405D02*
X161395116Y-84135262D01*
X161395116Y-84135262D02*
X161299878Y-84230500D01*
X161299878Y-84230500D02*
X161204640Y-84278119D01*
X162347497Y-84420976D02*
X162252259Y-84373357D01*
X162252259Y-84373357D02*
X162204640Y-84325738D01*
X162204640Y-84325738D02*
X162157021Y-84230500D01*
X162157021Y-84230500D02*
X162157021Y-84182881D01*
X162157021Y-84182881D02*
X162204640Y-84087643D01*
X162204640Y-84087643D02*
X162252259Y-84040024D01*
X162252259Y-84040024D02*
X162347497Y-83992405D01*
X162347497Y-83992405D02*
X162537973Y-83992405D01*
X162537973Y-83992405D02*
X162633211Y-84040024D01*
X162633211Y-84040024D02*
X162680830Y-84087643D01*
X162680830Y-84087643D02*
X162728449Y-84182881D01*
X162728449Y-84182881D02*
X162728449Y-84230500D01*
X162728449Y-84230500D02*
X162680830Y-84325738D01*
X162680830Y-84325738D02*
X162633211Y-84373357D01*
X162633211Y-84373357D02*
X162537973Y-84420976D01*
X162537973Y-84420976D02*
X162347497Y-84420976D01*
X162347497Y-84420976D02*
X162252259Y-84468595D01*
X162252259Y-84468595D02*
X162204640Y-84516214D01*
X162204640Y-84516214D02*
X162157021Y-84611452D01*
X162157021Y-84611452D02*
X162157021Y-84801928D01*
X162157021Y-84801928D02*
X162204640Y-84897166D01*
X162204640Y-84897166D02*
X162252259Y-84944786D01*
X162252259Y-84944786D02*
X162347497Y-84992405D01*
X162347497Y-84992405D02*
X162537973Y-84992405D01*
X162537973Y-84992405D02*
X162633211Y-84944786D01*
X162633211Y-84944786D02*
X162680830Y-84897166D01*
X162680830Y-84897166D02*
X162728449Y-84801928D01*
X162728449Y-84801928D02*
X162728449Y-84611452D01*
X162728449Y-84611452D02*
X162680830Y-84516214D01*
X162680830Y-84516214D02*
X162633211Y-84468595D01*
X162633211Y-84468595D02*
X162537973Y-84420976D01*
X137231197Y-93473648D02*
X136755007Y-93473648D01*
X136755007Y-93473648D02*
X136755007Y-92473648D01*
X137516912Y-93426029D02*
X137659769Y-93473648D01*
X137659769Y-93473648D02*
X137897864Y-93473648D01*
X137897864Y-93473648D02*
X137993102Y-93426029D01*
X137993102Y-93426029D02*
X138040721Y-93378409D01*
X138040721Y-93378409D02*
X138088340Y-93283171D01*
X138088340Y-93283171D02*
X138088340Y-93187933D01*
X138088340Y-93187933D02*
X138040721Y-93092695D01*
X138040721Y-93092695D02*
X137993102Y-93045076D01*
X137993102Y-93045076D02*
X137897864Y-92997457D01*
X137897864Y-92997457D02*
X137707388Y-92949838D01*
X137707388Y-92949838D02*
X137612150Y-92902219D01*
X137612150Y-92902219D02*
X137564531Y-92854600D01*
X137564531Y-92854600D02*
X137516912Y-92759362D01*
X137516912Y-92759362D02*
X137516912Y-92664124D01*
X137516912Y-92664124D02*
X137564531Y-92568886D01*
X137564531Y-92568886D02*
X137612150Y-92521267D01*
X137612150Y-92521267D02*
X137707388Y-92473648D01*
X137707388Y-92473648D02*
X137945483Y-92473648D01*
X137945483Y-92473648D02*
X138088340Y-92521267D01*
X139040721Y-93473648D02*
X138469293Y-93473648D01*
X138755007Y-93473648D02*
X138755007Y-92473648D01*
X138755007Y-92473648D02*
X138659769Y-92616505D01*
X138659769Y-92616505D02*
X138564531Y-92711743D01*
X138564531Y-92711743D02*
X138469293Y-92759362D01*
X143530231Y-90370235D02*
X144339754Y-90370235D01*
X144339754Y-90370235D02*
X144434992Y-90322616D01*
X144434992Y-90322616D02*
X144482612Y-90274997D01*
X144482612Y-90274997D02*
X144530231Y-90179759D01*
X144530231Y-90179759D02*
X144530231Y-89989283D01*
X144530231Y-89989283D02*
X144482612Y-89894045D01*
X144482612Y-89894045D02*
X144434992Y-89846426D01*
X144434992Y-89846426D02*
X144339754Y-89798807D01*
X144339754Y-89798807D02*
X143530231Y-89798807D01*
X143530231Y-89417854D02*
X143530231Y-88751188D01*
X143530231Y-88751188D02*
X144530231Y-89179759D01*
D11*
X152395833Y-95131927D02*
X152262500Y-94941451D01*
X152167262Y-95131927D02*
X152167262Y-94731927D01*
X152167262Y-94731927D02*
X152319643Y-94731927D01*
X152319643Y-94731927D02*
X152357738Y-94750975D01*
X152357738Y-94750975D02*
X152376785Y-94770022D01*
X152376785Y-94770022D02*
X152395833Y-94808118D01*
X152395833Y-94808118D02*
X152395833Y-94865260D01*
X152395833Y-94865260D02*
X152376785Y-94903356D01*
X152376785Y-94903356D02*
X152357738Y-94922403D01*
X152357738Y-94922403D02*
X152319643Y-94941451D01*
X152319643Y-94941451D02*
X152167262Y-94941451D01*
X152776785Y-95131927D02*
X152548214Y-95131927D01*
X152662500Y-95131927D02*
X152662500Y-94731927D01*
X152662500Y-94731927D02*
X152624404Y-94789070D01*
X152624404Y-94789070D02*
X152586309Y-94827165D01*
X152586309Y-94827165D02*
X152548214Y-94846213D01*
D12*
X156557519Y-96664404D02*
X157367042Y-96664404D01*
X157367042Y-96664404D02*
X157462280Y-96616785D01*
X157462280Y-96616785D02*
X157509900Y-96569166D01*
X157509900Y-96569166D02*
X157557519Y-96473928D01*
X157557519Y-96473928D02*
X157557519Y-96283452D01*
X157557519Y-96283452D02*
X157509900Y-96188214D01*
X157509900Y-96188214D02*
X157462280Y-96140595D01*
X157462280Y-96140595D02*
X157367042Y-96092976D01*
X157367042Y-96092976D02*
X156557519Y-96092976D01*
X156557519Y-95712023D02*
X156557519Y-95092976D01*
X156557519Y-95092976D02*
X156938471Y-95426309D01*
X156938471Y-95426309D02*
X156938471Y-95283452D01*
X156938471Y-95283452D02*
X156986090Y-95188214D01*
X156986090Y-95188214D02*
X157033709Y-95140595D01*
X157033709Y-95140595D02*
X157128947Y-95092976D01*
X157128947Y-95092976D02*
X157367042Y-95092976D01*
X157367042Y-95092976D02*
X157462280Y-95140595D01*
X157462280Y-95140595D02*
X157509900Y-95188214D01*
X157509900Y-95188214D02*
X157557519Y-95283452D01*
X157557519Y-95283452D02*
X157557519Y-95569166D01*
X157557519Y-95569166D02*
X157509900Y-95664404D01*
X157509900Y-95664404D02*
X157462280Y-95712023D01*
D13*
%TO.C,U2*%
X156468761Y-78114160D02*
X158068761Y-78114160D01*
X156468761Y-81014160D02*
X156468761Y-78114160D01*
X157668761Y-81014160D02*
X156468761Y-81014160D01*
X158068761Y-78114160D02*
X158068761Y-80614160D01*
X158068761Y-80614160D02*
X157668761Y-81014160D01*
%TO.C,U6*%
X148355921Y-86658331D02*
X148355921Y-92558331D01*
X148355921Y-92558331D02*
X152855921Y-92558331D01*
X152855921Y-86658331D02*
X148355921Y-86658331D01*
X152855921Y-92558331D02*
X152855921Y-86658331D01*
X153265921Y-86248331D02*
X152015921Y-86248331D01*
X153265921Y-87498331D02*
X153265921Y-86248331D01*
%TO.C,D1*%
X153933847Y-84661446D02*
X153933847Y-92561446D01*
X153933847Y-92561446D02*
X158433847Y-92561446D01*
X158433847Y-84661446D02*
X153933847Y-84661446D01*
X158433847Y-92561446D02*
X158433847Y-84661446D01*
X158843847Y-84251446D02*
X157593847Y-84251446D01*
X158843847Y-85501446D02*
X158843847Y-84251446D01*
%TO.C,C3*%
X160237500Y-78650000D02*
X161037500Y-78650000D01*
X160237500Y-80250000D02*
X160237500Y-78650000D01*
X161037500Y-78650000D02*
X161037500Y-80250000D01*
X161037500Y-80250000D02*
X160237500Y-80250000D01*
D14*
%TO.C,CR1*%
X144053300Y-95124500D02*
X144053300Y-96775500D01*
X144053300Y-96775500D02*
X144472400Y-96775500D01*
X144472400Y-94476800D02*
X144472400Y-97423200D01*
X144472400Y-95124500D02*
X144053300Y-95124500D01*
X144472400Y-96775500D02*
X144472400Y-95124500D01*
X144472400Y-97423200D02*
X149222200Y-97423200D01*
X149222200Y-94476800D02*
X144472400Y-94476800D01*
X149222200Y-95124500D02*
X149222200Y-96775500D01*
X149222200Y-95213400D02*
X148485600Y-94476800D01*
X149222200Y-96686600D02*
X148485600Y-97423200D01*
X149222200Y-96775500D02*
X149641300Y-96775500D01*
X149222200Y-97423200D02*
X149222200Y-94476800D01*
X149641300Y-95124500D02*
X149222200Y-95124500D01*
X149641300Y-96775500D02*
X149641300Y-95124500D01*
X149133300Y-95950000D02*
G75*
G02*
X148980900Y-95950000I-76200J0D01*
G01*
X148980900Y-95950000D02*
G75*
G02*
X149133300Y-95950000I76200J0D01*
G01*
%TO.C,U4*%
D13*
X133020900Y-65051500D02*
X150820900Y-65051500D01*
X150820900Y-86051500D01*
X133020900Y-86051500D01*
X133020900Y-65051500D01*
D15*
X134356900Y-66151500D02*
G75*
G02*
X133852900Y-66151500I-252000J0D01*
G01*
X133852900Y-66151500D02*
G75*
G02*
X134356900Y-66151500I252000J0D01*
G01*
D13*
%TO.C,C1*%
X153933037Y-78614265D02*
X154733037Y-78614265D01*
X153933037Y-80214265D02*
X153933037Y-78614265D01*
X154733037Y-78614265D02*
X154733037Y-80214265D01*
X154733037Y-80214265D02*
X153933037Y-80214265D01*
%TO.C,C2*%
X157353782Y-76510052D02*
X158953782Y-76510052D01*
X157353782Y-77310052D02*
X157353782Y-76510052D01*
X158953782Y-76510052D02*
X158953782Y-77310052D01*
X158953782Y-77310052D02*
X157353782Y-77310052D01*
D14*
%TO.C,LS1*%
X134025955Y-89170729D02*
X134025955Y-96866929D01*
X134025955Y-96866929D02*
X141722155Y-96866929D01*
X141722155Y-89170729D02*
X134025955Y-89170729D01*
X141722155Y-96866929D02*
X141722155Y-89170729D01*
D16*
X135180055Y-88038829D02*
G75*
G02*
X134418055Y-88038829I-381000J0D01*
G01*
X134418055Y-88038829D02*
G75*
G02*
X135180055Y-88038829I381000J0D01*
G01*
D13*
%TO.C,U7*%
X142775412Y-86658331D02*
X142775412Y-92558331D01*
X142775412Y-92558331D02*
X147275412Y-92558331D01*
X147275412Y-86658331D02*
X142775412Y-86658331D01*
X147275412Y-92558331D02*
X147275412Y-86658331D01*
X147685412Y-86248331D02*
X146435412Y-86248331D01*
X147685412Y-87498331D02*
X147685412Y-86248331D01*
%TO.C,R1*%
X151662500Y-94537500D02*
X153262500Y-94537500D01*
X151662500Y-95362500D02*
X151662500Y-94537500D01*
X153262500Y-94537500D02*
X153262500Y-95362500D01*
X153262500Y-95362500D02*
X151662500Y-95362500D01*
D14*
%TO.C,U3*%
X157674200Y-97172500D02*
G75*
G02*
X157420200Y-97172500I-127000J0D01*
G01*
X157420200Y-97172500D02*
G75*
G02*
X157674200Y-97172500I127000J0D01*
G01*
X158423500Y-97109000D02*
X158423500Y-96601000D01*
X158423500Y-96601000D02*
X157801200Y-96601000D01*
X158423500Y-95204000D02*
X158423500Y-94696000D01*
X158423500Y-94696000D02*
X157801200Y-94696000D01*
X157801200Y-97426500D02*
X157801200Y-94378500D01*
X157801200Y-97109000D02*
X158423500Y-97109000D01*
X157801200Y-96601000D02*
X157801200Y-97109000D01*
X157801200Y-95204000D02*
X158423500Y-95204000D01*
X157801200Y-94696000D02*
X157801200Y-95204000D01*
X157801200Y-94378500D02*
X156404200Y-94378500D01*
X156404200Y-97426500D02*
X157801200Y-97426500D01*
X156404200Y-96156500D02*
X156404200Y-95648500D01*
X156404200Y-95648500D02*
X155781900Y-95648500D01*
X156404200Y-94378500D02*
X156404200Y-97426500D01*
X155781900Y-96156500D02*
X156404200Y-96156500D01*
X155781900Y-95648500D02*
X155781900Y-96156500D01*
%TD*%
M02*
